{
.appVersion = "3340";
.formatVersion = 3;
date = "2025-01-12 19:30:48 +0000";
familyName = "Neue Schrift";
fontMaster = (
{
id = m01;
metricValues = (
{
over = 16;
pos = 800;
},
{
over = 16;
pos = 700;
},
{
over = 16;
pos = 500;
},
{
over = -16;
},
{
over = -16;
pos = -200;
},
{
}
);
name = Regular;
}
);
glyphs = (
{
glyphname = H.001;
layers = (
{
layerId = m01;
shapes = (
{
closed = 1;
nodes = (
(564,323,o),
(584,321,o),
(594,315,o),
(596,302,o),
(596,291,qs),
(596,150,ls),
(595,111,o),
(593,64,o),
(582,38,o),
(558,28,o),
(535,25,qs),
(516,22,l),
(511,17,o),
(513,-1,o),
(518,-3,q),
(551,-1,o),
(608,0,o),
(639,0,qs),
(668,0,o),
(724,-1,o),
(760,-3,q),
(765,-1,o),
(767,19,o),
(762,22,q),
(738,25,ls),
(716,28,o),
(692,38,o),
(680,64,o),
(678,111,o),
(678,150,qs),
(678,510,ls),
(678,549,o),
(680,597,o),
(692,623,o),
(716,634,o),
(738,636,qs),
(759,638,l),
(764,641,o),
(762,661,o),
(757,663,q),
(723,661,o),
(668,660,o),
(639,660,qs),
(608,660,o),
(553,661,o),
(518,663,q),
(513,661,o),
(511,641,o),
(516,638,q),
(535,636,ls),
(557,634,o),
(582,623,o),
(594,597,o),
(596,549,o),
(596,510,qs),
(596,395,ls),
(596,383,o),
(594,370,o),
(584,364,o),
(564,363,o),
(546,363,qs),
(260,363,ls),
(242,363,o),
(222,364,o),
(212,370,o),
(210,383,o),
(210,395,qs),
(210,510,ls),
(210,549,o),
(212,597,o),
(224,623,o),
(248,634,o),
(270,636,qs),
(289,638,l),
(294,641,o),
(292,661,o),
(287,663,q),
(255,661,o),
(200,660,o),
(171,660,qs),
(139,660,o),
(82,662,o),
(45,663,q),
(40,661,o),
(38,641,o),
(43,638,q),
(69,636,ls),
(88,634,o),
(112,624,o),
(124,597,o),
(128,549,o),
(128,510,qs),
(128,150,ls),
(128,111,o),
(126,65,o),
(114,39,o),
(91,29,o),
(70,25,qs),
(53,22,l),
(48,17,o),
(50,-1,o),
(55,-3,q),
(84,-2,o),
(139,0,o),
(171,0,qs),
(200,0,o),
(257,-1,o),
(298,-3,q),
(303,-1,o),
(305,19,o),
(300,22,q),
(271,25,ls),
(250,27,o),
(226,37,o),
(213,63,o),
(210,111,o),
(210,150,qs),
(210,291,ls),
(210,302,o),
(212,315,o),
(222,321,o),
(242,323,o),
(260,323,qs),
(546,323,ls)
);
}
);
userData = {
assembly = "PUSHW[ ]	/* 4 values pushed */
6 3 30 4
CALL[ ]	/* CallFunction */
PUSHW[ ]	/* 1 value pushed */
6
SRP0[ ]	/* SetRefPoint0 */
PUSHW[ ]	/* 4 values pushed */
92 3 68 4
CALL[ ]	/* CallFunction */
PUSHW[ ]	/* 1 value pushed */
92
SRP0[ ]	/* SetRefPoint0 */
PUSHW[ ]	/* 1 value pushed */
6
SRP0[ ]	/* SetRefPoint0 */
PUSHW[ ]	/* 1 value pushed */
55
MDRP[10000]	/* MoveDirectRelPt */
PUSHW[ ]	/* 1 value pushed */
68
SRP0[ ]	/* SetRefPoint0 */
PUSHW[ ]	/* 1 value pushed */
117
MDRP[10000]	/* MoveDirectRelPt */
SVTCA[0]	/* SetFreedomAndProjectionVectorToAxis */
PUSHW[ ]	/* 1 value pushed */
0
RCVT[ ]	/* ReadCVT */
IF[ ]	/* If */
PUSHW[ ]	/* 1 value pushed */
40
MDAP[1]	/* MoveDirectAbsPt */
ELSE[ ]	/* Else */
PUSHW[ ]	/* 2 values pushed */
40 14
MIAP[0]	/* MoveIndirectAbsPt */
EIF[ ]	/* EndIf */
PUSHW[ ]	/* 1 value pushed */
0
RCVT[ ]	/* ReadCVT */
IF[ ]	/* If */
PUSHW[ ]	/* 1 value pushed */
43
MDAP[1]	/* MoveDirectAbsPt */
ELSE[ ]	/* Else */
PUSHW[ ]	/* 2 values pushed */
43 14
MIAP[0]	/* MoveIndirectAbsPt */
EIF[ ]	/* EndIf */
PUSHW[ ]	/* 1 value pushed */
0
RCVT[ ]	/* ReadCVT */
IF[ ]	/* If */
PUSHW[ ]	/* 1 value pushed */
46
MDAP[1]	/* MoveDirectAbsPt */
ELSE[ ]	/* Else */
PUSHW[ ]	/* 2 values pushed */
46 14
MIAP[0]	/* MoveIndirectAbsPt */
EIF[ ]	/* EndIf */
PUSHW[ ]	/* 1 value pushed */
0
RCVT[ ]	/* ReadCVT */
IF[ ]	/* If */
PUSHW[ ]	/* 1 value pushed */
77
MDAP[1]	/* MoveDirectAbsPt */
ELSE[ ]	/* Else */
PUSHW[ ]	/* 2 values pushed */
77 14
MIAP[0]	/* MoveIndirectAbsPt */
EIF[ ]	/* EndIf */
PUSHW[ ]	/* 1 value pushed */
0
RCVT[ ]	/* ReadCVT */
IF[ ]	/* If */
PUSHW[ ]	/* 1 value pushed */
80
MDAP[1]	/* MoveDirectAbsPt */
ELSE[ ]	/* Else */
PUSHW[ ]	/* 2 values pushed */
80 14
MIAP[0]	/* MoveIndirectAbsPt */
EIF[ ]	/* EndIf */
PUSHW[ ]	/* 1 value pushed */
0
RCVT[ ]	/* ReadCVT */
IF[ ]	/* If */
PUSHW[ ]	/* 1 value pushed */
83
MDAP[1]	/* MoveDirectAbsPt */
ELSE[ ]	/* Else */
PUSHW[ ]	/* 2 values pushed */
83 14
MIAP[0]	/* MoveIndirectAbsPt */
EIF[ ]	/* EndIf */
PUSHW[ ]	/* 1 value pushed */
0
RCVT[ ]	/* ReadCVT */
IF[ ]	/* If */
PUSHW[ ]	/* 1 value pushed */
15
MDAP[1]	/* MoveDirectAbsPt */
ELSE[ ]	/* Else */
PUSHW[ ]	/* 2 values pushed */
15 4
MIAP[0]	/* MoveIndirectAbsPt */
EIF[ ]	/* EndIf */
PUSHW[ ]	/* 1 value pushed */
0
RCVT[ ]	/* ReadCVT */
IF[ ]	/* If */
PUSHW[ ]	/* 1 value pushed */
18
MDAP[1]	/* MoveDirectAbsPt */
ELSE[ ]	/* Else */
PUSHW[ ]	/* 2 values pushed */
18 4
MIAP[0]	/* MoveIndirectAbsPt */
EIF[ ]	/* EndIf */
PUSHW[ ]	/* 1 value pushed */
0
RCVT[ ]	/* ReadCVT */
IF[ ]	/* If */
PUSHW[ ]	/* 1 value pushed */
21
MDAP[1]	/* MoveDirectAbsPt */
ELSE[ ]	/* Else */
PUSHW[ ]	/* 2 values pushed */
21 4
MIAP[0]	/* MoveIndirectAbsPt */
EIF[ ]	/* EndIf */
PUSHW[ ]	/* 1 value pushed */
0
RCVT[ ]	/* ReadCVT */
IF[ ]	/* If */
PUSHW[ ]	/* 1 value pushed */
102
MDAP[1]	/* MoveDirectAbsPt */
ELSE[ ]	/* Else */
PUSHW[ ]	/* 2 values pushed */
102 4
MIAP[0]	/* MoveIndirectAbsPt */
EIF[ ]	/* EndIf */
PUSHW[ ]	/* 1 value pushed */
0
RCVT[ ]	/* ReadCVT */
IF[ ]	/* If */
PUSHW[ ]	/* 1 value pushed */
105
MDAP[1]	/* MoveDirectAbsPt */
ELSE[ ]	/* Else */
PUSHW[ ]	/* 2 values pushed */
105 4
MIAP[0]	/* MoveIndirectAbsPt */
EIF[ ]	/* EndIf */
PUSHW[ ]	/* 1 value pushed */
0
RCVT[ ]	/* ReadCVT */
IF[ ]	/* If */
PUSHW[ ]	/* 1 value pushed */
108
MDAP[1]	/* MoveDirectAbsPt */
ELSE[ ]	/* Else */
PUSHW[ ]	/* 2 values pushed */
108 4
MIAP[0]	/* MoveIndirectAbsPt */
EIF[ ]	/* EndIf */
PUSHW[ ]	/* 4 values pushed */
61 1 0 4
CALL[ ]	/* CallFunction */
PUSHW[ ]	/* 1 value pushed */
61
SRP0[ ]	/* SetRefPoint0 */
PUSHW[ ]	/* 1 value pushed */
15
SRP0[ ]	/* SetRefPoint0 */
PUSHW[ ]	/* 2 values pushed */
11 1
MIRP[11100]	/* MoveIndirectRelPt */
PUSHW[ ]	/* 1 value pushed */
40
SRP0[ ]	/* SetRefPoint0 */
PUSHW[ ]	/* 2 values pushed */
36 1
MIRP[11100]	/* MoveIndirectRelPt */
PUSHW[ ]	/* 1 value pushed */
49
MDRP[10000]	/* MoveDirectRelPt */
PUSHW[ ]	/* 1 value pushed */
49
MDAP[1]	/* MoveDirectAbsPt */
PUSHW[ ]	/* 1 value pushed */
50
MDRP[10000]	/* MoveDirectRelPt */
PUSHW[ ]	/* 1 value pushed */
73
MDRP[10000]	/* MoveDirectRelPt */
PUSHW[ ]	/* 1 value pushed */
74
MDRP[10000]	/* MoveDirectRelPt */
PUSHW[ ]	/* 1 value pushed */
74
MDAP[1]	/* MoveDirectAbsPt */
PUSHW[ ]	/* 1 value pushed */
86
MDRP[10000]	/* MoveDirectRelPt */
PUSHW[ ]	/* 1 value pushed */
86
MDAP[1]	/* MoveDirectAbsPt */
PUSHW[ ]	/* 1 value pushed */
87
MDRP[10000]	/* MoveDirectRelPt */
PUSHW[ ]	/* 1 value pushed */
11
SRP0[ ]	/* SetRefPoint0 */
PUSHW[ ]	/* 1 value pushed */
98
MDRP[10000]	/* MoveDirectRelPt */
PUSHW[ ]	/* 1 value pushed */
98
MDAP[1]	/* MoveDirectAbsPt */
PUSHW[ ]	/* 1 value pushed */
99
MDRP[10000]	/* MoveDirectRelPt */
PUSHW[ ]	/* 1 value pushed */
111
MDRP[10000]	/* MoveDirectRelPt */
IUP[0]	/* InterpolateUntPts */
IUP[1]	/* InterpolateUntPts */";
};
width = 806;
}
);
note = H;
},
{
glyphname = H.002;
layers = (
{
hints = (
{
horizontal = 1;
place = (673,38);
type = Stem;
},
{
horizontal = 1;
place = (344,46);
type = Stem;
},
{
horizontal = 1;
place = (-4,38);
type = Stem;
},
{
place = (601,89);
type = Stem;
},
{
place = (122,91);
type = Stem;
}
);
layerId = m01;
shapes = (
{
closed = 1;
nodes = (
(777,711,l),
(640,706,l),
(514,710,l),
(514,672,l),
(555,667,l),
(572,660,l),
(589,646,l),
(596,604,l),
(599,533,l),
(599,390,l),
(212,390,l),
(212,570,l),
(214,624,l),
(230,658,l),
(261,668,l),
(298,671,l),
(298,710,l),
(172,705,l),
(34,711,l),
(33,672,l),
(75,670,l),
(102,661,l),
(117,632,l),
(122,581,l),
(122,127,l),
(116,72,l),
(94,43,l),
(35,36,l),
(34,-3,l),
(177,4,l),
(299,-5,l),
(299,36,l),
(251,36,l),
(230,46,l),
(217,69,l),
(212,131,l),
(212,343,l),
(601,343,l),
(601,139,l),
(597,75,l),
(589,56,l),
(575,41,l),
(516,32,l),
(515,-5,l),
(651,0,l),
(777,-6,l),
(779,34,l),
(735,35,l),
(709,46,l),
(697,68,l),
(692,95,l),
(690,169,l),
(690,577,l),
(692,626,l),
(706,656,l),
(731,665,l),
(776,671,l)
);
}
);
width = 812;
}
);
},
{
glyphname = H.003;
layers = (
{
hints = (
{
horizontal = 1;
place = (673,38);
type = Stem;
},
{
horizontal = 1;
place = (344,46);
type = Stem;
},
{
horizontal = 1;
place = (-4,38);
type = Stem;
},
{
place = (601,89);
type = Stem;
},
{
place = (122,91);
type = Stem;
}
);
layerId = m01;
shapes = (
{
closed = 1;
nodes = (
(777,711,l),
(640,706,l),
(514,710,l),
(514,672,l),
(555,667,l),
(572,660,l),
(589,646,l),
(596,604,l),
(599,533,l),
(599,390,l),
(212,390,l),
(212,570,l),
(214,624,l),
(230,658,l),
(261,668,l),
(298,671,l),
(298,710,l),
(172,705,l),
(34,711,l),
(33,672,l),
(75,670,l),
(102,661,l),
(117,632,l),
(122,581,l),
(122,127,l),
(116,72,l),
(94,43,l),
(35,36,l),
(34,-3,l),
(177,4,l),
(299,-5,l),
(299,36,l),
(251,36,l),
(230,46,l),
(217,69,l),
(212,131,l),
(212,343,l),
(601,343,l),
(601,139,l),
(597,75,l),
(589,56,l),
(575,41,l),
(516,32,l),
(515,-5,l),
(651,0,l),
(777,-6,l),
(779,34,l),
(735,35,l),
(709,46,l),
(697,68,l),
(692,95,l),
(690,169,l),
(690,577,l),
(692,626,l),
(706,656,l),
(731,665,l),
(776,671,l)
);
}
);
width = 812;
}
);
},
{
glyphname = H.004;
layers = (
{
hints = (
{
horizontal = 1;
place = (673,33);
type = Stem;
},
{
horizontal = 1;
place = (363,37);
type = Stem;
},
{
horizontal = 1;
place = (0,32);
type = Stem;
},
{
place = (541,118);
type = Stem;
},
{
place = (106,117);
type = Stem;
}
);
layerId = m01;
shapes = (
{
closed = 1;
nodes = (
(106,307,l),
(106,131,l),
(102,68,l),
(93,49,l),
(62,35,l),
(29,30,l),
(15,20,l),
(17,8,l),
(33,1,l),
(77,4,l),
(151,7,l),
(233,5,l),
(261,1,l),
(289,0,l),
(311,5,l),
(314,13,l),
(303,27,l),
(283,31,l),
(260,32,l),
(229,56,l),
(225,84,l),
(224,264,l),
(224,309,l),
(228,351,l),
(250,358,l),
(291,360,l),
(427,360,l),
(504,361,l),
(536,353,l),
(541,313,l),
(540,279,l),
(541,204,l),
(540,103,l),
(537,66,l),
(525,44,l),
(503,32,l),
(477,29,l),
(459,28,l),
(450,13,l),
(458,-1,l),
(470,-2,l),
(596,5,l),
(661,2,l),
(729,-3,l),
(750,5,l),
(752,12,l),
(746,21,l),
(700,30,l),
(673,48,l),
(662,69,l),
(660,114,l),
(659,182,l),
(660,243,l),
(659,440,l),
(660,543,l),
(659,605,l),
(670,647,l),
(692,663,l),
(710,668,l),
(737,670,l),
(752,685,l),
(748,696,l),
(729,701,l),
(696,698,l),
(597,695,l),
(522,697,l),
(488,700,l),
(471,701,l),
(459,700,l),
(452,686,l),
(453,676,l),
(460,672,l),
(494,669,l),
(525,654,l),
(539,636,l),
(541,574,l),
(542,482,l),
(542,442,l),
(537,400,l),
(513,394,l),
(345,394,l),
(241,396,l),
(231,402,l),
(226,424,l),
(226,572,l),
(229,637,l),
(252,661,l),
(274,668,l),
(313,677,l),
(318,686,l),
(314,695,l),
(297,700,l),
(283,699,l),
(184,693,l),
(76,697,l),
(57,698,l),
(36,700,l),
(22,696,l),
(17,683,l),
(19,672,l),
(30,667,l),
(59,668,l),
(96,648,l),
(109,608,l),
(109,526,l),
(108,365,l)
);
}
);
width = 771;
}
);
},
{
glyphname = H.005;
layers = (
{
hints = (
{
horizontal = 1;
place = (674,34);
type = Stem;
},
{
horizontal = 1;
place = (357,46);
type = Stem;
},
{
horizontal = 1;
place = (0,35);
type = Stem;
},
{
place = (631,89);
type = Stem;
},
{
place = (109,92);
type = Stem;
}
);
layerId = m01;
shapes = (
{
closed = 1;
nodes = (
(489,404,l),
(419,404,l),
(333,405,l),
(269,406,l),
(202,406,l),
(200,447,l),
(203,560,l),
(202,592,l),
(203,644,l),
(214,661,l),
(248,672,l),
(278,675,l),
(297,675,l),
(306,683,l),
(306,695,l),
(304,708,l),
(250,709,l),
(164,706,l),
(94,709,l),
(52,708,l),
(21,710,l),
(6,707,l),
(5,687,l),
(7,676,l),
(19,676,l),
(55,673,l),
(90,657,l),
(102,637,l),
(107,615,l),
(110,553,l),
(111,504,l),
(109,439,l),
(111,351,l),
(110,326,l),
(110,282,l),
(108,249,l),
(108,159,l),
(106,99,l),
(99,64,l),
(88,51,l),
(49,37,l),
(4,34,l),
(5,4,l),
(22,3,l),
(45,-1,l),
(101,6,l),
(141,4,l),
(263,3,l),
(301,1,l),
(304,24,l),
(295,32,l),
(231,41,l),
(205,58,l),
(198,104,l),
(198,329,l),
(200,357,l),
(239,360,l),
(295,358,l),
(342,359,l),
(422,357,l),
(495,360,l),
(543,359,l),
(600,361,l),
(612,360,l),
(628,360,l),
(630,318,l),
(628,232,l),
(629,167,l),
(626,94,l),
(616,54,l),
(580,40,l),
(525,36,l),
(526,3,l),
(549,1,l),
(597,5,l),
(704,5,l),
(749,2,l),
(784,1,l),
(825,5,l),
(827,21,l),
(823,35,l),
(812,37,l),
(755,45,l),
(731,63,l),
(721,102,l),
(719,142,l),
(720,208,l),
(719,282,l),
(720,338,l),
(720,397,l),
(721,446,l),
(722,500,l),
(723,572,l),
(722,623,l),
(731,658,l),
(768,674,l),
(824,678,l),
(825,697,l),
(822,709,l),
(816,710,l),
(806,709,l),
(707,705,l),
(607,709,l),
(528,709,l),
(527,687,l),
(530,677,l),
(540,676,l),
(553,677,l),
(567,675,l),
(597,672,l),
(624,653,l),
(630,633,l),
(633,569,l),
(635,525,l),
(633,487,l),
(633,456,l),
(630,411,l),
(559,408,l)
);
}
);
width = 833;
}
);
},
{
glyphname = H.006;
layers = (
{
hints = (
{
horizontal = 1;
place = (335,46);
type = Stem;
},
{
horizontal = 1;
place = (-1,36);
type = Stem;
},
{
horizontal = 1;
place = (688,21);
target = up;
type = BottomGhost;
},
{
place = (565,92);
type = Stem;
},
{
place = (108,90);
type = Stem;
}
);
layerId = m01;
shapes = (
{
closed = 1;
nodes = (
(259,381,l),
(214,389,l),
(205,412,l),
(202,452,l),
(200,508,l),
(199,588,l),
(200,622,l),
(203,648,l),
(217,663,l),
(236,669,l),
(281,681,l),
(289,692,l),
(281,704,l),
(268,709,l),
(255,708,l),
(200,701,l),
(161,700,l),
(76,705,l),
(54,706,l),
(21,709,l),
(10,703,l),
(7,698,l),
(22,680,l),
(34,677,l),
(94,663,l),
(108,626,l),
(109,583,l),
(109,443,l),
(110,356,l),
(105,198,l),
(105,105,l),
(98,68,l),
(66,43,l),
(39,40,l),
(11,29,l),
(4,20,l),
(8,7,l),
(21,2,l),
(88,7,l),
(125,10,l),
(168,10,l),
(203,9,l),
(258,1,l),
(270,0,l),
(289,0,l),
(300,17,l),
(288,32,l),
(264,35,l),
(208,58,l),
(198,81,l),
(196,121,l),
(194,234,l),
(195,283,l),
(197,308,l),
(218,335,l),
(235,337,l),
(271,337,l),
(368,334,l),
(528,337,l),
(548,330,l),
(562,301,l),
(561,251,l),
(562,156,l),
(562,131,l),
(559,71,l),
(532,45,l),
(476,34,l),
(458,26,l),
(453,13,l),
(468,-3,l),
(477,-2,l),
(492,-1,l),
(536,6,l),
(600,11,l),
(668,4,l),
(717,-5,l),
(733,-3,l),
(741,12,l),
(735,25,l),
(719,32,l),
(682,39,l),
(672,43,l),
(661,60,l),
(653,112,l),
(653,204,l),
(654,256,l),
(653,315,l),
(654,362,l),
(653,405,l),
(653,493,l),
(651,558,l),
(658,649,l),
(683,664,l),
(712,669,l),
(731,671,l),
(745,687,l),
(740,699,l),
(727,704,l),
(712,702,l),
(692,701,l),
(657,697,l),
(598,695,l),
(566,696,l),
(526,701,l),
(493,703,l),
(477,689,l),
(488,673,l),
(504,668,l),
(532,661,l),
(554,641,l),
(562,615,l),
(563,553,l),
(562,482,l),
(562,443,l),
(561,426,l),
(560,397,l),
(541,382,l),
(527,378,l),
(495,377,l),
(399,380,l),
(282,379,l)
);
}
);
width = 771;
}
);
},
{
glyphname = H.007;
layers = (
{
layerId = m01;
shapes = (
{
closed = 1;
nodes = (
(241,384,o),
(241,409,qs),
(241,561,ls),
(241,605,o),
(249,617,qs),
(261,635,o),
(294,637,qs),
(332,640,o),
(332,655,qs),
(332,670,o),
(311,670,qs),
(299,670,o),
(293,669,q),
(225,666,o),
(186,666,qs),
(142,666,o),
(64,670,o),
(57,670,qs),
(35,670,o),
(35,655,qs),
(35,639,o),
(73,637,qs),
(106,635,o),
(118,617,qs),
(126,605,o),
(126,561,qs),
(126,106,ls),
(126,63,o),
(118,51,qs),
(105,32,o),
(73,30,qs),
(35,27,o),
(35,12,qs),
(35,-3,o),
(56,-3,qs),
(68,-3,o),
(75,-2,qs),
(144,1,o),
(184,1,qs),
(208,1,o),
(322,-3,o),
(310,-3,qs),
(332,-3,o),
(332,12,qs),
(332,27,o),
(294,30,qs),
(261,33,o),
(249,50,qs),
(241,62,o),
(241,106,qs),
(241,315,ls),
(241,333,o),
(253,340,o),
(282,340,qs),
(508,340,ls),
(532,340,o),
(543,332,o),
(543,313,qs),
(543,106,ls),
(543,63,o),
(535,51,qs),
(522,32,o),
(490,30,qs),
(452,27,o),
(452,12,qs),
(452,-3,o),
(473,-3,qs),
(485,-3,o),
(491,-2,q),
(561,1,o),
(600,1,qs),
(643,1,o),
(721,-3,o),
(728,-3,qs),
(750,-3,o),
(750,12,qs),
(750,27,o),
(712,30,qs),
(678,33,o),
(666,50,qs),
(658,62,o),
(658,106,qs),
(658,561,ls),
(658,605,o),
(666,617,qs),
(678,634,o),
(712,637,qs),
(750,640,o),
(750,655,qs),
(750,670,o),
(729,670,qs),
(717,670,o),
(710,669,qs),
(641,666,o),
(601,666,qs),
(577,666,o),
(463,670,o),
(474,670,qs),
(452,670,o),
(452,655,qs),
(452,640,o),
(490,637,qs),
(523,634,o),
(535,617,qs),
(543,605,o),
(543,561,qs),
(543,409,ls),
(543,386,o),
(532,376,o),
(504,376,qs),
(276,376,ls),
(250,376,o)
);
}
);
userData = {
assembly = "PUSHW[ ]	/* 1 value pushed */
10
CALL[ ]	/* CallFunction */
PUSHW[ ]	/* 1 value pushed */
112
MDAP[1]	/* MoveDirectAbsPt */
PUSHW[ ]	/* 1 value pushed */
113
MDAP[1]	/* MoveDirectAbsPt */
PUSHW[ ]	/* 1 value pushed */
28
MDRP[11100]	/* MoveDirectRelPt */
PUSHW[ ]	/* 1 value pushed */
5
MDRP[11100]	/* MoveDirectRelPt */
PUSHW[ ]	/* 1 value pushed */
112
SRP0[ ]	/* SetRefPoint0 */
PUSHW[ ]	/* 1 value pushed */
84
MDRP[10000]	/* MoveDirectRelPt */
PUSHW[ ]	/* 1 value pushed */
84
MDAP[1]	/* MoveDirectAbsPt */
PUSHW[ ]	/* 3 values pushed */
13 84 28
SRP1[ ]	/* SetRefPoint1 */
SRP2[ ]	/* SetRefPoint2 */
IP[ ]	/* InterpolatePts */
PUSHW[ ]	/* 1 value pushed */
5
SRP0[ ]	/* SetRefPoint0 */
PUSHW[ ]	/* 1 value pushed */
52
MDRP[10000]	/* MoveDirectRelPt */
PUSHW[ ]	/* 1 value pushed */
84
SRP0[ ]	/* SetRefPoint0 */
PUSHW[ ]	/* 1 value pushed */
61
MDRP[11100]	/* MoveDirectRelPt */
PUSHW[ ]	/* 3 values pushed */
69 84 28
SRP1[ ]	/* SetRefPoint1 */
SRP2[ ]	/* SetRefPoint2 */
IP[ ]	/* InterpolatePts */
PUSHW[ ]	/* 1 value pushed */
108
MDRP[10000]	/* MoveDirectRelPt */
SVTCA[0]	/* SetFreedomAndProjectionVectorToAxis */
PUSHW[ ]	/* 1 value pushed */
37
RCVT[ ]	/* ReadCVT */
IF[ ]	/* If */
PUSHW[ ]	/* 1 value pushed */
13
MDAP[1]	/* MoveDirectAbsPt */
ELSE[ ]	/* Else */
PUSHW[ ]	/* 2 values pushed */
13 44
MIAP[0]	/* MoveIndirectAbsPt */
EIF[ ]	/* EndIf */
PUSHW[ ]	/* 1 value pushed */
37
RCVT[ ]	/* ReadCVT */
IF[ ]	/* If */
PUSHW[ ]	/* 1 value pushed */
16
MDAP[1]	/* MoveDirectAbsPt */
ELSE[ ]	/* Else */
PUSHW[ ]	/* 2 values pushed */
16 44
MIAP[0]	/* MoveIndirectAbsPt */
EIF[ ]	/* EndIf */
PUSHW[ ]	/* 1 value pushed */
37
RCVT[ ]	/* ReadCVT */
IF[ ]	/* If */
PUSHW[ ]	/* 1 value pushed */
18
MDAP[1]	/* MoveDirectAbsPt */
ELSE[ ]	/* Else */
PUSHW[ ]	/* 2 values pushed */
18 44
MIAP[0]	/* MoveIndirectAbsPt */
EIF[ ]	/* EndIf */
PUSHW[ ]	/* 1 value pushed */
37
RCVT[ ]	/* ReadCVT */
IF[ ]	/* If */
PUSHW[ ]	/* 1 value pushed */
20
MDAP[1]	/* MoveDirectAbsPt */
ELSE[ ]	/* Else */
PUSHW[ ]	/* 2 values pushed */
20 44
MIAP[0]	/* MoveIndirectAbsPt */
EIF[ ]	/* EndIf */
PUSHW[ ]	/* 1 value pushed */
37
RCVT[ ]	/* ReadCVT */
IF[ ]	/* If */
PUSHW[ ]	/* 1 value pushed */
93
MDAP[1]	/* MoveDirectAbsPt */
ELSE[ ]	/* Else */
PUSHW[ ]	/* 2 values pushed */
93 44
MIAP[0]	/* MoveIndirectAbsPt */
EIF[ ]	/* EndIf */
PUSHW[ ]	/* 1 value pushed */
37
RCVT[ ]	/* ReadCVT */
IF[ ]	/* If */
PUSHW[ ]	/* 1 value pushed */
96
MDAP[1]	/* MoveDirectAbsPt */
ELSE[ ]	/* Else */
PUSHW[ ]	/* 2 values pushed */
96 44
MIAP[0]	/* MoveIndirectAbsPt */
EIF[ ]	/* EndIf */
PUSHW[ ]	/* 1 value pushed */
37
RCVT[ ]	/* ReadCVT */
IF[ ]	/* If */
PUSHW[ ]	/* 1 value pushed */
98
MDAP[1]	/* MoveDirectAbsPt */
ELSE[ ]	/* Else */
PUSHW[ ]	/* 2 values pushed */
98 44
MIAP[0]	/* MoveIndirectAbsPt */
EIF[ ]	/* EndIf */
PUSHW[ ]	/* 1 value pushed */
37
RCVT[ ]	/* ReadCVT */
IF[ ]	/* If */
PUSHW[ ]	/* 1 value pushed */
100
MDAP[1]	/* MoveDirectAbsPt */
ELSE[ ]	/* Else */
PUSHW[ ]	/* 2 values pushed */
100 44
MIAP[0]	/* MoveIndirectAbsPt */
EIF[ ]	/* EndIf */
PUSHW[ ]	/* 1 value pushed */
37
RCVT[ ]	/* ReadCVT */
IF[ ]	/* If */
PUSHW[ ]	/* 1 value pushed */
37
MDAP[1]	/* MoveDirectAbsPt */
ELSE[ ]	/* Else */
PUSHW[ ]	/* 2 values pushed */
37 38
MIAP[0]	/* MoveIndirectAbsPt */
EIF[ ]	/* EndIf */
PUSHW[ ]	/* 1 value pushed */
37
RCVT[ ]	/* ReadCVT */
IF[ ]	/* If */
PUSHW[ ]	/* 1 value pushed */
40
MDAP[1]	/* MoveDirectAbsPt */
ELSE[ ]	/* Else */
PUSHW[ ]	/* 2 values pushed */
40 38
MIAP[0]	/* MoveIndirectAbsPt */
EIF[ ]	/* EndIf */
PUSHW[ ]	/* 1 value pushed */
37
RCVT[ ]	/* ReadCVT */
IF[ ]	/* If */
PUSHW[ ]	/* 1 value pushed */
42
MDAP[1]	/* MoveDirectAbsPt */
ELSE[ ]	/* Else */
PUSHW[ ]	/* 2 values pushed */
42 38
MIAP[0]	/* MoveIndirectAbsPt */
EIF[ ]	/* EndIf */
PUSHW[ ]	/* 1 value pushed */
37
RCVT[ ]	/* ReadCVT */
IF[ ]	/* If */
PUSHW[ ]	/* 1 value pushed */
44
MDAP[1]	/* MoveDirectAbsPt */
ELSE[ ]	/* Else */
PUSHW[ ]	/* 2 values pushed */
44 38
MIAP[0]	/* MoveIndirectAbsPt */
EIF[ ]	/* EndIf */
PUSHW[ ]	/* 1 value pushed */
37
RCVT[ ]	/* ReadCVT */
IF[ ]	/* If */
PUSHW[ ]	/* 1 value pushed */
69
MDAP[1]	/* MoveDirectAbsPt */
ELSE[ ]	/* Else */
PUSHW[ ]	/* 2 values pushed */
69 38
MIAP[0]	/* MoveIndirectAbsPt */
EIF[ ]	/* EndIf */
PUSHW[ ]	/* 1 value pushed */
37
RCVT[ ]	/* ReadCVT */
IF[ ]	/* If */
PUSHW[ ]	/* 1 value pushed */
72
MDAP[1]	/* MoveDirectAbsPt */
ELSE[ ]	/* Else */
PUSHW[ ]	/* 2 values pushed */
72 38
MIAP[0]	/* MoveIndirectAbsPt */
EIF[ ]	/* EndIf */
PUSHW[ ]	/* 1 value pushed */
37
RCVT[ ]	/* ReadCVT */
IF[ ]	/* If */
PUSHW[ ]	/* 1 value pushed */
74
MDAP[1]	/* MoveDirectAbsPt */
ELSE[ ]	/* Else */
PUSHW[ ]	/* 2 values pushed */
74 38
MIAP[0]	/* MoveIndirectAbsPt */
EIF[ ]	/* EndIf */
PUSHW[ ]	/* 1 value pushed */
37
RCVT[ ]	/* ReadCVT */
IF[ ]	/* If */
PUSHW[ ]	/* 1 value pushed */
76
MDAP[1]	/* MoveDirectAbsPt */
ELSE[ ]	/* Else */
PUSHW[ ]	/* 2 values pushed */
76 38
MIAP[0]	/* MoveIndirectAbsPt */
EIF[ ]	/* EndIf */
PUSHW[ ]	/* 3 values pushed */
1 56 13
CALL[ ]	/* CallFunction */
PUSHW[ ]	/* 1 value pushed */
1
SRP0[ ]	/* SetRefPoint0 */
PUSHW[ ]	/* 1 value pushed */
13
SRP0[ ]	/* SetRefPoint0 */
PUSHW[ ]	/* 1 value pushed */
9
MDRP[11100]	/* MoveDirectRelPt */
NPUSHW[ ]	/* 5 values pushed */
57 9 73 9 2
DELTAP2[ ]	/* DeltaExceptionP2 */
NPUSHW[ ]	/* 21 values pushed */
104 9 120 9 136 9 152 9 168 9 184 9 200 9 216 9 232 9 248 9 10
DELTAP1[ ]	/* DeltaExceptionP1 */
NPUSHW[ ]	/* 7 values pushed */
8 9 24 9 40 9 3
DELTAP2[ ]	/* DeltaExceptionP2 */
PUSHW[ ]	/* 1 value pushed */
24
MDRP[10000]	/* MoveDirectRelPt */
PUSHW[ ]	/* 1 value pushed */
37
SRP0[ ]	/* SetRefPoint0 */
PUSHW[ ]	/* 1 value pushed */
33
MDRP[11100]	/* MoveDirectRelPt */
NPUSHW[ ]	/* 21 values pushed */
103 33 119 33 135 33 151 33 167 33 183 33 199 33 215 33 231 33 247 33 10
DELTAP1[ ]	/* DeltaExceptionP1 */
NPUSHW[ ]	/* 7 values pushed */
7 33 23 33 39 33 3
DELTAP2[ ]	/* DeltaExceptionP2 */
NPUSHW[ ]	/* 5 values pushed */
54 33 70 33 2
DELTAP2[ ]	/* DeltaExceptionP2 */
PUSHW[ ]	/* 1 value pushed */
48
MDRP[10000]	/* MoveDirectRelPt */
PUSHW[ ]	/* 1 value pushed */
65
MDRP[10000]	/* MoveDirectRelPt */
PUSHW[ ]	/* 1 value pushed */
80
MDRP[10000]	/* MoveDirectRelPt */
PUSHW[ ]	/* 1 value pushed */
24
SRP0[ ]	/* SetRefPoint0 */
PUSHW[ ]	/* 1 value pushed */
89
MDRP[10000]	/* MoveDirectRelPt */
PUSHW[ ]	/* 1 value pushed */
104
MDRP[10000]	/* MoveDirectRelPt */
IUP[0]	/* InterpolateUntPts */
IUP[1]	/* InterpolateUntPts */";
};
width = 785;
}
);
note = H;
},
{
glyphname = H.008;
layers = (
{
layerId = m01;
shapes = (
{
closed = 1;
nodes = (
(153,668,o),
(142,668,qs),
(112,668,o),
(72,670,qs),
(52,671,o),
(50,671,qs),
(40,671,o),
(33,665,o),
(33,655,qs),
(33,643,o),
(39,638,o),
(56,638,qs),
(95,637,o),
(113,619,qs),
(123,609,o),
(127,581,o),
(131,509,q),
(130,480,l),
(132,442,l),
(131,391,l),
(132,326,l),
(131,292,l),
(132,248,ls),
(132,227,o),
(130,187,qs),
(129,171,o),
(129,142,qs),
(129,123,ls),
(130,113,o),
(130,104,qs),
(130,47,o),
(103,37,qs),
(88,32,o),
(56,30,qs),
(35,29,o),
(35,14,qs),
(35,-4,o),
(62,-4,qs),
(63,-4,o),
(71,-4,qs),
(79,-3,o),
(86,-3,qs),
(184,0,o),
(207,-1,qs),
(301,-4,ls),
(314,-4,o),
(314,11,qs),
(314,21,o),
(306,29,o),
(293,29,qs),
(250,30,o),
(236,38,qs),
(217,51,o),
(217,92,qs),
(217,103,o),
(214,137,o),
(215,158,qs),
(217,224,l),
(216,276,ls),
(215,327,o),
(221,330,qs),
(231,335,o),
(292,335,qs),
(318,335,ls),
(329,335,o),
(341,334,qs),
(353,334,o),
(354,334,qs),
(428,335,ls),
(505,336,o),
(523,336,qs),
(553,337,o),
(612,337,qs),
(625,337,o),
(626,332,qs),
(629,321,o),
(629,218,qs),
(629,199,o),
(627,170,o),
(627,165,qs),
(628,116,ls),
(629,61,o),
(599,29,o),
(554,30,qs),
(539,30,o),
(529,24,o),
(529,10,qs),
(529,-4,o),
(543,-4,qs),
(574,-3,ls),
(667,0,o),
(684,0,qs),
(704,0,o),
(721,-1,qs),
(773,-4,o),
(789,-4,qs),
(804,-4,o),
(811,5,o),
(811,16,qs),
(811,30,o),
(789,30,qs),
(741,31,o),
(708,70,o),
(710,145,qs),
(711,179,ls),
(711,185,o),
(710,197,qs),
(710,220,ls),
(710,231,o),
(711,277,qs),
(715,460,o),
(715,576,qs),
(715,613,o),
(741,636,o),
(782,635,qs),
(811,634,o),
(811,653,qs),
(811,668,o),
(796,668,qs),
(786,668,o),
(752,666,qs),
(726,664,o),
(708,665,qs),
(564,669,ls),
(536,670,o),
(536,653,qs),
(536,638,o),
(560,636,qs),
(593,634,o),
(613,626,o),
(620,613,qs),
(631,591,o),
(630,541,qs),
(629,503,l),
(630,440,ls),
(631,388,o),
(618,379,o),
(578,379,qs),
(552,379,o),
(529,378,qs),
(501,377,o),
(482,377,qs),
(400,378,l),
(317,376,ls),
(232,374,o),
(221,385,q),
(212,391,o),
(217,466,qs),
(219,498,l),
(217,537,ls),
(216,560,o),
(216,574,qs),
(216,615,o),
(231,626,qs),
(242,634,o),
(291,636,qs),
(308,637,o),
(311,638,qs),
(320,641,o),
(320,653,qs),
(320,672,o),
(303,671,qs),
(181,666,l)
);
}
);
userData = {
assembly = "PUSHW[ ]	/* 1 value pushed */
10
CALL[ ]	/* CallFunction */
PUSHW[ ]	/* 1 value pushed */
163
MDAP[1]	/* MoveDirectAbsPt */
PUSHW[ ]	/* 1 value pushed */
164
MDAP[1]	/* MoveDirectAbsPt */
PUSHW[ ]	/* 1 value pushed */
163
SRP0[ ]	/* SetRefPoint0 */
PUSHW[ ]	/* 1 value pushed */
140
MDRP[10000]	/* MoveDirectRelPt */
PUSHW[ ]	/* 1 value pushed */
140
MDAP[1]	/* MoveDirectAbsPt */
PUSHW[ ]	/* 1 value pushed */
104
MDRP[11100]	/* MoveDirectRelPt */
PUSHW[ ]	/* 1 value pushed */
10
MDRP[10000]	/* MoveDirectRelPt */
PUSHW[ ]	/* 1 value pushed */
10
MDAP[1]	/* MoveDirectAbsPt */
PUSHW[ ]	/* 1 value pushed */
104
SRP0[ ]	/* SetRefPoint0 */
PUSHW[ ]	/* 1 value pushed */
12
MDRP[10000]	/* MoveDirectRelPt */
PUSHW[ ]	/* 1 value pushed */
104
SRP0[ ]	/* SetRefPoint0 */
PUSHW[ ]	/* 1 value pushed */
14
MDRP[10000]	/* MoveDirectRelPt */
PUSHW[ ]	/* 1 value pushed */
104
SRP0[ ]	/* SetRefPoint0 */
PUSHW[ ]	/* 1 value pushed */
16
MDRP[10000]	/* MoveDirectRelPt */
PUSHW[ ]	/* 1 value pushed */
16
MDAP[1]	/* MoveDirectAbsPt */
PUSHW[ ]	/* 1 value pushed */
164
SRP0[ ]	/* SetRefPoint0 */
PUSHW[ ]	/* 1 value pushed */
54
MDRP[11100]	/* MoveDirectRelPt */
PUSHW[ ]	/* 1 value pushed */
85
MDRP[11100]	/* MoveDirectRelPt */
PUSHW[ ]	/* 1 value pushed */
27
MDRP[10000]	/* MoveDirectRelPt */
PUSHW[ ]	/* 1 value pushed */
27
MDAP[1]	/* MoveDirectAbsPt */
PUSHW[ ]	/* 1 value pushed */
85
SRP0[ ]	/* SetRefPoint0 */
PUSHW[ ]	/* 1 value pushed */
29
MDRP[10000]	/* MoveDirectRelPt */
PUSHW[ ]	/* 1 value pushed */
29
MDAP[1]	/* MoveDirectAbsPt */
PUSHW[ ]	/* 1 value pushed */
54
SRP0[ ]	/* SetRefPoint0 */
PUSHW[ ]	/* 1 value pushed */
39
MDRP[10000]	/* MoveDirectRelPt */
PUSHW[ ]	/* 1 value pushed */
39
MDAP[1]	/* MoveDirectAbsPt */
PUSHW[ ]	/* 1 value pushed */
54
SRP0[ ]	/* SetRefPoint0 */
PUSHW[ ]	/* 1 value pushed */
50
MDRP[10000]	/* MoveDirectRelPt */
PUSHW[ ]	/* 1 value pushed */
50
MDAP[1]	/* MoveDirectAbsPt */
PUSHW[ ]	/* 1 value pushed */
54
SRP0[ ]	/* SetRefPoint0 */
PUSHW[ ]	/* 1 value pushed */
52
MDRP[10000]	/* MoveDirectRelPt */
PUSHW[ ]	/* 1 value pushed */
52
MDAP[1]	/* MoveDirectAbsPt */
PUSHW[ ]	/* 1 value pushed */
54
SRP0[ ]	/* SetRefPoint0 */
PUSHW[ ]	/* 1 value pushed */
57
MDRP[10000]	/* MoveDirectRelPt */
PUSHW[ ]	/* 1 value pushed */
57
MDAP[1]	/* MoveDirectAbsPt */
PUSHW[ ]	/* 1 value pushed */
85
SRP0[ ]	/* SetRefPoint0 */
PUSHW[ ]	/* 1 value pushed */
81
MDRP[10000]	/* MoveDirectRelPt */
PUSHW[ ]	/* 1 value pushed */
81
MDAP[1]	/* MoveDirectAbsPt */
PUSHW[ ]	/* 1 value pushed */
85
SRP0[ ]	/* SetRefPoint0 */
PUSHW[ ]	/* 1 value pushed */
87
MDRP[10000]	/* MoveDirectRelPt */
PUSHW[ ]	/* 1 value pushed */
87
MDAP[1]	/* MoveDirectAbsPt */
PUSHW[ ]	/* 1 value pushed */
104
SRP0[ ]	/* SetRefPoint0 */
PUSHW[ ]	/* 1 value pushed */
101
MDRP[10000]	/* MoveDirectRelPt */
PUSHW[ ]	/* 1 value pushed */
101
MDAP[1]	/* MoveDirectAbsPt */
PUSHW[ ]	/* 1 value pushed */
104
SRP0[ ]	/* SetRefPoint0 */
PUSHW[ ]	/* 1 value pushed */
108
MDRP[10000]	/* MoveDirectRelPt */
PUSHW[ ]	/* 1 value pushed */
140
SRP0[ ]	/* SetRefPoint0 */
PUSHW[ ]	/* 1 value pushed */
132
MDRP[10000]	/* MoveDirectRelPt */
PUSHW[ ]	/* 1 value pushed */
132
MDAP[1]	/* MoveDirectAbsPt */
PUSHW[ ]	/* 1 value pushed */
140
SRP0[ ]	/* SetRefPoint0 */
PUSHW[ ]	/* 1 value pushed */
134
MDRP[10000]	/* MoveDirectRelPt */
PUSHW[ ]	/* 1 value pushed */
134
MDAP[1]	/* MoveDirectAbsPt */
PUSHW[ ]	/* 1 value pushed */
140
SRP0[ ]	/* SetRefPoint0 */
PUSHW[ ]	/* 1 value pushed */
137
MDRP[10000]	/* MoveDirectRelPt */
PUSHW[ ]	/* 1 value pushed */
137
MDAP[1]	/* MoveDirectAbsPt */
PUSHW[ ]	/* 1 value pushed */
140
SRP0[ ]	/* SetRefPoint0 */
PUSHW[ ]	/* 1 value pushed */
142
MDRP[10000]	/* MoveDirectRelPt */
PUSHW[ ]	/* 1 value pushed */
140
SRP0[ ]	/* SetRefPoint0 */
PUSHW[ ]	/* 1 value pushed */
144
MDRP[10000]	/* MoveDirectRelPt */
PUSHW[ ]	/* 1 value pushed */
144
MDAP[1]	/* MoveDirectAbsPt */
SVTCA[0]	/* SetFreedomAndProjectionVectorToAxis */
PUSHW[ ]	/* 1 value pushed */
0
MDAP[1]	/* MoveDirectAbsPt */
PUSHW[ ]	/* 1 value pushed */
38
MDAP[1]	/* MoveDirectAbsPt */
PUSHW[ ]	/* 1 value pushed */
41
MDAP[1]	/* MoveDirectAbsPt */
PUSHW[ ]	/* 1 value pushed */
43
MDAP[1]	/* MoveDirectAbsPt */
PUSHW[ ]	/* 1 value pushed */
156
MDAP[1]	/* MoveDirectAbsPt */
PUSHW[ ]	/* 1 value pushed */
158
MDAP[1]	/* MoveDirectAbsPt */
PUSHW[ ]	/* 1 value pushed */
160
MDAP[1]	/* MoveDirectAbsPt */
PUSHW[ ]	/* 1 value pushed */
37
RCVT[ ]	/* ReadCVT */
IF[ ]	/* If */
PUSHW[ ]	/* 1 value pushed */
66
MDAP[1]	/* MoveDirectAbsPt */
ELSE[ ]	/* Else */
PUSHW[ ]	/* 2 values pushed */
66 38
MIAP[0]	/* MoveIndirectAbsPt */
EIF[ ]	/* EndIf */
PUSHW[ ]	/* 1 value pushed */
37
RCVT[ ]	/* ReadCVT */
IF[ ]	/* If */
PUSHW[ ]	/* 1 value pushed */
68
MDAP[1]	/* MoveDirectAbsPt */
ELSE[ ]	/* Else */
PUSHW[ ]	/* 2 values pushed */
68 38
MIAP[0]	/* MoveIndirectAbsPt */
EIF[ ]	/* EndIf */
PUSHW[ ]	/* 1 value pushed */
37
RCVT[ ]	/* ReadCVT */
IF[ ]	/* If */
PUSHW[ ]	/* 1 value pushed */
70
MDAP[1]	/* MoveDirectAbsPt */
ELSE[ ]	/* Else */
PUSHW[ ]	/* 2 values pushed */
70 38
MIAP[0]	/* MoveIndirectAbsPt */
EIF[ ]	/* EndIf */
PUSHW[ ]	/* 1 value pushed */
37
RCVT[ ]	/* ReadCVT */
IF[ ]	/* If */
PUSHW[ ]	/* 1 value pushed */
72
MDAP[1]	/* MoveDirectAbsPt */
ELSE[ ]	/* Else */
PUSHW[ ]	/* 2 values pushed */
72 38
MIAP[0]	/* MoveIndirectAbsPt */
EIF[ ]	/* EndIf */
PUSHW[ ]	/* 1 value pushed */
37
RCVT[ ]	/* ReadCVT */
IF[ ]	/* If */
PUSHW[ ]	/* 1 value pushed */
117
MDAP[1]	/* MoveDirectAbsPt */
ELSE[ ]	/* Else */
PUSHW[ ]	/* 2 values pushed */
117 38
MIAP[0]	/* MoveIndirectAbsPt */
EIF[ ]	/* EndIf */
PUSHW[ ]	/* 1 value pushed */
37
RCVT[ ]	/* ReadCVT */
IF[ ]	/* If */
PUSHW[ ]	/* 1 value pushed */
120
MDAP[1]	/* MoveDirectAbsPt */
ELSE[ ]	/* Else */
PUSHW[ ]	/* 2 values pushed */
120 38
MIAP[0]	/* MoveIndirectAbsPt */
EIF[ ]	/* EndIf */
PUSHW[ ]	/* 1 value pushed */
37
RCVT[ ]	/* ReadCVT */
IF[ ]	/* If */
PUSHW[ ]	/* 1 value pushed */
122
MDAP[1]	/* MoveDirectAbsPt */
ELSE[ ]	/* Else */
PUSHW[ ]	/* 2 values pushed */
122 38
MIAP[0]	/* MoveIndirectAbsPt */
EIF[ ]	/* EndIf */
PUSHW[ ]	/* 1 value pushed */
37
RCVT[ ]	/* ReadCVT */
IF[ ]	/* If */
PUSHW[ ]	/* 1 value pushed */
124
MDAP[1]	/* MoveDirectAbsPt */
ELSE[ ]	/* Else */
PUSHW[ ]	/* 2 values pushed */
124 38
MIAP[0]	/* MoveIndirectAbsPt */
EIF[ ]	/* EndIf */
PUSHW[ ]	/* 3 values pushed */
24 93 13
CALL[ ]	/* CallFunction */
PUSHW[ ]	/* 1 value pushed */
24
SRP0[ ]	/* SetRefPoint0 */
PUSHW[ ]	/* 1 value pushed */
41
SRP0[ ]	/* SetRefPoint0 */
PUSHW[ ]	/* 1 value pushed */
47
MDRP[11100]	/* MoveDirectRelPt */
PUSHW[ ]	/* 1 value pushed */
6
MDRP[10000]	/* MoveDirectRelPt */
PUSHW[ ]	/* 1 value pushed */
6
MDAP[1]	/* MoveDirectAbsPt */
PUSHW[ ]	/* 1 value pushed */
24
SRP0[ ]	/* SetRefPoint0 */
PUSHW[ ]	/* 1 value pushed */
18
MDRP[10000]	/* MoveDirectRelPt */
PUSHW[ ]	/* 1 value pushed */
18
MDAP[1]	/* MoveDirectAbsPt */
PUSHW[ ]	/* 1 value pushed */
24
SRP0[ ]	/* SetRefPoint0 */
PUSHW[ ]	/* 1 value pushed */
20
MDRP[10000]	/* MoveDirectRelPt */
PUSHW[ ]	/* 1 value pushed */
20
MDAP[1]	/* MoveDirectAbsPt */
PUSHW[ ]	/* 1 value pushed */
24
SRP0[ ]	/* SetRefPoint0 */
PUSHW[ ]	/* 1 value pushed */
22
MDRP[10000]	/* MoveDirectRelPt */
PUSHW[ ]	/* 1 value pushed */
22
MDAP[1]	/* MoveDirectAbsPt */
PUSHW[ ]	/* 1 value pushed */
47
SRP0[ ]	/* SetRefPoint0 */
PUSHW[ ]	/* 1 value pushed */
34
MDRP[10000]	/* MoveDirectRelPt */
PUSHW[ ]	/* 1 value pushed */
34
MDAP[1]	/* MoveDirectAbsPt */
PUSHW[ ]	/* 1 value pushed */
41
SRP0[ ]	/* SetRefPoint0 */
PUSHW[ ]	/* 1 value pushed */
39
MDRP[10000]	/* MoveDirectRelPt */
PUSHW[ ]	/* 1 value pushed */
39
MDAP[1]	/* MoveDirectAbsPt */
PUSHW[ ]	/* 1 value pushed */
66
SRP0[ ]	/* SetRefPoint0 */
PUSHW[ ]	/* 1 value pushed */
61
MDRP[11100]	/* MoveDirectRelPt */
NPUSHW[ ]	/* 21 values pushed */
103 61 119 61 135 61 151 61 167 61 183 61 199 61 215 61 231 61 247 61 10
DELTAP1[ ]	/* DeltaExceptionP1 */
NPUSHW[ ]	/* 7 values pushed */
7 61 23 61 39 61 3
DELTAP2[ ]	/* DeltaExceptionP2 */
NPUSHW[ ]	/* 5 values pushed */
54 61 70 61 2
DELTAP2[ ]	/* DeltaExceptionP2 */
PUSHW[ ]	/* 1 value pushed */
78
MDRP[10000]	/* MoveDirectRelPt */
PUSHW[ ]	/* 1 value pushed */
93
SRP0[ ]	/* SetRefPoint0 */
PUSHW[ ]	/* 1 value pushed */
89
MDRP[10000]	/* MoveDirectRelPt */
PUSHW[ ]	/* 1 value pushed */
89
MDAP[1]	/* MoveDirectAbsPt */
PUSHW[ ]	/* 1 value pushed */
93
SRP0[ ]	/* SetRefPoint0 */
PUSHW[ ]	/* 1 value pushed */
91
MDRP[10000]	/* MoveDirectRelPt */
PUSHW[ ]	/* 1 value pushed */
91
MDAP[1]	/* MoveDirectAbsPt */
PUSHW[ ]	/* 1 value pushed */
93
SRP0[ ]	/* SetRefPoint0 */
PUSHW[ ]	/* 1 value pushed */
96
MDRP[10000]	/* MoveDirectRelPt */
PUSHW[ ]	/* 1 value pushed */
96
MDAP[1]	/* MoveDirectAbsPt */
PUSHW[ ]	/* 1 value pushed */
93
SRP0[ ]	/* SetRefPoint0 */
PUSHW[ ]	/* 1 value pushed */
98
MDRP[10000]	/* MoveDirectRelPt */
PUSHW[ ]	/* 1 value pushed */
78
SRP0[ ]	/* SetRefPoint0 */
PUSHW[ ]	/* 1 value pushed */
112
MDRP[10000]	/* MoveDirectRelPt */
PUSHW[ ]	/* 1 value pushed */
112
MDAP[1]	/* MoveDirectAbsPt */
PUSHW[ ]	/* 1 value pushed */
128
MDRP[10000]	/* MoveDirectRelPt */
PUSHW[ ]	/* 1 value pushed */
47
SRP0[ ]	/* SetRefPoint0 */
PUSHW[ ]	/* 1 value pushed */
150
MDRP[10000]	/* MoveDirectRelPt */
PUSHW[ ]	/* 1 value pushed */
150
MDAP[1]	/* MoveDirectAbsPt */
PUSHW[ ]	/* 1 value pushed */
41
SRP0[ ]	/* SetRefPoint0 */
PUSHW[ ]	/* 1 value pushed */
162
MDRP[10000]	/* MoveDirectRelPt */
IUP[0]	/* InterpolateUntPts */
IUP[1]	/* InterpolateUntPts */";
};
width = 844;
}
);
note = H;
},
{
glyphname = H.009;
layers = (
{
layerId = m01;
shapes = (
{
closed = 1;
nodes = (
(218,611,qs),
(220,625,o),
(239,634,o),
(273,636,qs),
(321,639,l),
(316,651,o),
(316,655,qs),
(316,659,o),
(321,671,q),
(264,667,ls),
(236,665,o),
(172,665,qs),
(108,665,o),
(80,667,qs),
(23,671,l),
(28,659,o),
(28,655,qs),
(28,651,o),
(23,639,q),
(71,636,ls),
(103,634,o),
(123,626,o),
(125,614,qs),
(133,575,o),
(133,423,qs),
(133,244,ls),
(133,104,o),
(126,56,qs),
(124,42,o),
(104,33,o),
(71,31,qs),
(23,28,l),
(28,16,o),
(28,12,qs),
(28,7,o),
(23,-3,q),
(80,0,ls),
(118,2,o),
(172,2,qs),
(226,2,o),
(264,0,qs),
(321,-3,l),
(316,7,o),
(316,12,qs),
(316,16,o),
(321,28,q),
(273,31,ls),
(241,33,o),
(221,41,o),
(219,53,qs),
(211,92,o),
(211,244,qs),
(211,314,l),
(334,321,o),
(444,321,qs),
(588,319,l),
(588,244,ls),
(588,71,o),
(579,47,qs),
(574,34,o),
(526,31,qs),
(478,28,l),
(483,16,o),
(483,12,qs),
(483,7,o),
(478,-3,q),
(535,0,ls),
(573,2,o),
(627,2,qs),
(681,2,o),
(719,0,qs),
(776,-3,l),
(771,7,o),
(771,12,qs),
(771,16,o),
(776,28,q),
(728,31,ls),
(696,33,o),
(676,41,o),
(674,53,qs),
(666,92,o),
(666,244,qs),
(666,423,ls),
(666,562,o),
(673,611,qs),
(675,625,o),
(694,634,o),
(728,636,qs),
(776,639,l),
(771,651,o),
(771,655,qs),
(771,659,o),
(776,671,q),
(719,667,ls),
(691,665,o),
(627,665,qs),
(563,665,o),
(535,667,qs),
(478,671,l),
(483,659,o),
(483,655,qs),
(483,651,o),
(478,639,q),
(526,636,ls),
(574,633,o),
(579,620,qs),
(588,598,o),
(588,423,qs),
(588,355,l),
(439,347,o),
(347,347,qs),
(299,347,o),
(211,351,q),
(211,423,ls),
(211,562,o)
);
}
);
userData = {
assembly = "PUSHW[ ]	/* 1 value pushed */
10
CALL[ ]	/* CallFunction */
PUSHW[ ]	/* 1 value pushed */
115
MDAP[1]	/* MoveDirectAbsPt */
PUSHW[ ]	/* 1 value pushed */
116
MDAP[1]	/* MoveDirectAbsPt */
PUSHW[ ]	/* 1 value pushed */
115
SRP0[ ]	/* SetRefPoint0 */
PUSHW[ ]	/* 1 value pushed */
88
MDRP[10000]	/* MoveDirectRelPt */
PUSHW[ ]	/* 1 value pushed */
88
MDAP[1]	/* MoveDirectAbsPt */
PUSHW[ ]	/* 1 value pushed */
62
MDRP[11100]	/* MoveDirectRelPt */
PUSHW[ ]	/* 1 value pushed */
0
MDRP[10000]	/* MoveDirectRelPt */
PUSHW[ ]	/* 1 value pushed */
116
SRP0[ ]	/* SetRefPoint0 */
PUSHW[ ]	/* 1 value pushed */
31
MDRP[11100]	/* MoveDirectRelPt */
PUSHW[ ]	/* 1 value pushed */
6
MDRP[11100]	/* MoveDirectRelPt */
PUSHW[ ]	/* 1 value pushed */
88
SRP0[ ]	/* SetRefPoint0 */
PUSHW[ ]	/* 1 value pushed */
86
MDRP[10000]	/* MoveDirectRelPt */
PUSHW[ ]	/* 1 value pushed */
86
MDAP[1]	/* MoveDirectAbsPt */
PUSHW[ ]	/* 1 value pushed */
31
SRP0[ ]	/* SetRefPoint0 */
PUSHW[ ]	/* 1 value pushed */
29
MDRP[10000]	/* MoveDirectRelPt */
PUSHW[ ]	/* 1 value pushed */
29
MDAP[1]	/* MoveDirectAbsPt */
PUSHW[ ]	/* 3 values pushed */
11 86 29
SRP1[ ]	/* SetRefPoint1 */
SRP2[ ]	/* SetRefPoint2 */
IP[ ]	/* InterpolatePts */
PUSHW[ ]	/* 3 values pushed */
15 86 29
SRP1[ ]	/* SetRefPoint1 */
SRP2[ ]	/* SetRefPoint2 */
IP[ ]	/* InterpolatePts */
PUSHW[ ]	/* 3 values pushed */
48 86 29
SRP1[ ]	/* SetRefPoint1 */
SRP2[ ]	/* SetRefPoint2 */
IP[ ]	/* InterpolatePts */
PUSHW[ ]	/* 3 values pushed */
52 86 29
SRP1[ ]	/* SetRefPoint1 */
SRP2[ ]	/* SetRefPoint2 */
IP[ ]	/* InterpolatePts */
PUSHW[ ]	/* 1 value pushed */
6
SRP0[ ]	/* SetRefPoint0 */
PUSHW[ ]	/* 1 value pushed */
57
MDRP[10000]	/* MoveDirectRelPt */
PUSHW[ ]	/* 3 values pushed */
68 86 29
SRP1[ ]	/* SetRefPoint1 */
SRP2[ ]	/* SetRefPoint2 */
IP[ ]	/* InterpolatePts */
PUSHW[ ]	/* 3 values pushed */
72 86 29
SRP1[ ]	/* SetRefPoint1 */
SRP2[ ]	/* SetRefPoint2 */
IP[ ]	/* InterpolatePts */
PUSHW[ ]	/* 3 values pushed */
105 86 29
SRP1[ ]	/* SetRefPoint1 */
SRP2[ ]	/* SetRefPoint2 */
IP[ ]	/* InterpolatePts */
PUSHW[ ]	/* 3 values pushed */
109 86 29
SRP1[ ]	/* SetRefPoint1 */
SRP2[ ]	/* SetRefPoint2 */
IP[ ]	/* InterpolatePts */
PUSHW[ ]	/* 1 value pushed */
62
SRP0[ ]	/* SetRefPoint0 */
PUSHW[ ]	/* 1 value pushed */
113
MDRP[10000]	/* MoveDirectRelPt */
PUSHW[ ]	/* 1 value pushed */
113
MDAP[1]	/* MoveDirectAbsPt */
SVTCA[0]	/* SetFreedomAndProjectionVectorToAxis */
PUSHW[ ]	/* 1 value pushed */
33
RCVT[ ]	/* ReadCVT */
IF[ ]	/* If */
PUSHW[ ]	/* 1 value pushed */
15
MDAP[1]	/* MoveDirectAbsPt */
ELSE[ ]	/* Else */
PUSHW[ ]	/* 2 values pushed */
15 40
MIAP[0]	/* MoveIndirectAbsPt */
EIF[ ]	/* EndIf */
PUSHW[ ]	/* 1 value pushed */
33
RCVT[ ]	/* ReadCVT */
IF[ ]	/* If */
PUSHW[ ]	/* 1 value pushed */
18
MDAP[1]	/* MoveDirectAbsPt */
ELSE[ ]	/* Else */
PUSHW[ ]	/* 2 values pushed */
18 40
MIAP[0]	/* MoveIndirectAbsPt */
EIF[ ]	/* EndIf */
PUSHW[ ]	/* 1 value pushed */
33
RCVT[ ]	/* ReadCVT */
IF[ ]	/* If */
PUSHW[ ]	/* 1 value pushed */
20
MDAP[1]	/* MoveDirectAbsPt */
ELSE[ ]	/* Else */
PUSHW[ ]	/* 2 values pushed */
20 40
MIAP[0]	/* MoveIndirectAbsPt */
EIF[ ]	/* EndIf */
PUSHW[ ]	/* 1 value pushed */
33
RCVT[ ]	/* ReadCVT */
IF[ ]	/* If */
PUSHW[ ]	/* 1 value pushed */
99
MDAP[1]	/* MoveDirectAbsPt */
ELSE[ ]	/* Else */
PUSHW[ ]	/* 2 values pushed */
99 40
MIAP[0]	/* MoveIndirectAbsPt */
EIF[ ]	/* EndIf */
PUSHW[ ]	/* 1 value pushed */
33
RCVT[ ]	/* ReadCVT */
IF[ ]	/* If */
PUSHW[ ]	/* 1 value pushed */
102
MDAP[1]	/* MoveDirectAbsPt */
ELSE[ ]	/* Else */
PUSHW[ ]	/* 2 values pushed */
102 40
MIAP[0]	/* MoveIndirectAbsPt */
EIF[ ]	/* EndIf */
PUSHW[ ]	/* 1 value pushed */
33
RCVT[ ]	/* ReadCVT */
IF[ ]	/* If */
PUSHW[ ]	/* 1 value pushed */
104
MDAP[1]	/* MoveDirectAbsPt */
ELSE[ ]	/* Else */
PUSHW[ ]	/* 2 values pushed */
104 40
MIAP[0]	/* MoveIndirectAbsPt */
EIF[ ]	/* EndIf */
PUSHW[ ]	/* 1 value pushed */
33
RCVT[ ]	/* ReadCVT */
IF[ ]	/* If */
PUSHW[ ]	/* 1 value pushed */
42
MDAP[1]	/* MoveDirectAbsPt */
ELSE[ ]	/* Else */
PUSHW[ ]	/* 2 values pushed */
42 34
MIAP[0]	/* MoveIndirectAbsPt */
EIF[ ]	/* EndIf */
PUSHW[ ]	/* 1 value pushed */
33
RCVT[ ]	/* ReadCVT */
IF[ ]	/* If */
PUSHW[ ]	/* 1 value pushed */
45
MDAP[1]	/* MoveDirectAbsPt */
ELSE[ ]	/* Else */
PUSHW[ ]	/* 2 values pushed */
45 34
MIAP[0]	/* MoveIndirectAbsPt */
EIF[ ]	/* EndIf */
PUSHW[ ]	/* 1 value pushed */
33
RCVT[ ]	/* ReadCVT */
IF[ ]	/* If */
PUSHW[ ]	/* 1 value pushed */
47
MDAP[1]	/* MoveDirectAbsPt */
ELSE[ ]	/* Else */
PUSHW[ ]	/* 2 values pushed */
47 34
MIAP[0]	/* MoveIndirectAbsPt */
EIF[ ]	/* EndIf */
PUSHW[ ]	/* 1 value pushed */
33
RCVT[ ]	/* ReadCVT */
IF[ ]	/* If */
PUSHW[ ]	/* 1 value pushed */
72
MDAP[1]	/* MoveDirectAbsPt */
ELSE[ ]	/* Else */
PUSHW[ ]	/* 2 values pushed */
72 34
MIAP[0]	/* MoveIndirectAbsPt */
EIF[ ]	/* EndIf */
PUSHW[ ]	/* 1 value pushed */
33
RCVT[ ]	/* ReadCVT */
IF[ ]	/* If */
PUSHW[ ]	/* 1 value pushed */
75
MDAP[1]	/* MoveDirectAbsPt */
ELSE[ ]	/* Else */
PUSHW[ ]	/* 2 values pushed */
75 34
MIAP[0]	/* MoveIndirectAbsPt */
EIF[ ]	/* EndIf */
PUSHW[ ]	/* 1 value pushed */
33
RCVT[ ]	/* ReadCVT */
IF[ ]	/* If */
PUSHW[ ]	/* 1 value pushed */
77
MDAP[1]	/* MoveDirectAbsPt */
ELSE[ ]	/* Else */
PUSHW[ ]	/* 2 values pushed */
77 34
MIAP[0]	/* MoveIndirectAbsPt */
EIF[ ]	/* EndIf */
PUSHW[ ]	/* 3 values pushed */
16 10 13
CALL[ ]	/* CallFunction */
PUSHW[ ]	/* 1 value pushed */
16
SRP0[ ]	/* SetRefPoint0 */
PUSHW[ ]	/* 3 values pushed */
3 61 13
CALL[ ]	/* CallFunction */
PUSHW[ ]	/* 1 value pushed */
3
SRP0[ ]	/* SetRefPoint0 */
PUSHW[ ]	/* 1 value pushed */
1
MDRP[10000]	/* MoveDirectRelPt */
PUSHW[ ]	/* 1 value pushed */
1
MDAP[1]	/* MoveDirectAbsPt */
PUSHW[ ]	/* 1 value pushed */
61
SRP0[ ]	/* SetRefPoint0 */
PUSHW[ ]	/* 1 value pushed */
58
MDRP[10000]	/* MoveDirectRelPt */
PUSHW[ ]	/* 1 value pushed */
58
MDAP[1]	/* MoveDirectAbsPt */
PUSHW[ ]	/* 1 value pushed */
5
MDRP[11100]	/* MoveDirectRelPt */
PUSHW[ ]	/* 1 value pushed */
16
SRP0[ ]	/* SetRefPoint0 */
PUSHW[ ]	/* 1 value pushed */
21
MDRP[10000]	/* MoveDirectRelPt */
PUSHW[ ]	/* 1 value pushed */
21
MDAP[1]	/* MoveDirectAbsPt */
PUSHW[ ]	/* 1 value pushed */
10
SRP0[ ]	/* SetRefPoint0 */
PUSHW[ ]	/* 1 value pushed */
25
MDRP[10000]	/* MoveDirectRelPt */
PUSHW[ ]	/* 1 value pushed */
25
MDAP[1]	/* MoveDirectAbsPt */
PUSHW[ ]	/* 1 value pushed */
42
SRP0[ ]	/* SetRefPoint0 */
PUSHW[ ]	/* 1 value pushed */
37
MDRP[11100]	/* MoveDirectRelPt */
PUSHW[ ]	/* 1 value pushed */
52
MDRP[10000]	/* MoveDirectRelPt */
PUSHW[ ]	/* 1 value pushed */
52
MDAP[1]	/* MoveDirectAbsPt */
PUSHW[ ]	/* 1 value pushed */
53
MDRP[10000]	/* MoveDirectRelPt */
PUSHW[ ]	/* 1 value pushed */
67
MDRP[10000]	/* MoveDirectRelPt */
PUSHW[ ]	/* 1 value pushed */
68
MDRP[10000]	/* MoveDirectRelPt */
PUSHW[ ]	/* 1 value pushed */
68
MDAP[1]	/* MoveDirectAbsPt */
PUSHW[ ]	/* 1 value pushed */
82
MDRP[10000]	/* MoveDirectRelPt */
PUSHW[ ]	/* 1 value pushed */
82
MDAP[1]	/* MoveDirectAbsPt */
PUSHW[ ]	/* 1 value pushed */
83
MDRP[10000]	/* MoveDirectRelPt */
PUSHW[ ]	/* 1 value pushed */
10
SRP0[ ]	/* SetRefPoint0 */
PUSHW[ ]	/* 1 value pushed */
94
MDRP[10000]	/* MoveDirectRelPt */
PUSHW[ ]	/* 3 values pushed */
95 10 16
SRP1[ ]	/* SetRefPoint1 */
SRP2[ ]	/* SetRefPoint2 */
IP[ ]	/* InterpolatePts */
PUSHW[ ]	/* 1 value pushed */
16
SRP0[ ]	/* SetRefPoint0 */
PUSHW[ ]	/* 1 value pushed */
100
MDRP[10000]	/* MoveDirectRelPt */
PUSHW[ ]	/* 1 value pushed */
16
SRP0[ ]	/* SetRefPoint0 */
PUSHW[ ]	/* 1 value pushed */
105
MDRP[10000]	/* MoveDirectRelPt */
PUSHW[ ]	/* 1 value pushed */
105
MDAP[1]	/* MoveDirectAbsPt */
PUSHW[ ]	/* 1 value pushed */
10
SRP0[ ]	/* SetRefPoint0 */
PUSHW[ ]	/* 1 value pushed */
109
MDRP[10000]	/* MoveDirectRelPt */
PUSHW[ ]	/* 1 value pushed */
109
MDAP[1]	/* MoveDirectAbsPt */
IUP[0]	/* InterpolateUntPts */
IUP[1]	/* InterpolateUntPts */";
};
width = 800;
}
);
note = H;
},
{
glyphname = H.010;
layers = (
{
layerId = m01;
shapes = (
{
closed = 1;
nodes = (
(546,670,o),
(580,661,o),
(596,631,o),
(599,577,o),
(599,532,qs),
(599,389,l),
(212,389,l),
(212,569,ls),
(212,599,o),
(216,639,o),
(232,662,o),
(267,671,o),
(298,670,q),
(298,708,l),
(263,706,o),
(203,703,o),
(171,703,qs),
(136,703,o),
(68,706,o),
(33,708,q),
(33,671,l),
(51,670,o),
(74,669,o),
(90,666,o),
(101,660,o),
(106,655,qs),
(115,646,o),
(120,615,o),
(121,578,qs),
(121,125,ls),
(120,97,o),
(116,62,o),
(100,41,o),
(65,33,o),
(34,33,q),
(34,-4,l),
(69,-2,o),
(141,1,o),
(176,1,qs),
(207,1,o),
(263,-2,o),
(299,-4,q),
(299,34,l),
(269,34,o),
(234,40,o),
(217,60,o),
(212,99,o),
(212,131,qs),
(212,343,l),
(601,343,l),
(601,139,ls),
(601,105,o),
(598,64,o),
(581,42,o),
(546,33,o),
(515,32,q),
(515,-4,l),
(549,-2,o),
(616,1,o),
(650,1,qs),
(682,1,o),
(746,-2,o),
(777,-4,q),
(777,34,l),
(745,34,o),
(710,41,o),
(694,68,o),
(690,123,o),
(690,171,qs),
(690,577,ls),
(690,608,o),
(694,645,o),
(711,663,o),
(745,669,o),
(776,671,q),
(776,708,l),
(742,706,o),
(674,703,o),
(639,703,qs),
(608,703,o),
(546,706,o),
(514,708,q),
(514,670,l)
);
}
);
userData = {
assembly = "PUSHW[ ]	/* 1 value pushed */
83
MDAP[1]	/* MoveDirectAbsPt */
PUSHW[ ]	/* 1 value pushed */
84
MDAP[1]	/* MoveDirectAbsPt */
PUSHW[ ]	/* 1 value pushed */
13
MDRP[11100]	/* MoveDirectRelPt */
PUSHW[ ]	/* 2 values pushed */
31 3
MIRP[11100]	/* MoveIndirectRelPt */
PUSHW[ ]	/* 1 value pushed */
83
SRP0[ ]	/* SetRefPoint0 */
PUSHW[ ]	/* 1 value pushed */
52
MDRP[10000]	/* MoveDirectRelPt */
PUSHW[ ]	/* 1 value pushed */
52
MDAP[1]	/* MoveDirectAbsPt */
PUSHW[ ]	/* 2 values pushed */
34 3
MIRP[11100]	/* MoveIndirectRelPt */
PUSHW[ ]	/* 1 value pushed */
74
MDRP[10000]	/* MoveDirectRelPt */
PUSHW[ ]	/* 1 value pushed */
31
SRP0[ ]	/* SetRefPoint0 */
PUSHW[ ]	/* 1 value pushed */
76
MDRP[10000]	/* MoveDirectRelPt */
PUSHW[ ]	/* 1 value pushed */
76
MDAP[1]	/* MoveDirectAbsPt */
SVTCA[0]	/* SetFreedomAndProjectionVectorToAxis */
PUSHW[ ]	/* 1 value pushed */
0
RCVT[ ]	/* ReadCVT */
IF[ ]	/* If */
PUSHW[ ]	/* 1 value pushed */
0
MDAP[1]	/* MoveDirectAbsPt */
ELSE[ ]	/* Else */
PUSHW[ ]	/* 2 values pushed */
0 18
MIAP[0]	/* MoveIndirectAbsPt */
EIF[ ]	/* EndIf */
PUSHW[ ]	/* 1 value pushed */
0
RCVT[ ]	/* ReadCVT */
IF[ ]	/* If */
PUSHW[ ]	/* 1 value pushed */
3
MDAP[1]	/* MoveDirectAbsPt */
ELSE[ ]	/* Else */
PUSHW[ ]	/* 2 values pushed */
3 18
MIAP[0]	/* MoveIndirectAbsPt */
EIF[ ]	/* EndIf */
PUSHW[ ]	/* 1 value pushed */
0
RCVT[ ]	/* ReadCVT */
IF[ ]	/* If */
PUSHW[ ]	/* 1 value pushed */
6
MDAP[1]	/* MoveDirectAbsPt */
ELSE[ ]	/* Else */
PUSHW[ ]	/* 2 values pushed */
6 18
MIAP[0]	/* MoveIndirectAbsPt */
EIF[ ]	/* EndIf */
PUSHW[ ]	/* 1 value pushed */
0
RCVT[ ]	/* ReadCVT */
IF[ ]	/* If */
PUSHW[ ]	/* 1 value pushed */
62
MDAP[1]	/* MoveDirectAbsPt */
ELSE[ ]	/* Else */
PUSHW[ ]	/* 2 values pushed */
62 18
MIAP[0]	/* MoveIndirectAbsPt */
EIF[ ]	/* EndIf */
PUSHW[ ]	/* 1 value pushed */
0
RCVT[ ]	/* ReadCVT */
IF[ ]	/* If */
PUSHW[ ]	/* 1 value pushed */
65
MDAP[1]	/* MoveDirectAbsPt */
ELSE[ ]	/* Else */
PUSHW[ ]	/* 2 values pushed */
65 18
MIAP[0]	/* MoveIndirectAbsPt */
EIF[ ]	/* EndIf */
PUSHW[ ]	/* 1 value pushed */
0
RCVT[ ]	/* ReadCVT */
IF[ ]	/* If */
PUSHW[ ]	/* 1 value pushed */
68
MDAP[1]	/* MoveDirectAbsPt */
ELSE[ ]	/* Else */
PUSHW[ ]	/* 2 values pushed */
68 18
MIAP[0]	/* MoveIndirectAbsPt */
EIF[ ]	/* EndIf */
PUSHW[ ]	/* 1 value pushed */
0
RCVT[ ]	/* ReadCVT */
IF[ ]	/* If */
PUSHW[ ]	/* 1 value pushed */
19
MDAP[1]	/* MoveDirectAbsPt */
ELSE[ ]	/* Else */
PUSHW[ ]	/* 2 values pushed */
19 4
MIAP[0]	/* MoveIndirectAbsPt */
EIF[ ]	/* EndIf */
PUSHW[ ]	/* 1 value pushed */
0
RCVT[ ]	/* ReadCVT */
IF[ ]	/* If */
PUSHW[ ]	/* 1 value pushed */
22
MDAP[1]	/* MoveDirectAbsPt */
ELSE[ ]	/* Else */
PUSHW[ ]	/* 2 values pushed */
22 4
MIAP[0]	/* MoveIndirectAbsPt */
EIF[ ]	/* EndIf */
PUSHW[ ]	/* 1 value pushed */
0
RCVT[ ]	/* ReadCVT */
IF[ ]	/* If */
PUSHW[ ]	/* 1 value pushed */
25
MDAP[1]	/* MoveDirectAbsPt */
ELSE[ ]	/* Else */
PUSHW[ ]	/* 2 values pushed */
25 4
MIAP[0]	/* MoveIndirectAbsPt */
EIF[ ]	/* EndIf */
PUSHW[ ]	/* 1 value pushed */
0
RCVT[ ]	/* ReadCVT */
IF[ ]	/* If */
PUSHW[ ]	/* 1 value pushed */
40
MDAP[1]	/* MoveDirectAbsPt */
ELSE[ ]	/* Else */
PUSHW[ ]	/* 2 values pushed */
40 4
MIAP[0]	/* MoveIndirectAbsPt */
EIF[ ]	/* EndIf */
PUSHW[ ]	/* 1 value pushed */
0
RCVT[ ]	/* ReadCVT */
IF[ ]	/* If */
PUSHW[ ]	/* 1 value pushed */
43
MDAP[1]	/* MoveDirectAbsPt */
ELSE[ ]	/* Else */
PUSHW[ ]	/* 2 values pushed */
43 4
MIAP[0]	/* MoveIndirectAbsPt */
EIF[ ]	/* EndIf */
PUSHW[ ]	/* 1 value pushed */
0
RCVT[ ]	/* ReadCVT */
IF[ ]	/* If */
PUSHW[ ]	/* 1 value pushed */
46
MDAP[1]	/* MoveDirectAbsPt */
ELSE[ ]	/* Else */
PUSHW[ ]	/* 2 values pushed */
46 4
MIAP[0]	/* MoveIndirectAbsPt */
EIF[ ]	/* EndIf */
PUSHW[ ]	/* 4 values pushed */
76 1 32 4
CALL[ ]	/* CallFunction */
PUSHW[ ]	/* 1 value pushed */
6
SRP0[ ]	/* SetRefPoint0 */
PUSHW[ ]	/* 2 values pushed */
7 1
MIRP[11100]	/* MoveIndirectRelPt */
PUSHW[ ]	/* 1 value pushed */
19
SRP0[ ]	/* SetRefPoint0 */
PUSHW[ ]	/* 2 values pushed */
18 1
MIRP[11100]	/* MoveIndirectRelPt */
PUSHW[ ]	/* 1 value pushed */
26
MDRP[10000]	/* MoveDirectRelPt */
PUSHW[ ]	/* 1 value pushed */
26
MDAP[1]	/* MoveDirectAbsPt */
PUSHW[ ]	/* 1 value pushed */
39
MDRP[10000]	/* MoveDirectRelPt */
PUSHW[ ]	/* 1 value pushed */
39
MDAP[1]	/* MoveDirectAbsPt */
PUSHW[ ]	/* 1 value pushed */
47
MDRP[10000]	/* MoveDirectRelPt */
PUSHW[ ]	/* 1 value pushed */
7
SRP0[ ]	/* SetRefPoint0 */
PUSHW[ ]	/* 1 value pushed */
61
MDRP[10000]	/* MoveDirectRelPt */
PUSHW[ ]	/* 1 value pushed */
69
MDRP[10000]	/* MoveDirectRelPt */
PUSHW[ ]	/* 1 value pushed */
69
MDAP[1]	/* MoveDirectAbsPt */
PUSHW[ ]	/* 1 value pushed */
82
MDRP[10000]	/* MoveDirectRelPt */
PUSHW[ ]	/* 1 value pushed */
82
MDAP[1]	/* MoveDirectAbsPt */
IUP[0]	/* InterpolateUntPts */
IUP[1]	/* InterpolateUntPts */";
};
width = 812;
}
);
note = H;
},
{
glyphname = H.011;
layers = (
{
layerId = m01;
shapes = (
{
closed = 1;
nodes = (
(232,543,ls),
(232,602,o),
(251,630,o),
(294,635,qs),
(311,637,ls),
(338,640,o),
(338,656,qs),
(338,672,o),
(315,672,qs),
(312,672,l),
(299,671,ls),
(247,667,o),
(189,667,qs),
(159,667,o),
(119,669,qs),
(95,670,o),
(89,670,qs),
(74,671,l),
(70,671,ls),
(46,671,o),
(46,653,qs),
(46,636,o),
(68,635,qs),
(86,634,ls),
(127,632,o),
(146,596,o),
(146,492,qs),
(146,148,ls),
(146,72,o),
(129,39,o),
(86,34,qs),
(70,32,ls),
(47,29,o),
(47,14,qs),
(47,-5,o),
(69,-5,qs),
(79,-5,l),
(94,-3,l),
(206,0,ls),
(204,0,o),
(283,-3,qs),
(310,-4,l),
(320,-5,ls),
(337,-7,o),
(337,12,qs),
(337,30,o),
(311,32,qs),
(289,34,ls),
(250,38,o),
(232,73,o),
(232,146,qs),
(232,332,l),
(599,332,l),
(599,140,ls),
(599,71,o),
(593,57,qs),
(585,39,o),
(540,34,qs),
(522,32,ls),
(496,29,o),
(496,14,qs),
(496,-4,o),
(517,-4,qs),
(527,-4,l),
(543,-3,ls),
(607,1,o),
(641,1,qs),
(650,1,o),
(731,-2,qs),
(758,-3,ls),
(785,-4,o),
(785,14,qs),
(785,29,o),
(760,32,qs),
(740,34,ls),
(703,38,o),
(687,71,o),
(687,142,qs),
(685,521,l),
(685,527,ls),
(685,598,o),
(702,631,o),
(745,635,qs),
(764,637,ls),
(785,639,o),
(785,656,qs),
(785,673,o),
(761,673,qs),
(750,673,l),
(732,671,ls),
(696,667,o),
(637,667,qs),
(605,667,o),
(537,671,qs),
(520,672,ls),
(494,674,o),
(494,654,qs),
(494,638,o),
(519,636,qs),
(545,634,ls),
(582,631,o),
(599,596,o),
(599,525,qs),
(599,371,l),
(232,371,l)
);
}
);
userData = {
assembly = "PUSHW[ ]	/* 1 value pushed */
10
CALL[ ]	/* CallFunction */
PUSHW[ ]	/* 1 value pushed */
105
MDAP[1]	/* MoveDirectAbsPt */
PUSHW[ ]	/* 1 value pushed */
106
MDAP[1]	/* MoveDirectAbsPt */
PUSHW[ ]	/* 1 value pushed */
25
MDRP[11100]	/* MoveDirectRelPt */
PUSHW[ ]	/* 1 value pushed */
1
MDRP[11100]	/* MoveDirectRelPt */
PUSHW[ ]	/* 1 value pushed */
48
MDRP[10000]	/* MoveDirectRelPt */
PUSHW[ ]	/* 1 value pushed */
48
MDAP[1]	/* MoveDirectAbsPt */
PUSHW[ ]	/* 1 value pushed */
1
SRP0[ ]	/* SetRefPoint0 */
PUSHW[ ]	/* 1 value pushed */
50
MDRP[10000]	/* MoveDirectRelPt */
PUSHW[ ]	/* 1 value pushed */
105
SRP0[ ]	/* SetRefPoint0 */
PUSHW[ ]	/* 1 value pushed */
76
MDRP[10000]	/* MoveDirectRelPt */
PUSHW[ ]	/* 1 value pushed */
76
MDAP[1]	/* MoveDirectAbsPt */
PUSHW[ ]	/* 1 value pushed */
53
MDRP[11100]	/* MoveDirectRelPt */
PUSHW[ ]	/* 1 value pushed */
103
MDRP[10000]	/* MoveDirectRelPt */
SVTCA[0]	/* SetFreedomAndProjectionVectorToAxis */
PUSHW[ ]	/* 1 value pushed */
9
MDAP[1]	/* MoveDirectAbsPt */
PUSHW[ ]	/* 1 value pushed */
12
MDAP[1]	/* MoveDirectAbsPt */
PUSHW[ ]	/* 1 value pushed */
15
MDAP[1]	/* MoveDirectAbsPt */
PUSHW[ ]	/* 1 value pushed */
85
MDAP[1]	/* MoveDirectAbsPt */
PUSHW[ ]	/* 1 value pushed */
87
MDAP[1]	/* MoveDirectAbsPt */
PUSHW[ ]	/* 1 value pushed */
89
MDAP[1]	/* MoveDirectAbsPt */
PUSHW[ ]	/* 1 value pushed */
91
MDAP[1]	/* MoveDirectAbsPt */
PUSHW[ ]	/* 1 value pushed */
93
MDAP[1]	/* MoveDirectAbsPt */
PUSHW[ ]	/* 1 value pushed */
95
MDAP[1]	/* MoveDirectAbsPt */
PUSHW[ ]	/* 1 value pushed */
35
RCVT[ ]	/* ReadCVT */
IF[ ]	/* If */
PUSHW[ ]	/* 1 value pushed */
34
MDAP[1]	/* MoveDirectAbsPt */
ELSE[ ]	/* Else */
PUSHW[ ]	/* 2 values pushed */
34 36
MIAP[0]	/* MoveIndirectAbsPt */
EIF[ ]	/* EndIf */
PUSHW[ ]	/* 1 value pushed */
35
RCVT[ ]	/* ReadCVT */
IF[ ]	/* If */
PUSHW[ ]	/* 1 value pushed */
37
MDAP[1]	/* MoveDirectAbsPt */
ELSE[ ]	/* Else */
PUSHW[ ]	/* 2 values pushed */
37 36
MIAP[0]	/* MoveIndirectAbsPt */
EIF[ ]	/* EndIf */
PUSHW[ ]	/* 1 value pushed */
35
RCVT[ ]	/* ReadCVT */
IF[ ]	/* If */
PUSHW[ ]	/* 1 value pushed */
39
MDAP[1]	/* MoveDirectAbsPt */
ELSE[ ]	/* Else */
PUSHW[ ]	/* 2 values pushed */
39 36
MIAP[0]	/* MoveIndirectAbsPt */
EIF[ ]	/* EndIf */
PUSHW[ ]	/* 1 value pushed */
35
RCVT[ ]	/* ReadCVT */
IF[ ]	/* If */
PUSHW[ ]	/* 1 value pushed */
41
MDAP[1]	/* MoveDirectAbsPt */
ELSE[ ]	/* Else */
PUSHW[ ]	/* 2 values pushed */
41 36
MIAP[0]	/* MoveIndirectAbsPt */
EIF[ ]	/* EndIf */
PUSHW[ ]	/* 1 value pushed */
35
RCVT[ ]	/* ReadCVT */
IF[ ]	/* If */
PUSHW[ ]	/* 1 value pushed */
61
MDAP[1]	/* MoveDirectAbsPt */
ELSE[ ]	/* Else */
PUSHW[ ]	/* 2 values pushed */
61 36
MIAP[0]	/* MoveIndirectAbsPt */
EIF[ ]	/* EndIf */
PUSHW[ ]	/* 1 value pushed */
35
RCVT[ ]	/* ReadCVT */
IF[ ]	/* If */
PUSHW[ ]	/* 1 value pushed */
63
MDAP[1]	/* MoveDirectAbsPt */
ELSE[ ]	/* Else */
PUSHW[ ]	/* 2 values pushed */
63 36
MIAP[0]	/* MoveIndirectAbsPt */
EIF[ ]	/* EndIf */
PUSHW[ ]	/* 1 value pushed */
35
RCVT[ ]	/* ReadCVT */
IF[ ]	/* If */
PUSHW[ ]	/* 1 value pushed */
65
MDAP[1]	/* MoveDirectAbsPt */
ELSE[ ]	/* Else */
PUSHW[ ]	/* 2 values pushed */
65 36
MIAP[0]	/* MoveIndirectAbsPt */
EIF[ ]	/* EndIf */
PUSHW[ ]	/* 1 value pushed */
35
RCVT[ ]	/* ReadCVT */
IF[ ]	/* If */
PUSHW[ ]	/* 1 value pushed */
67
MDAP[1]	/* MoveDirectAbsPt */
ELSE[ ]	/* Else */
PUSHW[ ]	/* 2 values pushed */
67 36
MIAP[0]	/* MoveIndirectAbsPt */
EIF[ ]	/* EndIf */
PUSHW[ ]	/* 3 values pushed */
14 21 13
CALL[ ]	/* CallFunction */
PUSHW[ ]	/* 1 value pushed */
14
SRP0[ ]	/* SetRefPoint0 */
PUSHW[ ]	/* 3 values pushed */
0 51 13
CALL[ ]	/* CallFunction */
PUSHW[ ]	/* 1 value pushed */
0
SRP0[ ]	/* SetRefPoint0 */
PUSHW[ ]	/* 1 value pushed */
21
SRP0[ ]	/* SetRefPoint0 */
PUSHW[ ]	/* 1 value pushed */
4
MDRP[10000]	/* MoveDirectRelPt */
PUSHW[ ]	/* 1 value pushed */
4
MDAP[1]	/* MoveDirectAbsPt */
PUSHW[ ]	/* 1 value pushed */
14
SRP0[ ]	/* SetRefPoint0 */
PUSHW[ ]	/* 1 value pushed */
10
MDRP[10000]	/* MoveDirectRelPt */
PUSHW[ ]	/* 1 value pushed */
14
SRP0[ ]	/* SetRefPoint0 */
PUSHW[ ]	/* 1 value pushed */
16
MDRP[10000]	/* MoveDirectRelPt */
PUSHW[ ]	/* 1 value pushed */
16
MDAP[1]	/* MoveDirectAbsPt */
PUSHW[ ]	/* 1 value pushed */
34
SRP0[ ]	/* SetRefPoint0 */
PUSHW[ ]	/* 1 value pushed */
29
MDRP[11100]	/* MoveDirectRelPt */
PUSHW[ ]	/* 1 value pushed */
45
MDRP[10000]	/* MoveDirectRelPt */
PUSHW[ ]	/* 1 value pushed */
46
MDRP[10000]	/* MoveDirectRelPt */
PUSHW[ ]	/* 1 value pushed */
46
MDAP[1]	/* MoveDirectAbsPt */
PUSHW[ ]	/* 1 value pushed */
56
MDRP[10000]	/* MoveDirectRelPt */
PUSHW[ ]	/* 1 value pushed */
56
MDAP[1]	/* MoveDirectAbsPt */
PUSHW[ ]	/* 1 value pushed */
57
MDRP[10000]	/* MoveDirectRelPt */
PUSHW[ ]	/* 1 value pushed */
73
MDRP[10000]	/* MoveDirectRelPt */
PUSHW[ ]	/* 1 value pushed */
73
MDAP[1]	/* MoveDirectAbsPt */
PUSHW[ ]	/* 1 value pushed */
21
SRP0[ ]	/* SetRefPoint0 */
PUSHW[ ]	/* 1 value pushed */
80
MDRP[10000]	/* MoveDirectRelPt */
PUSHW[ ]	/* 1 value pushed */
80
MDAP[1]	/* MoveDirectAbsPt */
PUSHW[ ]	/* 1 value pushed */
14
SRP0[ ]	/* SetRefPoint0 */
PUSHW[ ]	/* 1 value pushed */
86
MDRP[10000]	/* MoveDirectRelPt */
PUSHW[ ]	/* 1 value pushed */
14
SRP0[ ]	/* SetRefPoint0 */
PUSHW[ ]	/* 1 value pushed */
94
MDRP[10000]	/* MoveDirectRelPt */
PUSHW[ ]	/* 1 value pushed */
94
MDAP[1]	/* MoveDirectAbsPt */
PUSHW[ ]	/* 1 value pushed */
21
SRP0[ ]	/* SetRefPoint0 */
PUSHW[ ]	/* 1 value pushed */
99
MDRP[10000]	/* MoveDirectRelPt */
PUSHW[ ]	/* 1 value pushed */
99
MDAP[1]	/* MoveDirectAbsPt */
IUP[0]	/* InterpolateUntPts */
IUP[1]	/* InterpolateUntPts */";
};
width = 834;
}
);
note = H;
},
{
glyphname = O.001;
layers = (
{
layerId = m01;
shapes = (
{
closed = 1;
nodes = (
(239,80,o),
(175,179,o),
(146,299,o),
(146,355,qs),
(146,437,o),
(191,548,o),
(262,616,o),
(346,645,o),
(385,645,qs),
(457,645,o),
(557,584,o),
(620,487,o),
(649,364,o),
(649,302,qs),
(649,228,o),
(610,120,o),
(544,49,o),
(460,15,o),
(415,15,qs),
(341,15,o)
);
},
{
closed = 1;
nodes = (
(601,36,o),
(695,129,o),
(749,257,o),
(749,333,qs),
(749,399,o),
(706,523,o),
(619,618,o),
(489,676,o),
(402,676,qs),
(325,676,o),
(194,622,o),
(99,527,o),
(46,398,o),
(46,323,qs),
(46,255,o),
(95,133,o),
(187,39,o),
(319,-16,o),
(402,-16,qs),
(474,-16,o)
);
}
);
userData = {
assembly = "PUSHW[ ]	/* 1 value pushed */
40
MDAP[1]	/* MoveDirectAbsPt */
PUSHW[ ]	/* 1 value pushed */
41
MDAP[1]	/* MoveDirectAbsPt */
PUSHW[ ]	/* 1 value pushed */
35
MDRP[11100]	/* MoveDirectRelPt */
PUSHW[ ]	/* 2 values pushed */
5 3
MIRP[11100]	/* MoveIndirectRelPt */
NPUSHW[ ]	/* 5 values pushed */
154 5 170 5 2
DELTAP1[ ]	/* DeltaExceptionP1 */
NPUSHW[ ]	/* 19 values pushed */
9 5 25 5 41 5 57 5 73 5 89 5 105 5 121 5 137 5 9
DELTAP1[ ]	/* DeltaExceptionP1 */
PUSHW[ ]	/* 1 value pushed */
40
SRP0[ ]	/* SetRefPoint0 */
PUSHW[ ]	/* 1 value pushed */
25
MDRP[10000]	/* MoveDirectRelPt */
PUSHW[ ]	/* 1 value pushed */
25
MDAP[1]	/* MoveDirectAbsPt */
PUSHW[ ]	/* 2 values pushed */
15 3
MIRP[11100]	/* MoveIndirectRelPt */
NPUSHW[ ]	/* 19 values pushed */
6 15 22 15 38 15 54 15 70 15 86 15 102 15 118 15 134 15 9
DELTAP1[ ]	/* DeltaExceptionP1 */
NPUSHW[ ]	/* 5 values pushed */
149 15 165 15 2
DELTAP1[ ]	/* DeltaExceptionP1 */
SVTCA[0]	/* SetFreedomAndProjectionVectorToAxis */
PUSHW[ ]	/* 1 value pushed */
0
RCVT[ ]	/* ReadCVT */
IF[ ]	/* If */
PUSHW[ ]	/* 1 value pushed */
30
MDAP[1]	/* MoveDirectAbsPt */
ELSE[ ]	/* Else */
PUSHW[ ]	/* 2 values pushed */
30 14
MIAP[0]	/* MoveIndirectAbsPt */
EIF[ ]	/* EndIf */
PUSHW[ ]	/* 1 value pushed */
0
RCVT[ ]	/* ReadCVT */
IF[ ]	/* If */
PUSHW[ ]	/* 1 value pushed */
20
MDAP[1]	/* MoveDirectAbsPt */
ELSE[ ]	/* Else */
PUSHW[ ]	/* 2 values pushed */
20 4
MIAP[0]	/* MoveIndirectAbsPt */
EIF[ ]	/* EndIf */
PUSHW[ ]	/* 2 values pushed */
0 1
MIRP[11100]	/* MoveIndirectRelPt */
NPUSHW[ ]	/* 33 values pushed */
7 0 23 0 39 0 55 0 71 0 87 0 103 0 119 0 135 0 151 0 167 0 183 0 199 0 215 0 231 0 247 0 16
DELTAP1[ ]	/* DeltaExceptionP1 */
NPUSHW[ ]	/* 23 values pushed */
7 0 23 0 39 0 55 0 71 0 87 0 103 0 119 0 135 0 151 0 167 0 11
DELTAP2[ ]	/* DeltaExceptionP2 */
NPUSHW[ ]	/* 5 values pushed */
182 0 198 0 2
DELTAP2[ ]	/* DeltaExceptionP2 */
PUSHW[ ]	/* 1 value pushed */
30
SRP0[ ]	/* SetRefPoint0 */
PUSHW[ ]	/* 2 values pushed */
10 1
MIRP[11100]	/* MoveIndirectRelPt */
NPUSHW[ ]	/* 5 values pushed */
185 10 201 10 2
DELTAP2[ ]	/* DeltaExceptionP2 */
NPUSHW[ ]	/* 33 values pushed */
8 10 24 10 40 10 56 10 72 10 88 10 104 10 120 10 136 10 152 10 168 10 184 10 200 10 216 10 232 10 248 10 16
DELTAP1[ ]	/* DeltaExceptionP1 */
NPUSHW[ ]	/* 23 values pushed */
8 10 24 10 40 10 56 10 72 10 88 10 104 10 120 10 136 10 152 10 168 10 11
DELTAP2[ ]	/* DeltaExceptionP2 */
IUP[0]	/* InterpolateUntPts */
IUP[1]	/* InterpolateUntPts */";
};
width = 795;
}
);
note = O;
},
{
glyphname = O.002;
layers = (
{
hints = (
{
horizontal = 1;
place = (676,45);
type = Stem;
},
{
horizontal = 1;
place = (-15,44);
type = Stem;
},
{
place = (686,100);
type = Stem;
},
{
place = (46,102);
type = Stem;
}
);
layerId = m01;
shapes = (
{
closed = 1;
nodes = (
(409,722,l),
(318,711,l),
(256,689,l),
(191,649,l),
(112,571,l),
(68,489,l),
(48,415,l),
(46,358,l),
(56,270,l),
(84,183,l),
(105,142,l),
(149,89,l),
(214,36,l),
(305,-1,l),
(407,-15,l),
(457,-14,l),
(534,4,l),
(599,30,l),
(651,67,l),
(714,131,l),
(753,194,l),
(776,256,l),
(786,352,l),
(780,421,l),
(762,488,l),
(733,550,l),
(690,608,l),
(633,659,l),
(550,702,l),
(488,717,l)
);
},
{
closed = 1;
nodes = (
(415,677,l),
(508,658,l),
(549,635,l),
(589,604,l),
(648,512,l),
(681,405,l),
(686,339,l),
(676,257,l),
(655,191,l),
(601,108,l),
(537,61,l),
(486,40,l),
(420,30,l),
(359,37,l),
(305,58,l),
(257,92,l),
(215,139,l),
(179,205,l),
(158,270,l),
(147,365,l),
(157,451,l),
(180,521,l),
(211,572,l),
(244,610,l),
(292,645,l),
(339,663,l)
);
}
);
width = 833;
}
);
},
{
glyphname = O.003;
layers = (
{
hints = (
{
horizontal = 1;
place = (676,45);
type = Stem;
},
{
horizontal = 1;
place = (-15,44);
type = Stem;
},
{
place = (686,100);
type = Stem;
},
{
place = (46,102);
type = Stem;
}
);
layerId = m01;
shapes = (
{
closed = 1;
nodes = (
(409,722,l),
(318,711,l),
(256,689,l),
(191,649,l),
(112,571,l),
(68,489,l),
(48,415,l),
(46,358,l),
(56,270,l),
(84,183,l),
(105,142,l),
(149,89,l),
(214,36,l),
(305,-1,l),
(407,-15,l),
(457,-14,l),
(534,4,l),
(599,30,l),
(651,67,l),
(714,131,l),
(753,194,l),
(776,256,l),
(786,352,l),
(780,421,l),
(762,488,l),
(733,550,l),
(690,608,l),
(633,659,l),
(550,702,l),
(488,717,l)
);
},
{
closed = 1;
nodes = (
(415,677,l),
(508,658,l),
(549,635,l),
(589,604,l),
(648,512,l),
(681,405,l),
(686,339,l),
(676,257,l),
(655,191,l),
(601,108,l),
(537,61,l),
(486,40,l),
(420,30,l),
(359,37,l),
(305,58,l),
(257,92,l),
(215,139,l),
(179,205,l),
(158,270,l),
(147,365,l),
(157,451,l),
(180,521,l),
(211,572,l),
(244,610,l),
(292,645,l),
(339,663,l)
);
}
);
width = 833;
}
);
},
{
glyphname = O.004;
layers = (
{
hints = (
{
horizontal = 1;
place = (696,25);
type = Stem;
},
{
horizontal = 1;
place = (-18,26);
type = Stem;
},
{
place = (666,132);
type = Stem;
},
{
place = (28,134);
type = Stem;
}
);
layerId = m01;
shapes = (
{
closed = 1;
nodes = (
(28,362,l),
(33,283,l),
(56,209,l),
(94,139,l),
(150,82,l),
(186,51,l),
(243,18,l),
(322,-10,l),
(421,-18,l),
(481,-16,l),
(534,-3,l),
(639,58,l),
(699,108,l),
(743,165,l),
(788,257,l),
(799,360,l),
(793,435,l),
(779,484,l),
(755,538,l),
(719,589,l),
(637,661,l),
(550,702,l),
(417,721,l),
(290,703,l),
(205,668,l),
(124,599,l),
(73,531,l),
(45,464,l)
);
},
{
closed = 1;
nodes = (
(162,386,l),
(171,477,l),
(192,542,l),
(230,610,l),
(276,654,l),
(324,679,l),
(404,696,l),
(489,678,l),
(559,631,l),
(612,564,l),
(649,482,l),
(666,354,l),
(657,265,l),
(638,193,l),
(591,99,l),
(535,44,l),
(512,28,l),
(449,11,l),
(425,9,l),
(380,13,l),
(328,35,l),
(274,74,l),
(222,142,l),
(188,215,l),
(171,284,l)
);
}
);
width = 833;
}
);
},
{
glyphname = O.005;
layers = (
{
hints = (
{
horizontal = 1;
place = (693,34);
type = Stem;
},
{
horizontal = 1;
place = (-20,44);
type = Stem;
},
{
place = (711,109);
type = Stem;
},
{
place = (32,108);
type = Stem;
}
);
layerId = m01;
shapes = (
{
closed = 1;
nodes = (
(690,633,l),
(676,646,l),
(661,656,l),
(648,666,l),
(623,679,l),
(607,688,l),
(513,719,l),
(416,727,l),
(366,722,l),
(289,705,l),
(264,696,l),
(244,686,l),
(223,676,l),
(189,651,l),
(166,634,l),
(149,616,l),
(96,553,l),
(87,536,l),
(70,510,l),
(62,487,l),
(49,456,l),
(35,343,l),
(35,301,l),
(40,280,l),
(58,208,l),
(84,161,l),
(126,103,l),
(150,80,l),
(238,20,l),
(257,11,l),
(292,-2,l),
(306,-6,l),
(325,-12,l),
(351,-16,l),
(373,-19,l),
(390,-21,l),
(409,-22,l),
(446,-20,l),
(538,2,l),
(555,7,l),
(615,33,l),
(656,62,l),
(688,88,l),
(745,154,l),
(755,170,l),
(770,190,l),
(782,213,l),
(793,232,l),
(804,263,l),
(816,320,l),
(818,344,l),
(818,358,l),
(819,378,l),
(817,393,l),
(810,436,l),
(793,485,l),
(781,508,l),
(773,525,l),
(755,552,l),
(730,586,l),
(701,617,l)
);
},
{
closed = 1;
nodes = (
(222,119,l),
(188,170,l),
(161,230,l),
(143,321,l),
(139,379,l),
(143,443,l),
(155,497,l),
(196,578,l),
(248,630,l),
(272,648,l),
(295,659,l),
(368,683,l),
(389,683,l),
(411,686,l),
(432,684,l),
(455,683,l),
(479,675,l),
(548,647,l),
(592,614,l),
(623,587,l),
(637,563,l),
(656,539,l),
(665,515,l),
(680,487,l),
(687,458,l),
(700,422,l),
(703,383,l),
(708,324,l),
(697,243,l),
(665,165,l),
(633,114,l),
(621,100,l),
(572,59,l),
(519,37,l),
(434,20,l),
(378,25,l),
(341,36,l),
(273,71,l),
(254,87,l),
(239,102,l),
(231,112,l)
);
}
);
width = 854;
}
);
},
{
glyphname = O.006;
layers = (
{
hints = (
{
horizontal = 1;
place = (685,38);
type = Stem;
},
{
horizontal = 1;
place = (-20,39);
type = Stem;
},
{
place = (653,114);
type = Stem;
},
{
place = (26,117);
type = Stem;
}
);
layerId = m01;
shapes = (
{
closed = 1;
nodes = (
(26,341,l),
(31,285,l),
(41,242,l),
(69,178,l),
(82,158,l),
(89,147,l),
(95,138,l),
(105,127,l),
(117,112,l),
(167,61,l),
(208,36,l),
(279,-3,l),
(327,-16,l),
(393,-18,l),
(452,-15,l),
(506,0,l),
(580,38,l),
(675,116,l),
(704,152,l),
(735,206,l),
(764,314,l),
(765,354,l),
(765,392,l),
(753,456,l),
(721,539,l),
(667,616,l),
(655,628,l),
(636,643,l),
(597,672,l),
(561,691,l),
(534,703,l),
(495,714,l),
(399,724,l),
(350,719,l),
(322,715,l),
(300,708,l),
(279,704,l),
(256,693,l),
(191,660,l),
(160,637,l),
(138,617,l),
(89,558,l),
(56,498,l),
(43,464,l),
(36,430,l),
(31,398,l),
(29,371,l)
);
},
{
closed = 1;
nodes = (
(389,687,l),
(486,673,l),
(548,638,l),
(568,616,l),
(626,526,l),
(649,437,l),
(654,378,l),
(646,291,l),
(634,234,l),
(602,152,l),
(577,111,l),
(537,69,l),
(518,56,l),
(429,26,l),
(400,24,l),
(382,23,l),
(364,25,l),
(312,39,l),
(276,60,l),
(233,100,l),
(190,163,l),
(173,197,l),
(152,266,l),
(146,311,l),
(144,352,l),
(145,388,l),
(148,428,l),
(156,472,l),
(167,514,l),
(198,579,l),
(254,644,l),
(303,673,l)
);
}
);
width = 792;
}
);
},
{
glyphname = O.007;
layers = (
{
layerId = m01;
shapes = (
{
closed = 1;
nodes = (
(43,479,o),
(43,336,qs),
(43,192,o),
(256,-10,o),
(408,-10,qs),
(554,-10,o),
(773,197,o),
(773,336,qs),
(773,481,o),
(564,677,o),
(410,677,qs),
(256,677,o)
);
},
{
closed = 1;
nodes = (
(579,553,qs),
(645,462,o),
(645,333,qs),
(645,216,o),
(586,119,qs),
(524,17,o),
(417,17,qs),
(315,17,o),
(171,216,o),
(171,357,qs),
(171,488,o),
(297,650,o),
(398,650,qs),
(508,650,o)
);
}
);
userData = {
assembly = "PUSHW[ ]	/* 1 value pushed */
10
CALL[ ]	/* CallFunction */
PUSHW[ ]	/* 1 value pushed */
26
MDAP[1]	/* MoveDirectAbsPt */
PUSHW[ ]	/* 1 value pushed */
27
MDAP[1]	/* MoveDirectAbsPt */
PUSHW[ ]	/* 1 value pushed */
3
MDRP[11100]	/* MoveDirectRelPt */
PUSHW[ ]	/* 1 value pushed */
26
SRP0[ ]	/* SetRefPoint0 */
PUSHW[ ]	/* 1 value pushed */
9
MDRP[10000]	/* MoveDirectRelPt */
PUSHW[ ]	/* 1 value pushed */
9
MDAP[1]	/* MoveDirectAbsPt */
PUSHW[ ]	/* 1 value pushed */
15
MDRP[11100]	/* MoveDirectRelPt */
NPUSHW[ ]	/* 21 values pushed */
102 15 118 15 134 15 150 15 166 15 182 15 198 15 214 15 230 15 246 15 10
DELTAP1[ ]	/* DeltaExceptionP1 */
NPUSHW[ ]	/* 7 values pushed */
6 15 22 15 38 15 3
DELTAP2[ ]	/* DeltaExceptionP2 */
NPUSHW[ ]	/* 5 values pushed */
53 15 69 15 2
DELTAP2[ ]	/* DeltaExceptionP2 */
PUSHW[ ]	/* 1 value pushed */
3
SRP0[ ]	/* SetRefPoint0 */
PUSHW[ ]	/* 1 value pushed */
22
MDRP[11100]	/* MoveDirectRelPt */
NPUSHW[ ]	/* 5 values pushed */
58 22 74 22 2
DELTAP2[ ]	/* DeltaExceptionP2 */
NPUSHW[ ]	/* 21 values pushed */
105 22 121 22 137 22 153 22 169 22 185 22 201 22 217 22 233 22 249 22 10
DELTAP1[ ]	/* DeltaExceptionP1 */
NPUSHW[ ]	/* 7 values pushed */
9 22 25 22 41 22 3
DELTAP2[ ]	/* DeltaExceptionP2 */
SVTCA[0]	/* SetFreedomAndProjectionVectorToAxis */
PUSHW[ ]	/* 1 value pushed */
37
RCVT[ ]	/* ReadCVT */
IF[ ]	/* If */
PUSHW[ ]	/* 1 value pushed */
0
MDAP[1]	/* MoveDirectAbsPt */
ELSE[ ]	/* Else */
PUSHW[ ]	/* 2 values pushed */
0 44
MIAP[0]	/* MoveIndirectAbsPt */
EIF[ ]	/* EndIf */
PUSHW[ ]	/* 1 value pushed */
37
RCVT[ ]	/* ReadCVT */
IF[ ]	/* If */
PUSHW[ ]	/* 1 value pushed */
6
MDAP[1]	/* MoveDirectAbsPt */
ELSE[ ]	/* Else */
PUSHW[ ]	/* 2 values pushed */
6 38
MIAP[0]	/* MoveIndirectAbsPt */
EIF[ ]	/* EndIf */
PUSHW[ ]	/* 1 value pushed */
0
SRP0[ ]	/* SetRefPoint0 */
PUSHW[ ]	/* 1 value pushed */
12
MDRP[11100]	/* MoveDirectRelPt */
NPUSHW[ ]	/* 5 values pushed */
57 12 73 12 2
DELTAP2[ ]	/* DeltaExceptionP2 */
NPUSHW[ ]	/* 21 values pushed */
104 12 120 12 136 12 152 12 168 12 184 12 200 12 216 12 232 12 248 12 10
DELTAP1[ ]	/* DeltaExceptionP1 */
NPUSHW[ ]	/* 7 values pushed */
8 12 24 12 40 12 3
DELTAP2[ ]	/* DeltaExceptionP2 */
PUSHW[ ]	/* 1 value pushed */
6
SRP0[ ]	/* SetRefPoint0 */
PUSHW[ ]	/* 1 value pushed */
18
MDRP[11100]	/* MoveDirectRelPt */
NPUSHW[ ]	/* 21 values pushed */
103 18 119 18 135 18 151 18 167 18 183 18 199 18 215 18 231 18 247 18 10
DELTAP1[ ]	/* DeltaExceptionP1 */
NPUSHW[ ]	/* 7 values pushed */
7 18 23 18 39 18 3
DELTAP2[ ]	/* DeltaExceptionP2 */
NPUSHW[ ]	/* 5 values pushed */
54 18 70 18 2
DELTAP2[ ]	/* DeltaExceptionP2 */
IUP[0]	/* InterpolateUntPts */
IUP[1]	/* InterpolateUntPts */";
};
width = 817;
}
);
note = O;
},
{
glyphname = O.008;
layers = (
{
layerId = m01;
shapes = (
{
closed = 1;
nodes = (
(205,627,qs),
(157,595,o),
(76,494,o),
(60,447,qs),
(37,378,o),
(37,311,qs),
(37,223,o),
(85,153,qs),
(150,59,o),
(239,15,qs),
(312,-21,o),
(398,-21,qs),
(464,-21,o),
(608,33,o),
(655,76,qs),
(716,131,o),
(789,281,o),
(789,351,qs),
(789,378,o),
(781,412,qs),
(763,490,o),
(705,559,qs),
(597,689,o),
(420,689,qs),
(298,689,o)
);
},
{
closed = 1;
nodes = (
(571,600,o),
(606,554,qs),
(686,449,o),
(686,310,qs),
(686,243,o),
(664,191,qs),
(622,90,o),
(546,54,qs),
(479,22,o),
(419,22,qs),
(380,22,o),
(272,63,o),
(220,126,qs),
(142,220,o),
(142,371,qs),
(142,486,o),
(195,553,qs),
(275,655,o),
(398,655,qs),
(457,655,o)
);
}
);
userData = {
assembly = "PUSHW[ ]	/* 1 value pushed */
10
CALL[ ]	/* CallFunction */
PUSHW[ ]	/* 1 value pushed */
45
MDAP[1]	/* MoveDirectAbsPt */
PUSHW[ ]	/* 1 value pushed */
46
MDAP[1]	/* MoveDirectAbsPt */
PUSHW[ ]	/* 1 value pushed */
6
MDRP[11100]	/* MoveDirectRelPt */
PUSHW[ ]	/* 1 value pushed */
45
SRP0[ ]	/* SetRefPoint0 */
PUSHW[ ]	/* 1 value pushed */
18
MDRP[10000]	/* MoveDirectRelPt */
PUSHW[ ]	/* 1 value pushed */
18
MDAP[1]	/* MoveDirectAbsPt */
PUSHW[ ]	/* 1 value pushed */
29
MDRP[11100]	/* MoveDirectRelPt */
NPUSHW[ ]	/* 21 values pushed */
102 29 118 29 134 29 150 29 166 29 182 29 198 29 214 29 230 29 246 29 10
DELTAP1[ ]	/* DeltaExceptionP1 */
NPUSHW[ ]	/* 7 values pushed */
6 29 22 29 38 29 3
DELTAP2[ ]	/* DeltaExceptionP2 */
NPUSHW[ ]	/* 5 values pushed */
53 29 69 29 2
DELTAP2[ ]	/* DeltaExceptionP2 */
PUSHW[ ]	/* 1 value pushed */
6
SRP0[ ]	/* SetRefPoint0 */
PUSHW[ ]	/* 1 value pushed */
40
MDRP[11100]	/* MoveDirectRelPt */
NPUSHW[ ]	/* 5 values pushed */
58 40 74 40 2
DELTAP2[ ]	/* DeltaExceptionP2 */
NPUSHW[ ]	/* 21 values pushed */
105 40 121 40 137 40 153 40 169 40 185 40 201 40 217 40 233 40 249 40 10
DELTAP1[ ]	/* DeltaExceptionP1 */
NPUSHW[ ]	/* 7 values pushed */
9 40 25 40 41 40 3
DELTAP2[ ]	/* DeltaExceptionP2 */
SVTCA[0]	/* SetFreedomAndProjectionVectorToAxis */
PUSHW[ ]	/* 1 value pushed */
37
RCVT[ ]	/* ReadCVT */
IF[ ]	/* If */
PUSHW[ ]	/* 1 value pushed */
0
MDAP[1]	/* MoveDirectAbsPt */
ELSE[ ]	/* Else */
PUSHW[ ]	/* 2 values pushed */
0 44
MIAP[0]	/* MoveIndirectAbsPt */
EIF[ ]	/* EndIf */
PUSHW[ ]	/* 1 value pushed */
37
RCVT[ ]	/* ReadCVT */
IF[ ]	/* If */
PUSHW[ ]	/* 1 value pushed */
12
MDAP[1]	/* MoveDirectAbsPt */
ELSE[ ]	/* Else */
PUSHW[ ]	/* 2 values pushed */
12 38
MIAP[0]	/* MoveIndirectAbsPt */
EIF[ ]	/* EndIf */
PUSHW[ ]	/* 1 value pushed */
0
SRP0[ ]	/* SetRefPoint0 */
PUSHW[ ]	/* 1 value pushed */
25
MDRP[11100]	/* MoveDirectRelPt */
NPUSHW[ ]	/* 5 values pushed */
57 25 73 25 2
DELTAP2[ ]	/* DeltaExceptionP2 */
NPUSHW[ ]	/* 21 values pushed */
104 25 120 25 136 25 152 25 168 25 184 25 200 25 216 25 232 25 248 25 10
DELTAP1[ ]	/* DeltaExceptionP1 */
NPUSHW[ ]	/* 7 values pushed */
8 25 24 25 40 25 3
DELTAP2[ ]	/* DeltaExceptionP2 */
PUSHW[ ]	/* 1 value pushed */
12
SRP0[ ]	/* SetRefPoint0 */
PUSHW[ ]	/* 1 value pushed */
34
MDRP[11100]	/* MoveDirectRelPt */
NPUSHW[ ]	/* 21 values pushed */
103 34 119 34 135 34 151 34 167 34 183 34 199 34 215 34 231 34 247 34 10
DELTAP1[ ]	/* DeltaExceptionP1 */
NPUSHW[ ]	/* 7 values pushed */
7 34 23 34 39 34 3
DELTAP2[ ]	/* DeltaExceptionP2 */
NPUSHW[ ]	/* 5 values pushed */
54 34 70 34 2
DELTAP2[ ]	/* DeltaExceptionP2 */
IUP[0]	/* InterpolateUntPts */
IUP[1]	/* InterpolateUntPts */";
};
width = 825;
}
);
note = O;
},
{
glyphname = O.009;
layers = (
{
layerId = m01;
shapes = (
{
closed = 1;
nodes = (
(42,481,o),
(42,333,qs),
(42,184,o),
(236,-17,o),
(381,-17,qs),
(528,-17,o),
(725,182,o),
(725,332,qs),
(725,481,o),
(528,684,o),
(383,684,qs),
(240,684,o)
);
},
{
closed = 1;
nodes = (
(630,472,o),
(630,329,qs),
(630,183,o),
(567,98,qs),
(539,61,o),
(442,15,o),
(390,15,qs),
(278,15,o),
(135,194,o),
(135,333,qs),
(135,481,o),
(269,654,o),
(384,654,qs),
(492,654,o)
);
}
);
userData = {
assembly = "PUSHW[ ]	/* 1 value pushed */
10
CALL[ ]	/* CallFunction */
PUSHW[ ]	/* 1 value pushed */
26
MDAP[1]	/* MoveDirectAbsPt */
PUSHW[ ]	/* 1 value pushed */
27
MDAP[1]	/* MoveDirectAbsPt */
PUSHW[ ]	/* 1 value pushed */
3
MDRP[11100]	/* MoveDirectRelPt */
PUSHW[ ]	/* 1 value pushed */
26
SRP0[ ]	/* SetRefPoint0 */
PUSHW[ ]	/* 1 value pushed */
9
MDRP[10000]	/* MoveDirectRelPt */
PUSHW[ ]	/* 1 value pushed */
9
MDAP[1]	/* MoveDirectAbsPt */
PUSHW[ ]	/* 1 value pushed */
15
MDRP[11100]	/* MoveDirectRelPt */
NPUSHW[ ]	/* 21 values pushed */
102 15 118 15 134 15 150 15 166 15 182 15 198 15 214 15 230 15 246 15 10
DELTAP1[ ]	/* DeltaExceptionP1 */
NPUSHW[ ]	/* 7 values pushed */
6 15 22 15 38 15 3
DELTAP2[ ]	/* DeltaExceptionP2 */
NPUSHW[ ]	/* 5 values pushed */
53 15 69 15 2
DELTAP2[ ]	/* DeltaExceptionP2 */
PUSHW[ ]	/* 1 value pushed */
3
SRP0[ ]	/* SetRefPoint0 */
PUSHW[ ]	/* 1 value pushed */
23
MDRP[11100]	/* MoveDirectRelPt */
NPUSHW[ ]	/* 5 values pushed */
58 23 74 23 2
DELTAP2[ ]	/* DeltaExceptionP2 */
NPUSHW[ ]	/* 21 values pushed */
105 23 121 23 137 23 153 23 169 23 185 23 201 23 217 23 233 23 249 23 10
DELTAP1[ ]	/* DeltaExceptionP1 */
NPUSHW[ ]	/* 7 values pushed */
9 23 25 23 41 23 3
DELTAP2[ ]	/* DeltaExceptionP2 */
SVTCA[0]	/* SetFreedomAndProjectionVectorToAxis */
PUSHW[ ]	/* 1 value pushed */
33
RCVT[ ]	/* ReadCVT */
IF[ ]	/* If */
PUSHW[ ]	/* 1 value pushed */
0
MDAP[1]	/* MoveDirectAbsPt */
ELSE[ ]	/* Else */
PUSHW[ ]	/* 2 values pushed */
0 40
MIAP[0]	/* MoveIndirectAbsPt */
EIF[ ]	/* EndIf */
PUSHW[ ]	/* 1 value pushed */
33
RCVT[ ]	/* ReadCVT */
IF[ ]	/* If */
PUSHW[ ]	/* 1 value pushed */
6
MDAP[1]	/* MoveDirectAbsPt */
ELSE[ ]	/* Else */
PUSHW[ ]	/* 2 values pushed */
6 34
MIAP[0]	/* MoveIndirectAbsPt */
EIF[ ]	/* EndIf */
PUSHW[ ]	/* 1 value pushed */
0
SRP0[ ]	/* SetRefPoint0 */
PUSHW[ ]	/* 1 value pushed */
12
MDRP[11100]	/* MoveDirectRelPt */
NPUSHW[ ]	/* 5 values pushed */
57 12 73 12 2
DELTAP2[ ]	/* DeltaExceptionP2 */
NPUSHW[ ]	/* 21 values pushed */
104 12 120 12 136 12 152 12 168 12 184 12 200 12 216 12 232 12 248 12 10
DELTAP1[ ]	/* DeltaExceptionP1 */
NPUSHW[ ]	/* 7 values pushed */
8 12 24 12 40 12 3
DELTAP2[ ]	/* DeltaExceptionP2 */
PUSHW[ ]	/* 1 value pushed */
6
SRP0[ ]	/* SetRefPoint0 */
PUSHW[ ]	/* 1 value pushed */
18
MDRP[11100]	/* MoveDirectRelPt */
NPUSHW[ ]	/* 21 values pushed */
103 18 119 18 135 18 151 18 167 18 183 18 199 18 215 18 231 18 247 18 10
DELTAP1[ ]	/* DeltaExceptionP1 */
NPUSHW[ ]	/* 7 values pushed */
7 18 23 18 39 18 3
DELTAP2[ ]	/* DeltaExceptionP2 */
NPUSHW[ ]	/* 5 values pushed */
54 18 70 18 2
DELTAP2[ ]	/* DeltaExceptionP2 */
IUP[0]	/* InterpolateUntPts */
IUP[1]	/* InterpolateUntPts */";
};
width = 767;
}
);
note = O;
},
{
glyphname = O.010;
layers = (
{
layerId = m01;
shapes = (
{
closed = 1;
nodes = (
(193,659,o),
(98,559,o),
(46,428,o),
(46,356,qs),
(46,336,o),
(53,270,o),
(79,190,o),
(131,104,o),
(176,66,qs),
(208,39,o),
(272,6,o),
(332,-11,o),
(386,-16,o),
(408,-16,qs),
(467,-16,o),
(595,18,o),
(660,72,qs),
(685,93,o),
(741,161,o),
(761,215,qs),
(786,278,o),
(786,351,qs),
(786,423,o),
(736,558,o),
(640,661,o),
(500,723,o),
(410,721,qs),
(327,719,o)
);
},
{
closed = 1;
nodes = (
(587,613,o),
(654,515,o),
(686,394,o),
(686,337,qs),
(686,268,o),
(644,154,o),
(572,73,o),
(475,28,o),
(420,28,qs),
(355,28,o),
(253,85,o),
(184,180,o),
(148,300,o),
(148,363,qs),
(148,438,o),
(193,554,o),
(267,634,o),
(363,676,o),
(415,676,qs),
(485,676,o)
);
}
);
userData = {
assembly = "PUSHW[ ]	/* 1 value pushed */
48
MDAP[1]	/* MoveDirectAbsPt */
PUSHW[ ]	/* 1 value pushed */
49
MDAP[1]	/* MoveDirectAbsPt */
PUSHW[ ]	/* 1 value pushed */
5
MDRP[11100]	/* MoveDirectRelPt */
PUSHW[ ]	/* 1 value pushed */
48
SRP0[ ]	/* SetRefPoint0 */
PUSHW[ ]	/* 1 value pushed */
23
MDRP[10000]	/* MoveDirectRelPt */
PUSHW[ ]	/* 1 value pushed */
23
MDAP[1]	/* MoveDirectAbsPt */
PUSHW[ ]	/* 2 values pushed */
33 3
MIRP[11100]	/* MoveIndirectRelPt */
NPUSHW[ ]	/* 17 values pushed */
6 33 22 33 38 33 54 33 70 33 86 33 102 33 118 33 8
DELTAP1[ ]	/* DeltaExceptionP1 */
NPUSHW[ ]	/* 5 values pushed */
133 33 149 33 2
DELTAP1[ ]	/* DeltaExceptionP1 */
PUSHW[ ]	/* 1 value pushed */
5
SRP0[ ]	/* SetRefPoint0 */
PUSHW[ ]	/* 2 values pushed */
43 3
MIRP[11100]	/* MoveIndirectRelPt */
NPUSHW[ ]	/* 5 values pushed */
138 43 154 43 2
DELTAP1[ ]	/* DeltaExceptionP1 */
NPUSHW[ ]	/* 17 values pushed */
9 43 25 43 41 43 57 43 73 43 89 43 105 43 121 43 8
DELTAP1[ ]	/* DeltaExceptionP1 */
SVTCA[0]	/* SetFreedomAndProjectionVectorToAxis */
PUSHW[ ]	/* 1 value pushed */
0
RCVT[ ]	/* ReadCVT */
IF[ ]	/* If */
PUSHW[ ]	/* 1 value pushed */
0
MDAP[1]	/* MoveDirectAbsPt */
ELSE[ ]	/* Else */
PUSHW[ ]	/* 2 values pushed */
0 18
MIAP[0]	/* MoveIndirectAbsPt */
EIF[ ]	/* EndIf */
PUSHW[ ]	/* 1 value pushed */
0
RCVT[ ]	/* ReadCVT */
IF[ ]	/* If */
PUSHW[ ]	/* 1 value pushed */
13
MDAP[1]	/* MoveDirectAbsPt */
ELSE[ ]	/* Else */
PUSHW[ ]	/* 2 values pushed */
13 4
MIAP[0]	/* MoveIndirectAbsPt */
EIF[ ]	/* EndIf */
PUSHW[ ]	/* 1 value pushed */
0
SRP0[ ]	/* SetRefPoint0 */
PUSHW[ ]	/* 2 values pushed */
28 1
MIRP[11100]	/* MoveIndirectRelPt */
NPUSHW[ ]	/* 5 values pushed */
153 28 169 28 2
DELTAP2[ ]	/* DeltaExceptionP2 */
NPUSHW[ ]	/* 33 values pushed */
8 28 24 28 40 28 56 28 72 28 88 28 104 28 120 28 136 28 152 28 168 28 184 28 200 28 216 28 232 28 248 28 16
DELTAP1[ ]	/* DeltaExceptionP1 */
NPUSHW[ ]	/* 19 values pushed */
8 28 24 28 40 28 56 28 72 28 88 28 104 28 120 28 136 28 9
DELTAP2[ ]	/* DeltaExceptionP2 */
PUSHW[ ]	/* 1 value pushed */
13
SRP0[ ]	/* SetRefPoint0 */
PUSHW[ ]	/* 2 values pushed */
38 1
MIRP[11100]	/* MoveIndirectRelPt */
NPUSHW[ ]	/* 33 values pushed */
7 38 23 38 39 38 55 38 71 38 87 38 103 38 119 38 135 38 151 38 167 38 183 38 199 38 215 38 231 38 247 38 16
DELTAP1[ ]	/* DeltaExceptionP1 */
NPUSHW[ ]	/* 19 values pushed */
7 38 23 38 39 38 55 38 71 38 87 38 103 38 119 38 135 38 9
DELTAP2[ ]	/* DeltaExceptionP2 */
NPUSHW[ ]	/* 5 values pushed */
150 38 166 38 2
DELTAP2[ ]	/* DeltaExceptionP2 */
IUP[0]	/* InterpolateUntPts */
IUP[1]	/* InterpolateUntPts */";
};
width = 833;
}
);
note = O;
},
{
glyphname = O.011;
layers = (
{
layerId = m01;
shapes = (
{
closed = 1;
nodes = (
(50,493,o),
(50,335,qs),
(50,173,o),
(244,-30,o),
(399,-30,qs),
(557,-30,o),
(663,84,qs),
(756,184,o),
(756,337,qs),
(756,486,o),
(678,579,qs),
(579,697,o),
(410,697,qs),
(253,697,o)
);
},
{
closed = 1;
nodes = (
(599,556,qs),
(656,467,o),
(656,337,qs),
(656,192,o),
(589,102,qs),
(518,6,o),
(404,6,qs),
(294,6,o),
(152,188,o),
(152,334,qs),
(152,479,o),
(295,661,o),
(410,661,qs),
(532,661,o)
);
}
);
userData = {
assembly = "PUSHW[ ]	/* 1 value pushed */
10
CALL[ ]	/* CallFunction */
PUSHW[ ]	/* 1 value pushed */
28
MDAP[1]	/* MoveDirectAbsPt */
PUSHW[ ]	/* 1 value pushed */
29
MDAP[1]	/* MoveDirectAbsPt */
PUSHW[ ]	/* 1 value pushed */
4
MDRP[11100]	/* MoveDirectRelPt */
PUSHW[ ]	/* 1 value pushed */
24
MDRP[11100]	/* MoveDirectRelPt */
NPUSHW[ ]	/* 5 values pushed */
58 24 74 24 2
DELTAP2[ ]	/* DeltaExceptionP2 */
NPUSHW[ ]	/* 21 values pushed */
105 24 121 24 137 24 153 24 169 24 185 24 201 24 217 24 233 24 249 24 10
DELTAP1[ ]	/* DeltaExceptionP1 */
NPUSHW[ ]	/* 7 values pushed */
9 24 25 24 41 24 3
DELTAP2[ ]	/* DeltaExceptionP2 */
PUSHW[ ]	/* 1 value pushed */
6
MDRP[10000]	/* MoveDirectRelPt */
PUSHW[ ]	/* 1 value pushed */
6
MDAP[1]	/* MoveDirectAbsPt */
PUSHW[ ]	/* 1 value pushed */
28
SRP0[ ]	/* SetRefPoint0 */
PUSHW[ ]	/* 1 value pushed */
11
MDRP[10000]	/* MoveDirectRelPt */
PUSHW[ ]	/* 1 value pushed */
11
MDAP[1]	/* MoveDirectAbsPt */
PUSHW[ ]	/* 1 value pushed */
17
MDRP[11100]	/* MoveDirectRelPt */
NPUSHW[ ]	/* 21 values pushed */
102 17 118 17 134 17 150 17 166 17 182 17 198 17 214 17 230 17 246 17 10
DELTAP1[ ]	/* DeltaExceptionP1 */
NPUSHW[ ]	/* 7 values pushed */
6 17 22 17 38 17 3
DELTAP2[ ]	/* DeltaExceptionP2 */
NPUSHW[ ]	/* 5 values pushed */
53 17 69 17 2
DELTAP2[ ]	/* DeltaExceptionP2 */
SVTCA[0]	/* SetFreedomAndProjectionVectorToAxis */
PUSHW[ ]	/* 1 value pushed */
35
RCVT[ ]	/* ReadCVT */
IF[ ]	/* If */
PUSHW[ ]	/* 1 value pushed */
0
MDAP[1]	/* MoveDirectAbsPt */
ELSE[ ]	/* Else */
PUSHW[ ]	/* 2 values pushed */
0 42
MIAP[0]	/* MoveIndirectAbsPt */
EIF[ ]	/* EndIf */
PUSHW[ ]	/* 1 value pushed */
35
RCVT[ ]	/* ReadCVT */
IF[ ]	/* If */
PUSHW[ ]	/* 1 value pushed */
8
MDAP[1]	/* MoveDirectAbsPt */
ELSE[ ]	/* Else */
PUSHW[ ]	/* 2 values pushed */
8 36
MIAP[0]	/* MoveIndirectAbsPt */
EIF[ ]	/* EndIf */
PUSHW[ ]	/* 1 value pushed */
0
SRP0[ ]	/* SetRefPoint0 */
PUSHW[ ]	/* 1 value pushed */
14
MDRP[11100]	/* MoveDirectRelPt */
NPUSHW[ ]	/* 5 values pushed */
57 14 73 14 2
DELTAP2[ ]	/* DeltaExceptionP2 */
NPUSHW[ ]	/* 21 values pushed */
104 14 120 14 136 14 152 14 168 14 184 14 200 14 216 14 232 14 248 14 10
DELTAP1[ ]	/* DeltaExceptionP1 */
NPUSHW[ ]	/* 7 values pushed */
8 14 24 14 40 14 3
DELTAP2[ ]	/* DeltaExceptionP2 */
PUSHW[ ]	/* 1 value pushed */
8
SRP0[ ]	/* SetRefPoint0 */
PUSHW[ ]	/* 1 value pushed */
20
MDRP[11100]	/* MoveDirectRelPt */
NPUSHW[ ]	/* 21 values pushed */
103 20 119 20 135 20 151 20 167 20 183 20 199 20 215 20 231 20 247 20 10
DELTAP1[ ]	/* DeltaExceptionP1 */
NPUSHW[ ]	/* 7 values pushed */
7 20 23 20 39 20 3
DELTAP2[ ]	/* DeltaExceptionP2 */
NPUSHW[ ]	/* 5 values pushed */
54 20 70 20 2
DELTAP2[ ]	/* DeltaExceptionP2 */
IUP[0]	/* InterpolateUntPts */
IUP[1]	/* InterpolateUntPts */";
};
width = 806;
}
);
note = O;
},
{
glyphname = a.001;
layers = (
{
layerId = m01;
shapes = (
{
closed = 1;
nodes = (
(155,150,o),
(200,165,qs),
(214,170,o),
(236,175,o),
(241,175,qs),
(246,175,o),
(251,170,o),
(251,162,qs),
(249,103,ls),
(249,87,o),
(245,65,o),
(236,56,qs),
(228,48,o),
(190,31,o),
(175,31,qs),
(156,31,o),
(131,45,o),
(117,64,o),
(112,85,o),
(112,91,qs),
(112,120,o)
);
},
{
closed = 1;
nodes = (
(70,147,o),
(35,108,o),
(35,79,qs),
(35,58,o),
(52,22,o),
(66,9,qs),
(92,-14,o),
(136,-14,qs),
(157,-14,o),
(191,2,o),
(208,11,qs),
(223,19,o),
(242,31,o),
(247,31,qs),
(252,31,o),
(260,22,o),
(263,17,qs),
(276,0,o),
(310,-14,o),
(328,-14,qs),
(346,-14,o),
(377,-2,o),
(400,14,o),
(412,28,o),
(412,30,qs),
(412,43,o),
(405,43,qs),
(403,43,o),
(396,38,o),
(392,36,qs),
(387,34,o),
(375,30,o),
(367,30,qs),
(338,30,o),
(319,82,o),
(321,117,qs),
(327,291,ls),
(329,348,o),
(277,408,o),
(223,408,qs),
(196,408,o),
(131,384,o),
(75,348,o),
(37,304,o),
(37,285,qs),
(37,271,o),
(51,271,qs),
(62,271,o),
(97,281,o),
(108,290,qs),
(114,295,o),
(117,312,o),
(118,324,qs),
(120,347,o),
(161,369,o),
(182,369,qs),
(205,369,o),
(234,352,o),
(250,327,o),
(255,296,o),
(255,282,qs),
(254,236,ls),
(253,225,o),
(248,211,o),
(237,207,qs),
(118,164,ls)
);
}
);
userData = {
assembly = "PUSHW[ ]	/* 1 value pushed */
87
MDAP[1]	/* MoveDirectAbsPt */
PUSHW[ ]	/* 4 values pushed */
50 2 24 4
CALL[ ]	/* CallFunction */
PUSHW[ ]	/* 1 value pushed */
50
SRP0[ ]	/* SetRefPoint0 */
PUSHW[ ]	/* 1 value pushed */
87
SRP0[ ]	/* SetRefPoint0 */
PUSHW[ ]	/* 1 value pushed */
83
MDRP[10000]	/* MoveDirectRelPt */
PUSHW[ ]	/* 1 value pushed */
83
MDAP[1]	/* MoveDirectAbsPt */
PUSHW[ ]	/* 2 values pushed */
0 2
MIRP[11100]	/* MoveIndirectRelPt */
NPUSHW[ ]	/* 19 values pushed */
6 0 22 0 38 0 54 0 70 0 86 0 102 0 118 0 134 0 9
DELTAP1[ ]	/* DeltaExceptionP1 */
NPUSHW[ ]	/* 5 values pushed */
149 0 165 0 2
DELTAP1[ ]	/* DeltaExceptionP1 */
PUSHW[ ]	/* 1 value pushed */
24
SRP0[ ]	/* SetRefPoint0 */
PUSHW[ ]	/* 1 value pushed */
11
MDRP[10000]	/* MoveDirectRelPt */
PUSHW[ ]	/* 1 value pushed */
11
MDAP[1]	/* MoveDirectAbsPt */
PUSHW[ ]	/* 1 value pushed */
0
SRP0[ ]	/* SetRefPoint0 */
PUSHW[ ]	/* 1 value pushed */
33
MDRP[10000]	/* MoveDirectRelPt */
PUSHW[ ]	/* 1 value pushed */
33
MDAP[1]	/* MoveDirectAbsPt */
PUSHW[ ]	/* 1 value pushed */
0
SRP0[ ]	/* SetRefPoint0 */
PUSHW[ ]	/* 1 value pushed */
36
MDRP[10000]	/* MoveDirectRelPt */
PUSHW[ ]	/* 1 value pushed */
36
MDAP[1]	/* MoveDirectAbsPt */
PUSHW[ ]	/* 1 value pushed */
83
SRP0[ ]	/* SetRefPoint0 */
PUSHW[ ]	/* 1 value pushed */
41
MDRP[10000]	/* MoveDirectRelPt */
PUSHW[ ]	/* 1 value pushed */
41
MDAP[1]	/* MoveDirectAbsPt */
PUSHW[ ]	/* 1 value pushed */
50
SRP0[ ]	/* SetRefPoint0 */
PUSHW[ ]	/* 1 value pushed */
66
MDRP[10000]	/* MoveDirectRelPt */
PUSHW[ ]	/* 1 value pushed */
66
MDAP[1]	/* MoveDirectAbsPt */
PUSHW[ ]	/* 1 value pushed */
24
SRP0[ ]	/* SetRefPoint0 */
PUSHW[ ]	/* 1 value pushed */
72
MDRP[10000]	/* MoveDirectRelPt */
PUSHW[ ]	/* 1 value pushed */
72
MDAP[1]	/* MoveDirectAbsPt */
PUSHW[ ]	/* 1 value pushed */
0
SRP0[ ]	/* SetRefPoint0 */
PUSHW[ ]	/* 1 value pushed */
86
MDRP[10000]	/* MoveDirectRelPt */
PUSHW[ ]	/* 1 value pushed */
86
MDAP[1]	/* MoveDirectAbsPt */
SVTCA[0]	/* SetFreedomAndProjectionVectorToAxis */
PUSHW[ ]	/* 1 value pushed */
0
RCVT[ ]	/* ReadCVT */
IF[ ]	/* If */
PUSHW[ ]	/* 1 value pushed */
46
MDAP[1]	/* MoveDirectAbsPt */
ELSE[ ]	/* Else */
PUSHW[ ]	/* 2 values pushed */
46 10
MIAP[0]	/* MoveIndirectAbsPt */
EIF[ ]	/* EndIf */
PUSHW[ ]	/* 1 value pushed */
0
RCVT[ ]	/* ReadCVT */
IF[ ]	/* If */
PUSHW[ ]	/* 1 value pushed */
66
MDAP[1]	/* MoveDirectAbsPt */
ELSE[ ]	/* Else */
PUSHW[ ]	/* 2 values pushed */
66 4
MIAP[0]	/* MoveIndirectAbsPt */
EIF[ ]	/* EndIf */
PUSHW[ ]	/* 1 value pushed */
0
RCVT[ ]	/* ReadCVT */
IF[ ]	/* If */
PUSHW[ ]	/* 1 value pushed */
78
MDAP[1]	/* MoveDirectAbsPt */
ELSE[ ]	/* Else */
PUSHW[ ]	/* 2 values pushed */
78 4
MIAP[0]	/* MoveIndirectAbsPt */
EIF[ ]	/* EndIf */
PUSHW[ ]	/* 2 values pushed */
5 1
MIRP[11100]	/* MoveIndirectRelPt */
NPUSHW[ ]	/* 33 values pushed */
7 5 23 5 39 5 55 5 71 5 87 5 103 5 119 5 135 5 151 5 167 5 183 5 199 5 215 5 231 5 247 5 16
DELTAP1[ ]	/* DeltaExceptionP1 */
NPUSHW[ ]	/* 23 values pushed */
7 5 23 5 39 5 55 5 71 5 87 5 103 5 119 5 135 5 151 5 167 5 11
DELTAP2[ ]	/* DeltaExceptionP2 */
NPUSHW[ ]	/* 5 values pushed */
182 5 198 5 2
DELTAP2[ ]	/* DeltaExceptionP2 */
PUSHW[ ]	/* 1 value pushed */
46
SRP0[ ]	/* SetRefPoint0 */
PUSHW[ ]	/* 2 values pushed */
30 1
MIRP[11100]	/* MoveIndirectRelPt */
NPUSHW[ ]	/* 5 values pushed */
185 30 201 30 2
DELTAP2[ ]	/* DeltaExceptionP2 */
NPUSHW[ ]	/* 33 values pushed */
8 30 24 30 40 30 56 30 72 30 88 30 104 30 120 30 136 30 152 30 168 30 184 30 200 30 216 30 232 30 248 30 16
DELTAP1[ ]	/* DeltaExceptionP1 */
NPUSHW[ ]	/* 23 values pushed */
8 30 24 30 40 30 56 30 72 30 88 30 104 30 120 30 136 30 152 30 168 30 11
DELTAP2[ ]	/* DeltaExceptionP2 */
PUSHW[ ]	/* 1 value pushed */
5
SRP0[ ]	/* SetRefPoint0 */
PUSHW[ ]	/* 1 value pushed */
53
MDRP[10000]	/* MoveDirectRelPt */
PUSHW[ ]	/* 1 value pushed */
72
MDRP[10000]	/* MoveDirectRelPt */
PUSHW[ ]	/* 1 value pushed */
72
MDAP[1]	/* MoveDirectAbsPt */
IUP[0]	/* InterpolateUntPts */
IUP[1]	/* InterpolateUntPts */";
};
width = 404;
}
);
note = a;
},
{
glyphname = a.002;
layers = (
{
hints = (
{
horizontal = 1;
place = (406,53);
type = Stem;
},
{
horizontal = 1;
place = (-7,53);
type = Stem;
},
{
place = (273,77);
type = Stem;
},
{
place = (40,82);
type = Stem;
}
);
layerId = m01;
shapes = (
{
closed = 1;
nodes = (
(412,60,l),
(376,42,l),
(356,55,l),
(346,121,l),
(351,302,l),
(347,365,l),
(333,407,l),
(307,435,l),
(256,456,l),
(220,457,l),
(196,445,l),
(165,427,l),
(134,408,l),
(100,385,l),
(76,367,l),
(60,340,l),
(56,319,l),
(67,306,l),
(111,320,l),
(121,342,l),
(129,368,l),
(186,401,l),
(210,405,l),
(243,392,l),
(261,365,l),
(273,322,l),
(273,246,l),
(149,201,l),
(82,172,l),
(48,137,l),
(40,97,l),
(45,54,l),
(66,21,l),
(97,-1,l),
(142,-7,l),
(189,-1,l),
(227,18,l),
(273,60,l),
(277,27,l),
(298,1,l),
(327,-10,l),
(360,-6,l),
(390,10,l),
(426,36,l)
);
},
{
closed = 1;
nodes = (
(273,96,l),
(242,71,l),
(214,54,l),
(182,46,l),
(158,50,l),
(139,63,l),
(127,83,l),
(122,108,l),
(128,132,l),
(139,151,l),
(167,172,l),
(220,194,l),
(271,214,l)
);
}
);
width = 437;
}
);
},
{
glyphname = a.003;
layers = (
{
hints = (
{
horizontal = 1;
place = (406,53);
type = Stem;
},
{
horizontal = 1;
place = (-7,53);
type = Stem;
},
{
place = (273,77);
type = Stem;
},
{
place = (40,82);
type = Stem;
}
);
layerId = m01;
shapes = (
{
closed = 1;
nodes = (
(412,60,l),
(376,42,l),
(356,55,l),
(346,121,l),
(351,302,l),
(347,365,l),
(333,407,l),
(307,435,l),
(256,456,l),
(220,457,l),
(196,445,l),
(165,427,l),
(134,408,l),
(100,385,l),
(76,367,l),
(60,340,l),
(56,319,l),
(67,306,l),
(111,320,l),
(121,342,l),
(129,368,l),
(186,401,l),
(210,405,l),
(243,392,l),
(261,365,l),
(273,322,l),
(273,246,l),
(149,201,l),
(82,172,l),
(48,137,l),
(40,97,l),
(45,54,l),
(66,21,l),
(97,-1,l),
(142,-7,l),
(189,-1,l),
(227,18,l),
(273,60,l),
(277,27,l),
(298,1,l),
(327,-10,l),
(360,-6,l),
(390,10,l),
(426,36,l)
);
},
{
closed = 1;
nodes = (
(273,96,l),
(242,71,l),
(214,54,l),
(182,46,l),
(158,50,l),
(139,63,l),
(127,83,l),
(122,108,l),
(128,132,l),
(139,151,l),
(167,172,l),
(220,194,l),
(271,214,l)
);
}
);
width = 437;
}
);
},
{
glyphname = a.004;
layers = (
{
hints = (
{
horizontal = 1;
place = (497,26);
type = Stem;
},
{
horizontal = 1;
place = (-7,67);
type = Stem;
},
{
place = (284,104);
type = Stem;
},
{
place = (20,113);
type = Stem;
}
);
layerId = m01;
shapes = (
{
closed = 1;
nodes = (
(248,58,l),
(272,74,l),
(296,45,l),
(320,10,l),
(348,-3,l),
(368,-7,l),
(405,0,l),
(438,21,l),
(474,57,l),
(478,66,l),
(469,79,l),
(448,67,l),
(421,59,l),
(403,63,l),
(390,74,l),
(377,127,l),
(380,187,l),
(384,337,l),
(385,396,l),
(387,436,l),
(383,467,l),
(363,494,l),
(324,514,l),
(257,521,l),
(171,511,l),
(110,489,l),
(54,442,l),
(20,388,l),
(17,371,l),
(20,357,l),
(39,348,l),
(73,357,l),
(106,371,l),
(125,404,l),
(140,439,l),
(181,484,l),
(222,497,l),
(257,485,l),
(275,466,l),
(280,417,l),
(283,342,l),
(272,297,l),
(245,282,l),
(196,262,l),
(107,218,l),
(67,189,l),
(37,150,l),
(19,85,l),
(24,45,l),
(40,19,l),
(85,-4,l),
(109,-8,l),
(158,3,l),
(227,43,l)
);
},
{
closed = 1;
nodes = (
(135,155,l),
(157,203,l),
(214,243,l),
(253,260,l),
(267,264,l),
(278,257,l),
(282,240,l),
(280,164,l),
(268,112,l),
(238,81,l),
(213,67,l),
(188,64,l),
(159,73,l),
(142,95,l),
(133,134,l)
);
}
);
width = 479;
}
);
},
{
glyphname = a.005;
layers = (
{
hints = (
{
horizontal = 1;
place = (391,64);
type = Stem;
},
{
horizontal = 1;
place = (-11,54);
type = Stem;
},
{
place = (255,72);
type = Stem;
},
{
place = (24,77);
type = Stem;
}
);
layerId = m01;
shapes = (
{
closed = 1;
nodes = (
(329,218,l),
(330,262,l),
(329,322,l),
(321,388,l),
(298,422,l),
(234,451,l),
(193,455,l),
(127,419,l),
(57,373,l),
(37,355,l),
(30,320,l),
(38,292,l),
(71,311,l),
(99,328,l),
(95,346,l),
(97,363,l),
(112,374,l),
(129,386,l),
(172,389,l),
(218,380,l),
(245,355,l),
(250,339,l),
(252,240,l),
(226,232,l),
(202,221,l),
(192,218,l),
(175,211,l),
(164,207,l),
(137,196,l),
(101,181,l),
(71,166,l),
(54,156,l),
(32,138,l),
(21,107,l),
(44,24,l),
(65,-1,l),
(107,-11,l),
(148,-6,l),
(177,11,l),
(256,79,l),
(259,32,l),
(282,4,l),
(323,-11,l),
(348,-6,l),
(371,5,l),
(407,65,l),
(408,77,l),
(391,84,l),
(373,60,l),
(354,53,l),
(330,68,l),
(323,156,l),
(325,184,l)
);
},
{
closed = 1;
nodes = (
(251,213,l),
(251,143,l),
(249,107,l),
(216,73,l),
(200,61,l),
(152,42,l),
(120,53,l),
(99,115,l),
(116,144,l),
(136,159,l),
(156,171,l),
(183,184,l),
(222,202,l)
);
}
);
width = 417;
}
);
},
{
glyphname = a.006;
layers = (
{
hints = (
{
horizontal = 1;
place = (417,37);
type = Stem;
},
{
horizontal = 1;
place = (-11,44);
type = Stem;
},
{
place = (244,71);
type = Stem;
},
{
place = (27,68);
type = Stem;
}
);
layerId = m01;
shapes = (
{
closed = 1;
nodes = (
(241,44,l),
(286,4,l),
(306,1,l),
(362,18,l),
(414,57,l),
(415,67,l),
(408,79,l),
(387,71,l),
(348,48,l),
(322,66,l),
(315,109,l),
(319,213,l),
(321,263,l),
(323,340,l),
(316,395,l),
(286,433,l),
(249,449,l),
(226,452,l),
(170,443,l),
(126,425,l),
(81,388,l),
(44,337,l),
(34,306,l),
(37,293,l),
(58,288,l),
(85,295,l),
(101,313,l),
(115,356,l),
(124,379,l),
(141,399,l),
(168,413,l),
(189,415,l),
(225,405,l),
(245,386,l),
(249,330,l),
(248,299,l),
(246,257,l),
(181,231,l),
(95,178,l),
(72,156,l),
(59,140,l),
(46,120,l),
(39,105,l),
(26,49,l),
(42,11,l),
(63,-7,l),
(106,-13,l),
(182,7,l),
(217,25,l)
);
},
{
closed = 1;
nodes = (
(228,213,l),
(238,209,l),
(243,200,l),
(242,172,l),
(233,78,l),
(204,49,l),
(144,29,l),
(123,35,l),
(103,57,l),
(95,91,l),
(98,111,l),
(113,137,l),
(155,182,l)
);
}
);
width = 417;
}
);
},
{
glyphname = a.007;
layers = (
{
layerId = m01;
shapes = (
{
closed = 1;
nodes = (
(288,276,o),
(271,269,qs),
(150,217,o),
(118,195,qs),
(50,148,o),
(50,80,qs),
(50,40,o),
(95,-10,o),
(132,-10,qs),
(191,-10,o),
(268,53,qs),
(289,70,o),
(291,70,qs),
(295,70,o),
(306,50,qs),
(336,-7,o),
(379,-7,qs),
(410,-7,o),
(488,46,o),
(488,67,qs),
(488,77,o),
(479,77,qs),
(473,77,o),
(461,68,qs),
(446,57,o),
(430,57,qs),
(397,57,o),
(397,117,qs),
(397,415,ls),
(397,493,o),
(274,493,qs),
(188,493,o),
(125,453,qs),
(93,433,o),
(46,369,o),
(46,345,qs),
(46,326,o),
(70,326,qs),
(88,326,o),
(121,343,qs),
(142,354,o),
(150,378,qs),
(181,467,o),
(244,467,qs),
(297,467,o),
(297,378,qs),
(297,307,ls),
(297,290,o)
);
},
{
closed = 1;
nodes = (
(279,97,qs),
(252,58,o),
(208,58,qs),
(159,58,o),
(159,129,qs),
(159,162,o),
(188,204,o),
(267,246,o),
(287,246,qs),
(297,246,o),
(297,234,qs),
(297,172,ls),
(297,123,o)
);
}
);
userData = {
assembly = "PUSHW[ ]	/* 1 value pushed */
10
CALL[ ]	/* CallFunction */
PUSHW[ ]	/* 1 value pushed */
61
MDAP[1]	/* MoveDirectAbsPt */
PUSHW[ ]	/* 1 value pushed */
62
MDAP[1]	/* MoveDirectAbsPt */
PUSHW[ ]	/* 1 value pushed */
18
MDRP[11100]	/* MoveDirectRelPt */
PUSHW[ ]	/* 1 value pushed */
1
MDRP[11100]	/* MoveDirectRelPt */
PUSHW[ ]	/* 1 value pushed */
61
SRP0[ ]	/* SetRefPoint0 */
PUSHW[ ]	/* 1 value pushed */
41
MDRP[10000]	/* MoveDirectRelPt */
PUSHW[ ]	/* 1 value pushed */
41
MDAP[1]	/* MoveDirectAbsPt */
PUSHW[ ]	/* 1 value pushed */
11
MDRP[10000]	/* MoveDirectRelPt */
PUSHW[ ]	/* 1 value pushed */
11
MDAP[1]	/* MoveDirectAbsPt */
PUSHW[ ]	/* 1 value pushed */
1
SRP0[ ]	/* SetRefPoint0 */
PUSHW[ ]	/* 1 value pushed */
34
MDRP[10000]	/* MoveDirectRelPt */
PUSHW[ ]	/* 1 value pushed */
34
MDAP[1]	/* MoveDirectAbsPt */
PUSHW[ ]	/* 1 value pushed */
1
SRP0[ ]	/* SetRefPoint0 */
PUSHW[ ]	/* 1 value pushed */
48
MDRP[10000]	/* MoveDirectRelPt */
PUSHW[ ]	/* 1 value pushed */
41
SRP0[ ]	/* SetRefPoint0 */
PUSHW[ ]	/* 1 value pushed */
55
MDRP[11100]	/* MoveDirectRelPt */
NPUSHW[ ]	/* 21 values pushed */
102 55 118 55 134 55 150 55 166 55 182 55 198 55 214 55 230 55 246 55 10
DELTAP1[ ]	/* DeltaExceptionP1 */
NPUSHW[ ]	/* 7 values pushed */
6 55 22 55 38 55 3
DELTAP2[ ]	/* DeltaExceptionP2 */
NPUSHW[ ]	/* 5 values pushed */
53 55 69 55 2
DELTAP2[ ]	/* DeltaExceptionP2 */
SVTCA[0]	/* SetFreedomAndProjectionVectorToAxis */
PUSHW[ ]	/* 1 value pushed */
37
RCVT[ ]	/* ReadCVT */
IF[ ]	/* If */
PUSHW[ ]	/* 1 value pushed */
16
MDAP[1]	/* MoveDirectAbsPt */
ELSE[ ]	/* Else */
PUSHW[ ]	/* 2 values pushed */
16 42
MIAP[0]	/* MoveIndirectAbsPt */
EIF[ ]	/* EndIf */
PUSHW[ ]	/* 1 value pushed */
37
RCVT[ ]	/* ReadCVT */
IF[ ]	/* If */
PUSHW[ ]	/* 1 value pushed */
30
MDAP[1]	/* MoveDirectAbsPt */
ELSE[ ]	/* Else */
PUSHW[ ]	/* 2 values pushed */
30 38
MIAP[0]	/* MoveIndirectAbsPt */
EIF[ ]	/* EndIf */
PUSHW[ ]	/* 1 value pushed */
37
RCVT[ ]	/* ReadCVT */
IF[ ]	/* If */
PUSHW[ ]	/* 1 value pushed */
38
MDAP[1]	/* MoveDirectAbsPt */
ELSE[ ]	/* Else */
PUSHW[ ]	/* 2 values pushed */
38 38
MIAP[0]	/* MoveIndirectAbsPt */
EIF[ ]	/* EndIf */
PUSHW[ ]	/* 1 value pushed */
16
SRP0[ ]	/* SetRefPoint0 */
PUSHW[ ]	/* 1 value pushed */
3
MDRP[11100]	/* MoveDirectRelPt */
NPUSHW[ ]	/* 5 values pushed */
57 3 73 3 2
DELTAP2[ ]	/* DeltaExceptionP2 */
NPUSHW[ ]	/* 21 values pushed */
104 3 120 3 136 3 152 3 168 3 184 3 200 3 216 3 232 3 248 3 10
DELTAP1[ ]	/* DeltaExceptionP1 */
NPUSHW[ ]	/* 7 values pushed */
8 3 24 3 40 3 3
DELTAP2[ ]	/* DeltaExceptionP2 */
PUSHW[ ]	/* 1 value pushed */
30
SRP0[ ]	/* SetRefPoint0 */
PUSHW[ ]	/* 1 value pushed */
21
MDRP[11100]	/* MoveDirectRelPt */
NPUSHW[ ]	/* 21 values pushed */
103 21 119 21 135 21 151 21 167 21 183 21 199 21 215 21 231 21 247 21 10
DELTAP1[ ]	/* DeltaExceptionP1 */
NPUSHW[ ]	/* 7 values pushed */
7 21 23 21 39 21 3
DELTAP2[ ]	/* DeltaExceptionP2 */
NPUSHW[ ]	/* 5 values pushed */
54 21 70 21 2
DELTAP2[ ]	/* DeltaExceptionP2 */
PUSHW[ ]	/* 1 value pushed */
57
MDRP[10000]	/* MoveDirectRelPt */
IUP[0]	/* InterpolateUntPts */
IUP[1]	/* InterpolateUntPts */";
};
width = 490;
}
);
note = a;
},
{
glyphname = a.008;
layers = (
{
layerId = m01;
shapes = (
{
closed = 1;
nodes = (
(308,395,qs),
(272,426,o),
(213,426,qs),
(191,426,o),
(98,363,qs),
(53,332,o),
(53,303,qs),
(53,272,o),
(64,272,qs),
(65,272,o),
(69,274,qs),
(83,282,o),
(93,288,qs),
(120,303,o),
(120,307,qs),
(119,311,o),
(118,313,qs),
(116,319,o),
(116,326,qs),
(116,342,o),
(160,364,o),
(191,364,qs),
(224,364,o),
(247,343,qs),
(266,325,o),
(266,277,qs),
(266,237,o),
(267,231,qs),
(267,228,ls),
(267,221,o),
(240,211,qs),
(171,186,o),
(47,136,o),
(47,95,qs),
(47,78,o),
(66,20,o),
(76,6,qs),
(93,-18,o),
(129,-18,qs),
(185,-18,o),
(239,36,qs),
(266,63,l),
(268,63,o),
(268,59,qs),
(272,18,o),
(284,6,qs),
(305,-16,o),
(338,-16,qs),
(366,-16,o),
(386,2,qs),
(395,10,o),
(416,54,o),
(416,64,qs),
(416,72,o),
(402,72,qs),
(398,72,o),
(396,68,qs),
(382,46,o),
(365,46,qs),
(337,46,o),
(337,121,qs),
(337,233,o),
(338,253,qs),
(339,260,o),
(339,271,qs),
(339,278,ls),
(338,287,o),
(338,294,qs),
(339,320,ls),
(341,367,o)
);
},
{
closed = 1;
nodes = (
(268,100,o),
(260,89,o),
(236,68,qs),
(198,35,o),
(172,35,qs),
(149,35,o),
(137,50,qs),
(122,68,o),
(122,104,qs),
(122,129,o),
(159,147,qs),
(192,163,l),
(207,171,ls),
(225,181,o),
(251,190,o),
(252,190,q),
(257,194,o),
(263,194,qs),
(266,194,o),
(266,189,qs),
(266,129,l),
(267,112,ls)
);
}
);
userData = {
assembly = "PUSHW[ ]	/* 1 value pushed */
10
CALL[ ]	/* CallFunction */
PUSHW[ ]	/* 3 values pushed */
8 70 13
CALL[ ]	/* CallFunction */
PUSHW[ ]	/* 1 value pushed */
8
SRP0[ ]	/* SetRefPoint0 */
PUSHW[ ]	/* 1 value pushed */
0
MDRP[10000]	/* MoveDirectRelPt */
PUSHW[ ]	/* 1 value pushed */
0
MDAP[1]	/* MoveDirectAbsPt */
PUSHW[ ]	/* 1 value pushed */
8
SRP0[ ]	/* SetRefPoint0 */
PUSHW[ ]	/* 1 value pushed */
3
MDRP[10000]	/* MoveDirectRelPt */
PUSHW[ ]	/* 1 value pushed */
3
MDAP[1]	/* MoveDirectAbsPt */
PUSHW[ ]	/* 1 value pushed */
8
SRP0[ ]	/* SetRefPoint0 */
PUSHW[ ]	/* 1 value pushed */
6
MDRP[10000]	/* MoveDirectRelPt */
PUSHW[ ]	/* 1 value pushed */
6
MDAP[1]	/* MoveDirectAbsPt */
PUSHW[ ]	/* 1 value pushed */
70
SRP0[ ]	/* SetRefPoint0 */
PUSHW[ ]	/* 1 value pushed */
25
MDRP[10000]	/* MoveDirectRelPt */
PUSHW[ ]	/* 1 value pushed */
25
MDAP[1]	/* MoveDirectAbsPt */
PUSHW[ ]	/* 1 value pushed */
70
SRP0[ ]	/* SetRefPoint0 */
PUSHW[ ]	/* 1 value pushed */
40
MDRP[10000]	/* MoveDirectRelPt */
PUSHW[ ]	/* 1 value pushed */
40
MDAP[1]	/* MoveDirectAbsPt */
PUSHW[ ]	/* 1 value pushed */
70
SRP0[ ]	/* SetRefPoint0 */
PUSHW[ ]	/* 1 value pushed */
43
MDRP[10000]	/* MoveDirectRelPt */
PUSHW[ ]	/* 1 value pushed */
8
SRP0[ ]	/* SetRefPoint0 */
PUSHW[ ]	/* 1 value pushed */
93
MDRP[11100]	/* MoveDirectRelPt */
SVTCA[0]	/* SetFreedomAndProjectionVectorToAxis */
PUSHW[ ]	/* 1 value pushed */
37
RCVT[ ]	/* ReadCVT */
IF[ ]	/* If */
PUSHW[ ]	/* 1 value pushed */
66
MDAP[1]	/* MoveDirectAbsPt */
ELSE[ ]	/* Else */
PUSHW[ ]	/* 2 values pushed */
66 42
MIAP[0]	/* MoveIndirectAbsPt */
EIF[ ]	/* EndIf */
PUSHW[ ]	/* 1 value pushed */
37
RCVT[ ]	/* ReadCVT */
IF[ ]	/* If */
PUSHW[ ]	/* 1 value pushed */
21
MDAP[1]	/* MoveDirectAbsPt */
ELSE[ ]	/* Else */
PUSHW[ ]	/* 2 values pushed */
21 38
MIAP[0]	/* MoveIndirectAbsPt */
EIF[ ]	/* EndIf */
PUSHW[ ]	/* 1 value pushed */
37
RCVT[ ]	/* ReadCVT */
IF[ ]	/* If */
PUSHW[ ]	/* 1 value pushed */
30
MDAP[1]	/* MoveDirectAbsPt */
ELSE[ ]	/* Else */
PUSHW[ ]	/* 2 values pushed */
30 38
MIAP[0]	/* MoveIndirectAbsPt */
EIF[ ]	/* EndIf */
PUSHW[ ]	/* 3 values pushed */
27 30 66
SRP1[ ]	/* SetRefPoint1 */
SRP2[ ]	/* SetRefPoint2 */
IP[ ]	/* InterpolatePts */
PUSHW[ ]	/* 1 value pushed */
66
SRP0[ ]	/* SetRefPoint0 */
PUSHW[ ]	/* 1 value pushed */
47
MDRP[11100]	/* MoveDirectRelPt */
NPUSHW[ ]	/* 5 values pushed */
57 47 73 47 2
DELTAP2[ ]	/* DeltaExceptionP2 */
NPUSHW[ ]	/* 21 values pushed */
104 47 120 47 136 47 152 47 168 47 184 47 200 47 216 47 232 47 248 47 10
DELTAP1[ ]	/* DeltaExceptionP1 */
NPUSHW[ ]	/* 7 values pushed */
8 47 24 47 40 47 3
DELTAP2[ ]	/* DeltaExceptionP2 */
IUP[0]	/* InterpolateUntPts */
IUP[1]	/* InterpolateUntPts */";
};
width = 428;
}
);
note = a;
},
{
glyphname = a.009;
layers = (
{
layerId = m01;
shapes = (
{
closed = 1;
nodes = (
(137,183,qs),
(39,128,o),
(39,62,qs),
(39,25,o),
(83,-17,o),
(121,-17,qs),
(195,-17,o),
(268,53,q),
(293,-17,o),
(326,-17,qs),
(366,-17,o),
(396,39,q),
(392,49,o),
(392,62,q),
(373,32,o),
(355,32,qs),
(330,32,o),
(331,103,qs),
(333,259,l),
(333,268,ls),
(333,333,o),
(322,362,qs),
(303,411,o),
(244,411,qs),
(179,411,o),
(43,310,o),
(43,262,qs),
(43,238,o),
(62,238,qs),
(90,238,o),
(106,253,qs),
(117,263,o),
(119,291,qs),
(122,331,o),
(138,347,qs),
(166,375,o),
(209,375,qs),
(240,375,o),
(265,325,o),
(265,263,qs),
(265,241,l),
(170,202,o)
);
},
{
closed = 1;
nodes = (
(265,85,o),
(236,53,o),
(188,29,o),
(170,29,qs),
(113,29,o),
(113,81,qs),
(113,115,o),
(147,144,qs),
(172,165,o),
(256,212,qs),
(265,217,l),
(265,142,ls)
);
}
);
userData = {
assembly = "PUSHW[ ]	/* 1 value pushed */
10
CALL[ ]	/* CallFunction */
PUSHW[ ]	/* 1 value pushed */
54
MDAP[1]	/* MoveDirectAbsPt */
PUSHW[ ]	/* 1 value pushed */
55
MDAP[1]	/* MoveDirectAbsPt */
PUSHW[ ]	/* 1 value pushed */
22
MDRP[11100]	/* MoveDirectRelPt */
PUSHW[ ]	/* 1 value pushed */
1
MDRP[11100]	/* MoveDirectRelPt */
PUSHW[ ]	/* 1 value pushed */
54
SRP0[ ]	/* SetRefPoint0 */
PUSHW[ ]	/* 1 value pushed */
38
MDRP[10000]	/* MoveDirectRelPt */
PUSHW[ ]	/* 1 value pushed */
38
MDAP[1]	/* MoveDirectAbsPt */
PUSHW[ ]	/* 1 value pushed */
47
MDRP[11100]	/* MoveDirectRelPt */
NPUSHW[ ]	/* 21 values pushed */
102 47 118 47 134 47 150 47 166 47 182 47 198 47 214 47 230 47 246 47 10
DELTAP1[ ]	/* DeltaExceptionP1 */
NPUSHW[ ]	/* 7 values pushed */
6 47 22 47 38 47 3
DELTAP2[ ]	/* DeltaExceptionP2 */
NPUSHW[ ]	/* 5 values pushed */
53 47 69 47 2
DELTAP2[ ]	/* DeltaExceptionP2 */
PUSHW[ ]	/* 1 value pushed */
8
MDRP[10000]	/* MoveDirectRelPt */
PUSHW[ ]	/* 1 value pushed */
8
MDAP[1]	/* MoveDirectAbsPt */
PUSHW[ ]	/* 1 value pushed */
47
SRP0[ ]	/* SetRefPoint0 */
PUSHW[ ]	/* 1 value pushed */
10
MDRP[10000]	/* MoveDirectRelPt */
PUSHW[ ]	/* 1 value pushed */
10
MDAP[1]	/* MoveDirectAbsPt */
PUSHW[ ]	/* 1 value pushed */
38
SRP0[ ]	/* SetRefPoint0 */
PUSHW[ ]	/* 1 value pushed */
14
MDRP[10000]	/* MoveDirectRelPt */
PUSHW[ ]	/* 1 value pushed */
14
MDAP[1]	/* MoveDirectAbsPt */
PUSHW[ ]	/* 1 value pushed */
22
SRP0[ ]	/* SetRefPoint0 */
PUSHW[ ]	/* 1 value pushed */
31
MDRP[10000]	/* MoveDirectRelPt */
PUSHW[ ]	/* 1 value pushed */
31
MDAP[1]	/* MoveDirectAbsPt */
PUSHW[ ]	/* 1 value pushed */
1
SRP0[ ]	/* SetRefPoint0 */
PUSHW[ ]	/* 1 value pushed */
33
MDRP[10000]	/* MoveDirectRelPt */
PUSHW[ ]	/* 1 value pushed */
33
MDAP[1]	/* MoveDirectAbsPt */
PUSHW[ ]	/* 1 value pushed */
1
SRP0[ ]	/* SetRefPoint0 */
PUSHW[ ]	/* 1 value pushed */
42
MDRP[10000]	/* MoveDirectRelPt */
SVTCA[0]	/* SetFreedomAndProjectionVectorToAxis */
PUSHW[ ]	/* 1 value pushed */
33
RCVT[ ]	/* ReadCVT */
IF[ ]	/* If */
PUSHW[ ]	/* 1 value pushed */
17
MDAP[1]	/* MoveDirectAbsPt */
ELSE[ ]	/* Else */
PUSHW[ ]	/* 2 values pushed */
17 38
MIAP[0]	/* MoveIndirectAbsPt */
EIF[ ]	/* EndIf */
PUSHW[ ]	/* 1 value pushed */
33
RCVT[ ]	/* ReadCVT */
IF[ ]	/* If */
PUSHW[ ]	/* 1 value pushed */
31
MDAP[1]	/* MoveDirectAbsPt */
ELSE[ ]	/* Else */
PUSHW[ ]	/* 2 values pushed */
31 34
MIAP[0]	/* MoveIndirectAbsPt */
EIF[ ]	/* EndIf */
PUSHW[ ]	/* 1 value pushed */
33
RCVT[ ]	/* ReadCVT */
IF[ ]	/* If */
PUSHW[ ]	/* 1 value pushed */
35
MDAP[1]	/* MoveDirectAbsPt */
ELSE[ ]	/* Else */
PUSHW[ ]	/* 2 values pushed */
35 34
MIAP[0]	/* MoveIndirectAbsPt */
EIF[ ]	/* EndIf */
PUSHW[ ]	/* 1 value pushed */
17
SRP0[ ]	/* SetRefPoint0 */
PUSHW[ ]	/* 1 value pushed */
4
MDRP[11100]	/* MoveDirectRelPt */
NPUSHW[ ]	/* 5 values pushed */
57 4 73 4 2
DELTAP2[ ]	/* DeltaExceptionP2 */
NPUSHW[ ]	/* 21 values pushed */
104 4 120 4 136 4 152 4 168 4 184 4 200 4 216 4 232 4 248 4 10
DELTAP1[ ]	/* DeltaExceptionP1 */
NPUSHW[ ]	/* 7 values pushed */
8 4 24 4 40 4 3
DELTAP2[ ]	/* DeltaExceptionP2 */
PUSHW[ ]	/* 1 value pushed */
31
SRP0[ ]	/* SetRefPoint0 */
PUSHW[ ]	/* 1 value pushed */
25
MDRP[11100]	/* MoveDirectRelPt */
NPUSHW[ ]	/* 21 values pushed */
103 25 119 25 135 25 151 25 167 25 183 25 199 25 215 25 231 25 247 25 10
DELTAP1[ ]	/* DeltaExceptionP1 */
NPUSHW[ ]	/* 7 values pushed */
7 25 23 25 39 25 3
DELTAP2[ ]	/* DeltaExceptionP2 */
NPUSHW[ ]	/* 5 values pushed */
54 25 70 25 2
DELTAP2[ ]	/* DeltaExceptionP2 */
PUSHW[ ]	/* 3 values pushed */
27 31 17
SRP1[ ]	/* SetRefPoint1 */
SRP2[ ]	/* SetRefPoint2 */
IP[ ]	/* InterpolatePts */
PUSHW[ ]	/* 3 values pushed */
33 31 17
SRP1[ ]	/* SetRefPoint1 */
SRP2[ ]	/* SetRefPoint2 */
IP[ ]	/* InterpolatePts */
PUSHW[ ]	/* 3 values pushed */
42 31 17
SRP1[ ]	/* SetRefPoint1 */
SRP2[ ]	/* SetRefPoint2 */
IP[ ]	/* InterpolatePts */
PUSHW[ ]	/* 1 value pushed */
49
MDRP[10000]	/* MoveDirectRelPt */
IUP[0]	/* InterpolateUntPts */
IUP[1]	/* InterpolateUntPts */";
};
width = 419;
}
);
note = a;
},
{
glyphname = a.010;
layers = (
{
layerId = m01;
shapes = (
{
closed = 1;
nodes = (
(122,189,o),
(82,171,o),
(54,149,o),
(40,118,o),
(40,94,qs),
(40,45,o),
(99,-9,o),
(142,-9,qs),
(167,-9,o),
(210,7,o),
(244,30,o),
(267,52,o),
(273,58,q),
(274,49,o),
(278,25,o),
(289,4,o),
(310,-10,o),
(328,-10,qs),
(373,-10,o),
(426,35,q),
(412,57,l),
(404,50,o),
(387,39,o),
(376,39,qs),
(354,39,o),
(346,85,o),
(346,118,qs),
(346,129,o),
(347,181,o),
(349,238,o),
(350,289,o),
(350,299,qs),
(350,349,o),
(337,406,o),
(313,428,qs),
(295,445,o),
(256,456,o),
(233,456,qs),
(219,456,l),
(181,436,o),
(111,393,o),
(84,372,qs),
(73,364,o),
(61,345,o),
(56,329,o),
(55,318,o),
(55,317,qs),
(55,313,o),
(59,304,o),
(67,304,qs),
(68,304,o),
(82,307,o),
(98,312,o),
(113,319,o),
(116,324,qs),
(118,327,o),
(120,337,qs),
(121,345,o),
(123,358,o),
(131,370,o),
(147,382,o),
(161,390,qs),
(167,393,o),
(192,403,o),
(209,403,qs),
(232,403,o),
(257,380,o),
(270,348,o),
(273,312,o),
(273,300,qs),
(273,244,l),
(149,199,ls)
);
},
{
closed = 1;
nodes = (
(248,70,o),
(202,44,o),
(181,44,qs),
(153,44,o),
(122,82,o),
(122,106,qs),
(122,125,o),
(137,151,o),
(173,174,o),
(230,197,o),
(272,212,q),
(272,94,l)
);
}
);
userData = {
assembly = "PUSHW[ ]	/* 4 values pushed */
77 2 66 4
CALL[ ]	/* CallFunction */
PUSHW[ ]	/* 4 values pushed */
44 2 83 4
CALL[ ]	/* CallFunction */
PUSHW[ ]	/* 1 value pushed */
83
SRP0[ ]	/* SetRefPoint0 */
PUSHW[ ]	/* 1 value pushed */
0
MDRP[10000]	/* MoveDirectRelPt */
PUSHW[ ]	/* 1 value pushed */
0
MDAP[1]	/* MoveDirectAbsPt */
NPUSHW[ ]	/* 17 values pushed */
6 77 22 77 38 77 54 77 70 77 86 77 102 77 118 77 8
DELTAP1[ ]	/* DeltaExceptionP1 */
NPUSHW[ ]	/* 5 values pushed */
133 77 149 77 2
DELTAP1[ ]	/* DeltaExceptionP1 */
PUSHW[ ]	/* 1 value pushed */
77
SRP0[ ]	/* SetRefPoint0 */
PUSHW[ ]	/* 2 values pushed */
24 2
MIRP[11100]	/* MoveIndirectRelPt */
PUSHW[ ]	/* 1 value pushed */
44
SRP0[ ]	/* SetRefPoint0 */
PUSHW[ ]	/* 1 value pushed */
39
MDRP[10000]	/* MoveDirectRelPt */
PUSHW[ ]	/* 1 value pushed */
39
MDAP[1]	/* MoveDirectAbsPt */
PUSHW[ ]	/* 1 value pushed */
83
SRP0[ ]	/* SetRefPoint0 */
PUSHW[ ]	/* 1 value pushed */
58
MDRP[10000]	/* MoveDirectRelPt */
PUSHW[ ]	/* 1 value pushed */
58
MDAP[1]	/* MoveDirectAbsPt */
PUSHW[ ]	/* 1 value pushed */
44
SRP0[ ]	/* SetRefPoint0 */
PUSHW[ ]	/* 1 value pushed */
85
MDRP[11100]	/* MoveDirectRelPt */
SVTCA[0]	/* SetFreedomAndProjectionVectorToAxis */
PUSHW[ ]	/* 1 value pushed */
0
RCVT[ ]	/* ReadCVT */
IF[ ]	/* If */
PUSHW[ ]	/* 1 value pushed */
32
MDAP[1]	/* MoveDirectAbsPt */
ELSE[ ]	/* Else */
PUSHW[ ]	/* 2 values pushed */
32 14
MIAP[0]	/* MoveIndirectAbsPt */
EIF[ ]	/* EndIf */
PUSHW[ ]	/* 1 value pushed */
0
RCVT[ ]	/* ReadCVT */
IF[ ]	/* If */
PUSHW[ ]	/* 1 value pushed */
53
MDAP[1]	/* MoveDirectAbsPt */
ELSE[ ]	/* Else */
PUSHW[ ]	/* 2 values pushed */
53 4
MIAP[0]	/* MoveIndirectAbsPt */
EIF[ ]	/* EndIf */
PUSHW[ ]	/* 1 value pushed */
0
RCVT[ ]	/* ReadCVT */
IF[ ]	/* If */
PUSHW[ ]	/* 1 value pushed */
63
MDAP[1]	/* MoveDirectAbsPt */
ELSE[ ]	/* Else */
PUSHW[ ]	/* 2 values pushed */
63 4
MIAP[0]	/* MoveIndirectAbsPt */
EIF[ ]	/* EndIf */
PUSHW[ ]	/* 1 value pushed */
32
SRP0[ ]	/* SetRefPoint0 */
PUSHW[ ]	/* 2 values pushed */
6 1
MIRP[11100]	/* MoveIndirectRelPt */
NPUSHW[ ]	/* 5 values pushed */
153 6 169 6 2
DELTAP2[ ]	/* DeltaExceptionP2 */
NPUSHW[ ]	/* 33 values pushed */
8 6 24 6 40 6 56 6 72 6 88 6 104 6 120 6 136 6 152 6 168 6 184 6 200 6 216 6 232 6 248 6 16
DELTAP1[ ]	/* DeltaExceptionP1 */
NPUSHW[ ]	/* 19 values pushed */
8 6 24 6 40 6 56 6 72 6 88 6 104 6 120 6 136 6 9
DELTAP2[ ]	/* DeltaExceptionP2 */
PUSHW[ ]	/* 1 value pushed */
53
SRP0[ ]	/* SetRefPoint0 */
PUSHW[ ]	/* 2 values pushed */
47 1
MIRP[11100]	/* MoveIndirectRelPt */
NPUSHW[ ]	/* 33 values pushed */
7 47 23 47 39 47 55 47 71 47 87 47 103 47 119 47 135 47 151 47 167 47 183 47 199 47 215 47 231 47 247 47 16
DELTAP1[ ]	/* DeltaExceptionP1 */
NPUSHW[ ]	/* 19 values pushed */
7 47 23 47 39 47 55 47 71 47 87 47 103 47 119 47 135 47 9
DELTAP2[ ]	/* DeltaExceptionP2 */
NPUSHW[ ]	/* 5 values pushed */
150 47 166 47 2
DELTAP2[ ]	/* DeltaExceptionP2 */
PUSHW[ ]	/* 3 values pushed */
58 53 32
SRP1[ ]	/* SetRefPoint1 */
SRP2[ ]	/* SetRefPoint2 */
IP[ ]	/* InterpolatePts */
PUSHW[ ]	/* 3 values pushed */
72 53 32
SRP1[ ]	/* SetRefPoint1 */
SRP2[ ]	/* SetRefPoint2 */
IP[ ]	/* InterpolatePts */
PUSHW[ ]	/* 1 value pushed */
80
MDRP[10000]	/* MoveDirectRelPt */
PUSHW[ ]	/* 1 value pushed */
80
MDAP[1]	/* MoveDirectAbsPt */
IUP[0]	/* InterpolateUntPts */
IUP[1]	/* InterpolateUntPts */";
};
width = 437;
}
);
note = a;
},
{
glyphname = a.011;
layers = (
{
layerId = m01;
shapes = (
{
closed = 1;
nodes = (
(40,62,qs),
(40,27,o),
(87,-15,o),
(125,-15,qs),
(214,-15,o),
(274,52,q),
(275,-13,o),
(332,-13,qs),
(378,-13,o),
(410,21,qs),
(439,52,o),
(439,76,qs),
(439,91,o),
(423,91,qs),
(412,91,o),
(408,82,qs),
(402,71,ls),
(388,46,o),
(372,46,qs),
(357,46,o),
(350,79,o),
(351,135,qs),
(354,332,l),
(354,339,ls),
(354,395,o),
(307,442,o),
(248,442,qs),
(162,442,o),
(105,383,qs),
(87,364,o),
(58,310,o),
(58,295,qs),
(58,280,o),
(80,279,qs),
(95,278,l),
(98,278,ls),
(123,278,o),
(127,302,qs),
(130,318,ls),
(138,359,o),
(191,408,o),
(227,408,qs),
(279,408,o),
(278,331,qs),
(277,254,l),
(40,167,o)
);
},
{
closed = 1;
nodes = (
(242,70,qs),
(203,40,o),
(171,40,qs),
(152,40,o),
(126,67,o),
(126,87,qs),
(126,133,o),
(188,175,qs),
(221,197,o),
(277,220,q),
(275,122,ls),
(274,95,o)
);
}
);
userData = {
assembly = "PUSHW[ ]	/* 1 value pushed */
10
CALL[ ]	/* CallFunction */
PUSHW[ ]	/* 1 value pushed */
58
MDAP[1]	/* MoveDirectAbsPt */
PUSHW[ ]	/* 1 value pushed */
59
MDAP[1]	/* MoveDirectAbsPt */
PUSHW[ ]	/* 1 value pushed */
23
MDRP[11100]	/* MoveDirectRelPt */
PUSHW[ ]	/* 1 value pushed */
46
MDRP[11100]	/* MoveDirectRelPt */
PUSHW[ ]	/* 1 value pushed */
0
MDRP[10000]	/* MoveDirectRelPt */
PUSHW[ ]	/* 1 value pushed */
0
MDAP[1]	/* MoveDirectAbsPt */
PUSHW[ ]	/* 1 value pushed */
58
SRP0[ ]	/* SetRefPoint0 */
PUSHW[ ]	/* 1 value pushed */
44
MDRP[10000]	/* MoveDirectRelPt */
PUSHW[ ]	/* 1 value pushed */
44
MDAP[1]	/* MoveDirectAbsPt */
PUSHW[ ]	/* 1 value pushed */
51
MDRP[11100]	/* MoveDirectRelPt */
NPUSHW[ ]	/* 21 values pushed */
102 51 118 51 134 51 150 51 166 51 182 51 198 51 214 51 230 51 246 51 10
DELTAP1[ ]	/* DeltaExceptionP1 */
NPUSHW[ ]	/* 7 values pushed */
6 51 22 51 38 51 3
DELTAP2[ ]	/* DeltaExceptionP2 */
NPUSHW[ ]	/* 5 values pushed */
53 51 69 51 2
DELTAP2[ ]	/* DeltaExceptionP2 */
PUSHW[ ]	/* 1 value pushed */
6
MDRP[10000]	/* MoveDirectRelPt */
PUSHW[ ]	/* 1 value pushed */
6
MDAP[1]	/* MoveDirectAbsPt */
PUSHW[ ]	/* 1 value pushed */
23
SRP0[ ]	/* SetRefPoint0 */
PUSHW[ ]	/* 1 value pushed */
21
MDRP[10000]	/* MoveDirectRelPt */
PUSHW[ ]	/* 1 value pushed */
21
MDAP[1]	/* MoveDirectAbsPt */
PUSHW[ ]	/* 1 value pushed */
46
SRP0[ ]	/* SetRefPoint0 */
PUSHW[ ]	/* 1 value pushed */
39
MDRP[10000]	/* MoveDirectRelPt */
PUSHW[ ]	/* 1 value pushed */
39
MDAP[1]	/* MoveDirectAbsPt */
PUSHW[ ]	/* 1 value pushed */
51
SRP0[ ]	/* SetRefPoint0 */
PUSHW[ ]	/* 1 value pushed */
41
MDRP[10000]	/* MoveDirectRelPt */
PUSHW[ ]	/* 1 value pushed */
41
MDAP[1]	/* MoveDirectAbsPt */
SVTCA[0]	/* SetFreedomAndProjectionVectorToAxis */
PUSHW[ ]	/* 1 value pushed */
35
RCVT[ ]	/* ReadCVT */
IF[ ]	/* If */
PUSHW[ ]	/* 1 value pushed */
18
MDAP[1]	/* MoveDirectAbsPt */
ELSE[ ]	/* Else */
PUSHW[ ]	/* 2 values pushed */
18 40
MIAP[0]	/* MoveIndirectAbsPt */
EIF[ ]	/* EndIf */
PUSHW[ ]	/* 1 value pushed */
35
RCVT[ ]	/* ReadCVT */
IF[ ]	/* If */
PUSHW[ ]	/* 1 value pushed */
37
MDAP[1]	/* MoveDirectAbsPt */
ELSE[ ]	/* Else */
PUSHW[ ]	/* 2 values pushed */
37 36
MIAP[0]	/* MoveIndirectAbsPt */
EIF[ ]	/* EndIf */
PUSHW[ ]	/* 1 value pushed */
35
RCVT[ ]	/* ReadCVT */
IF[ ]	/* If */
PUSHW[ ]	/* 1 value pushed */
41
MDAP[1]	/* MoveDirectAbsPt */
ELSE[ ]	/* Else */
PUSHW[ ]	/* 2 values pushed */
41 36
MIAP[0]	/* MoveIndirectAbsPt */
EIF[ ]	/* EndIf */
PUSHW[ ]	/* 1 value pushed */
18
SRP0[ ]	/* SetRefPoint0 */
PUSHW[ ]	/* 1 value pushed */
3
MDRP[11100]	/* MoveDirectRelPt */
NPUSHW[ ]	/* 5 values pushed */
57 3 73 3 2
DELTAP2[ ]	/* DeltaExceptionP2 */
NPUSHW[ ]	/* 21 values pushed */
104 3 120 3 136 3 152 3 168 3 184 3 200 3 216 3 232 3 248 3 10
DELTAP1[ ]	/* DeltaExceptionP1 */
NPUSHW[ ]	/* 7 values pushed */
8 3 24 3 40 3 3
DELTAP2[ ]	/* DeltaExceptionP2 */
PUSHW[ ]	/* 3 values pushed */
39 41 18
SRP1[ ]	/* SetRefPoint1 */
SRP2[ ]	/* SetRefPoint2 */
IP[ ]	/* InterpolatePts */
PUSHW[ ]	/* 3 values pushed */
47 41 18
SRP1[ ]	/* SetRefPoint1 */
SRP2[ ]	/* SetRefPoint2 */
IP[ ]	/* InterpolatePts */
IUP[0]	/* InterpolateUntPts */
IUP[1]	/* InterpolateUntPts */";
};
width = 446;
}
);
note = a;
},
{
glyphname = b.001;
layers = (
{
layerId = m01;
shapes = (
{
closed = 1;
nodes = (
(149,321,o),
(153,344,o),
(161,349,qs),
(172,356,o),
(206,365,o),
(229,365,qs),
(266,365,o),
(323,337,o),
(361,287,o),
(381,221,o),
(381,182,qs),
(381,150,o),
(366,90,o),
(335,44,o),
(285,16,o),
(250,16,qs),
(201,16,o),
(174,49,qs),
(161,65,o),
(149,110,o),
(149,136,qs),
(149,292,ls)
);
},
{
closed = 1;
nodes = (
(75,48,o),
(74,13,o),
(73,2,q),
(76,-4,o),
(83,-4,qs),
(86,-4,o),
(87,-3,qs),
(91,2,o),
(102,12,o),
(108,12,qs),
(114,12,o),
(134,4,o),
(150,-1,qs),
(165,-6,o),
(207,-14,o),
(235,-14,qs),
(285,-14,o),
(370,19,o),
(431,79,o),
(465,162,o),
(465,212,qs),
(465,253,o),
(437,325,o),
(387,378,o),
(317,408,o),
(274,408,qs),
(237,408,o),
(179,386,o),
(159,375,q),
(154,375,o),
(149,383,o),
(149,396,qs),
(149,585,ls),
(149,618,o),
(151,683,o),
(153,709,q),
(150,715,o),
(143,715,q),
(129,707,o),
(98,695,o),
(68,685,o),
(43,676,o),
(34,673,qs),
(30,671,o),
(30,663,qs),
(30,655,o),
(34,653,qs),
(44,647,ls),
(55,640,o),
(68,629,o),
(74,613,o),
(75,586,o),
(75,564,qs),
(75,87,ls)
);
}
);
userData = {
assembly = "PUSHW[ ]	/* 1 value pushed */
77
MDAP[1]	/* MoveDirectAbsPt */
PUSHW[ ]	/* 4 values pushed */
42 2 22 4
CALL[ ]	/* CallFunction */
PUSHW[ ]	/* 1 value pushed */
42
SRP0[ ]	/* SetRefPoint0 */
PUSHW[ ]	/* 1 value pushed */
0
MDRP[10000]	/* MoveDirectRelPt */
PUSHW[ ]	/* 1 value pushed */
77
SRP0[ ]	/* SetRefPoint0 */
PUSHW[ ]	/* 1 value pushed */
54
MDRP[11100]	/* MoveDirectRelPt */
PUSHW[ ]	/* 2 values pushed */
10 3
MIRP[11100]	/* MoveIndirectRelPt */
NPUSHW[ ]	/* 5 values pushed */
154 10 170 10 2
DELTAP1[ ]	/* DeltaExceptionP1 */
NPUSHW[ ]	/* 19 values pushed */
9 10 25 10 41 10 57 10 73 10 89 10 105 10 121 10 137 10 9
DELTAP1[ ]	/* DeltaExceptionP1 */
PUSHW[ ]	/* 1 value pushed */
42
SRP0[ ]	/* SetRefPoint0 */
PUSHW[ ]	/* 1 value pushed */
37
MDRP[10000]	/* MoveDirectRelPt */
PUSHW[ ]	/* 1 value pushed */
37
MDAP[1]	/* MoveDirectAbsPt */
PUSHW[ ]	/* 1 value pushed */
42
SRP0[ ]	/* SetRefPoint0 */
PUSHW[ ]	/* 1 value pushed */
39
MDRP[10000]	/* MoveDirectRelPt */
PUSHW[ ]	/* 1 value pushed */
39
MDAP[1]	/* MoveDirectAbsPt */
PUSHW[ ]	/* 1 value pushed */
42
SRP0[ ]	/* SetRefPoint0 */
PUSHW[ ]	/* 1 value pushed */
62
MDRP[10000]	/* MoveDirectRelPt */
PUSHW[ ]	/* 1 value pushed */
62
MDAP[1]	/* MoveDirectAbsPt */
PUSHW[ ]	/* 1 value pushed */
22
SRP0[ ]	/* SetRefPoint0 */
PUSHW[ ]	/* 1 value pushed */
72
MDRP[10000]	/* MoveDirectRelPt */
PUSHW[ ]	/* 1 value pushed */
72
MDAP[1]	/* MoveDirectAbsPt */
SVTCA[0]	/* SetFreedomAndProjectionVectorToAxis */
PUSHW[ ]	/* 1 value pushed */
0
RCVT[ ]	/* ReadCVT */
IF[ ]	/* If */
PUSHW[ ]	/* 1 value pushed */
37
MDAP[1]	/* MoveDirectAbsPt */
ELSE[ ]	/* Else */
PUSHW[ ]	/* 2 values pushed */
37 16
MIAP[0]	/* MoveIndirectAbsPt */
EIF[ ]	/* EndIf */
PUSHW[ ]	/* 1 value pushed */
0
RCVT[ ]	/* ReadCVT */
IF[ ]	/* If */
PUSHW[ ]	/* 1 value pushed */
39
MDAP[1]	/* MoveDirectAbsPt */
ELSE[ ]	/* Else */
PUSHW[ ]	/* 2 values pushed */
39 16
MIAP[0]	/* MoveIndirectAbsPt */
EIF[ ]	/* EndIf */
PUSHW[ ]	/* 1 value pushed */
0
RCVT[ ]	/* ReadCVT */
IF[ ]	/* If */
PUSHW[ ]	/* 1 value pushed */
49
MDAP[1]	/* MoveDirectAbsPt */
ELSE[ ]	/* Else */
PUSHW[ ]	/* 2 values pushed */
49 10
MIAP[0]	/* MoveIndirectAbsPt */
EIF[ ]	/* EndIf */
PUSHW[ ]	/* 1 value pushed */
0
RCVT[ ]	/* ReadCVT */
IF[ ]	/* If */
PUSHW[ ]	/* 1 value pushed */
59
MDAP[1]	/* MoveDirectAbsPt */
ELSE[ ]	/* Else */
PUSHW[ ]	/* 2 values pushed */
59 4
MIAP[0]	/* MoveIndirectAbsPt */
EIF[ ]	/* EndIf */
PUSHW[ ]	/* 1 value pushed */
0
RCVT[ ]	/* ReadCVT */
IF[ ]	/* If */
PUSHW[ ]	/* 1 value pushed */
62
MDAP[1]	/* MoveDirectAbsPt */
ELSE[ ]	/* Else */
PUSHW[ ]	/* 2 values pushed */
62 4
MIAP[0]	/* MoveIndirectAbsPt */
EIF[ ]	/* EndIf */
PUSHW[ ]	/* 1 value pushed */
0
RCVT[ ]	/* ReadCVT */
IF[ ]	/* If */
PUSHW[ ]	/* 1 value pushed */
68
MDAP[1]	/* MoveDirectAbsPt */
ELSE[ ]	/* Else */
PUSHW[ ]	/* 2 values pushed */
68 4
MIAP[0]	/* MoveIndirectAbsPt */
EIF[ ]	/* EndIf */
PUSHW[ ]	/* 1 value pushed */
0
RCVT[ ]	/* ReadCVT */
IF[ ]	/* If */
PUSHW[ ]	/* 1 value pushed */
70
MDAP[1]	/* MoveDirectAbsPt */
ELSE[ ]	/* Else */
PUSHW[ ]	/* 2 values pushed */
70 4
MIAP[0]	/* MoveIndirectAbsPt */
EIF[ ]	/* EndIf */
PUSHW[ ]	/* 1 value pushed */
0
RCVT[ ]	/* ReadCVT */
IF[ ]	/* If */
PUSHW[ ]	/* 1 value pushed */
72
MDAP[1]	/* MoveDirectAbsPt */
ELSE[ ]	/* Else */
PUSHW[ ]	/* 2 values pushed */
72 4
MIAP[0]	/* MoveIndirectAbsPt */
EIF[ ]	/* EndIf */
PUSHW[ ]	/* 1 value pushed */
59
SRP0[ ]	/* SetRefPoint0 */
PUSHW[ ]	/* 2 values pushed */
5 1
MIRP[11100]	/* MoveIndirectRelPt */
NPUSHW[ ]	/* 33 values pushed */
7 5 23 5 39 5 55 5 71 5 87 5 103 5 119 5 135 5 151 5 167 5 183 5 199 5 215 5 231 5 247 5 16
DELTAP1[ ]	/* DeltaExceptionP1 */
NPUSHW[ ]	/* 23 values pushed */
7 5 23 5 39 5 55 5 71 5 87 5 103 5 119 5 135 5 151 5 167 5 11
DELTAP2[ ]	/* DeltaExceptionP2 */
NPUSHW[ ]	/* 5 values pushed */
182 5 198 5 2
DELTAP2[ ]	/* DeltaExceptionP2 */
PUSHW[ ]	/* 1 value pushed */
49
SRP0[ ]	/* SetRefPoint0 */
PUSHW[ ]	/* 2 values pushed */
15 1
MIRP[11100]	/* MoveIndirectRelPt */
NPUSHW[ ]	/* 5 values pushed */
185 15 201 15 2
DELTAP2[ ]	/* DeltaExceptionP2 */
NPUSHW[ ]	/* 33 values pushed */
8 15 24 15 40 15 56 15 72 15 88 15 104 15 120 15 136 15 152 15 168 15 184 15 200 15 216 15 232 15 248 15 16
DELTAP1[ ]	/* DeltaExceptionP1 */
NPUSHW[ ]	/* 23 values pushed */
8 15 24 15 40 15 56 15 72 15 88 15 104 15 120 15 136 15 152 15 168 15 11
DELTAP2[ ]	/* DeltaExceptionP2 */
PUSHW[ ]	/* 1 value pushed */
5
SRP0[ ]	/* SetRefPoint0 */
PUSHW[ ]	/* 1 value pushed */
65
MDRP[10000]	/* MoveDirectRelPt */
PUSHW[ ]	/* 1 value pushed */
65
MDAP[1]	/* MoveDirectAbsPt */
IUP[0]	/* InterpolateUntPts */
IUP[1]	/* InterpolateUntPts */";
};
width = 500;
}
);
note = b;
},
{
glyphname = b.002;
layers = (
{
hints = (
{
horizontal = 1;
place = (392,61);
type = Stem;
},
{
horizontal = 1;
place = (-8,43);
type = Stem;
},
{
place = (419,80);
type = Stem;
},
{
place = (79,76);
type = Stem;
}
);
layerId = m01;
shapes = (
{
closed = 1;
nodes = (
(145,759,l),
(23,702,l),
(21,673,l),
(65,664,l),
(74,648,l),
(79,621,l),
(79,155,l),
(77,-5,l),
(140,3,l),
(258,-10,l),
(302,-8,l),
(360,9,l),
(420,48,l),
(448,76,l),
(473,119,l),
(495,186,l),
(499,235,l),
(493,295,l),
(471,351,l),
(436,401,l),
(383,437,l),
(309,453,l),
(264,449,l),
(227,436,l),
(156,393,l),
(155,550,l),
(164,750,l)
);
},
{
closed = 1;
nodes = (
(156,359,l),
(194,377,l),
(261,392,l),
(310,383,l),
(356,361,l),
(389,321,l),
(407,279,l),
(419,216,l),
(402,129,l),
(372,79,l),
(343,56,l),
(315,42,l),
(269,35,l),
(218,45,l),
(187,65,l),
(163,103,l),
(156,154,l)
);
}
);
width = 542;
}
);
},
{
glyphname = b.003;
layers = (
{
hints = (
{
horizontal = 1;
place = (392,61);
type = Stem;
},
{
horizontal = 1;
place = (-8,43);
type = Stem;
},
{
place = (419,80);
type = Stem;
},
{
place = (79,76);
type = Stem;
}
);
layerId = m01;
shapes = (
{
closed = 1;
nodes = (
(145,759,l),
(23,702,l),
(21,673,l),
(65,664,l),
(74,648,l),
(79,621,l),
(79,155,l),
(77,-5,l),
(140,3,l),
(258,-10,l),
(302,-8,l),
(360,9,l),
(420,48,l),
(448,76,l),
(473,119,l),
(495,186,l),
(499,235,l),
(493,295,l),
(471,351,l),
(436,401,l),
(383,437,l),
(309,453,l),
(264,449,l),
(227,436,l),
(156,393,l),
(155,550,l),
(164,750,l)
);
},
{
closed = 1;
nodes = (
(156,359,l),
(194,377,l),
(261,392,l),
(310,383,l),
(356,361,l),
(389,321,l),
(407,279,l),
(419,216,l),
(402,129,l),
(372,79,l),
(343,56,l),
(315,42,l),
(269,35,l),
(218,45,l),
(187,65,l),
(163,103,l),
(156,154,l)
);
}
);
width = 542;
}
);
},
{
glyphname = b.004;
layers = (
{
hints = (
{
horizontal = 1;
place = (457,59);
type = Stem;
},
{
horizontal = 1;
place = (-18,31);
type = Stem;
},
{
place = (458,115);
type = Stem;
},
{
place = (72,105);
type = Stem;
}
);
layerId = m01;
shapes = (
{
closed = 1;
nodes = (
(177,604,l),
(177,692,l),
(178,713,l),
(180,731,l),
(175,746,l),
(162,751,l),
(137,743,l),
(56,714,l),
(17,702,l),
(2,689,l),
(12,674,l),
(26,673,l),
(33,673,l),
(49,669,l),
(68,648,l),
(73,608,l),
(74,544,l),
(74,442,l),
(73,302,l),
(73,72,l),
(69,27,l),
(66,-8,l),
(67,-23,l),
(78,-27,l),
(90,-20,l),
(115,23,l),
(124,29,l),
(128,30,l),
(190,6,l),
(240,-11,l),
(294,-12,l),
(359,-8,l),
(412,10,l),
(484,54,l),
(524,98,l),
(554,157,l),
(567,203,l),
(573,259,l),
(563,334,l),
(533,405,l),
(485,460,l),
(419,501,l),
(344,515,l),
(284,506,l),
(245,492,l),
(223,480,l),
(189,467,l),
(182,471,l),
(178,491,l)
);
},
{
closed = 1;
nodes = (
(178,119,l),
(178,392,l),
(186,432,l),
(223,449,l),
(267,456,l),
(322,446,l),
(371,422,l),
(412,384,l),
(443,332,l),
(459,224,l),
(452,160,l),
(438,116,l),
(412,70,l),
(378,40,l),
(344,22,l),
(294,12,l),
(232,25,l),
(206,39,l),
(187,62,l)
);
}
);
width = 604;
}
);
},
{
glyphname = b.005;
layers = (
{
hints = (
{
horizontal = 1;
place = (401,53);
type = Stem;
},
{
horizontal = 1;
place = (-10,40);
type = Stem;
},
{
horizontal = 1;
place = (768,21);
target = up;
type = BottomGhost;
},
{
place = (387,88);
type = Stem;
},
{
place = (58,76);
type = Stem;
}
);
layerId = m01;
shapes = (
{
closed = 1;
nodes = (
(72,-10,l),
(85,4,l),
(107,22,l),
(159,3,l),
(233,-11,l),
(289,-5,l),
(327,11,l),
(365,31,l),
(380,43,l),
(419,78,l),
(436,103,l),
(457,139,l),
(475,236,l),
(457,319,l),
(426,372,l),
(398,401,l),
(358,429,l),
(322,444,l),
(272,450,l),
(201,436,l),
(133,390,l),
(133,440,l),
(134,483,l),
(132,529,l),
(132,629,l),
(131,676,l),
(132,691,l),
(131,709,l),
(132,733,l),
(133,761,l),
(135,778,l),
(129,786,l),
(114,778,l),
(107,775,l),
(78,761,l),
(56,750,l),
(25,735,l),
(6,725,l),
(2,720,l),
(14,708,l),
(55,676,l),
(60,637,l),
(59,575,l),
(60,525,l),
(59,491,l),
(60,466,l),
(59,446,l),
(60,413,l),
(59,397,l),
(59,367,l),
(58,286,l),
(59,221,l),
(59,7,l),
(62,-13,l)
);
},
{
closed = 1;
nodes = (
(134,364,l),
(170,383,l),
(228,398,l),
(271,390,l),
(316,370,l),
(338,348,l),
(351,332,l),
(372,289,l),
(386,205,l),
(385,162,l),
(360,98,l),
(331,57,l),
(280,30,l),
(258,28,l),
(218,34,l),
(178,56,l),
(158,76,l),
(138,122,l),
(133,196,l)
);
}
);
width = 500;
}
);
},
{
glyphname = b.006;
layers = (
{
hints = (
{
horizontal = 1;
place = (404,50);
type = Stem;
},
{
horizontal = 1;
place = (-20,43);
type = Stem;
},
{
place = (403,72);
type = Stem;
},
{
place = (67,70);
type = Stem;
}
);
layerId = m01;
shapes = (
{
closed = 1;
nodes = (
(63,33,l),
(62,10,l),
(61,-18,l),
(65,-32,l),
(75,-34,l),
(94,-22,l),
(99,-12,l),
(122,19,l),
(131,22,l),
(148,16,l),
(182,3,l),
(253,-9,l),
(301,-8,l),
(338,5,l),
(398,45,l),
(436,89,l),
(454,123,l),
(467,159,l),
(475,217,l),
(465,284,l),
(448,330,l),
(416,382,l),
(393,405,l),
(359,431,l),
(311,447,l),
(278,450,l),
(232,444,l),
(185,428,l),
(155,411,l),
(141,409,l),
(143,461,l),
(142,594,l),
(141,663,l),
(142,712,l),
(141,730,l),
(139,744,l),
(120,757,l),
(46,725,l),
(11,698,l),
(19,690,l),
(30,686,l),
(56,674,l),
(70,643,l),
(70,598,l),
(68,381,l),
(67,310,l),
(67,289,l),
(66,271,l),
(66,259,l),
(65,210,l),
(66,148,l),
(63,88,l)
);
},
{
closed = 1;
nodes = (
(137,231,l),
(140,376,l),
(169,391,l),
(215,401,l),
(263,393,l),
(298,381,l),
(332,358,l),
(378,304,l),
(396,262,l),
(403,211,l),
(392,147,l),
(376,102,l),
(354,70,l),
(326,43,l),
(297,27,l),
(254,20,l),
(206,34,l),
(174,56,l),
(147,89,l),
(137,128,l)
);
}
);
width = 521;
}
);
},
{
glyphname = b.007;
layers = (
{
layerId = m01;
shapes = (
{
closed = 1;
nodes = (
(197,655,qs),
(199,684,o),
(199,698,qs),
(199,717,o),
(186,717,qs),
(179,717,o),
(172,713,q),
(96,682,o),
(39,669,qs),
(21,665,o),
(21,653,qs),
(21,641,o),
(40,640,qs),
(72,638,o),
(81,619,qs),
(87,608,o),
(87,570,qs),
(87,93,ls),
(87,44,o),
(83,24,qs),
(78,-1,o),
(78,-11,qs),
(78,-28,o),
(93,-28,qs),
(103,-28,o),
(111,-12,qs),
(135,34,o),
(142,34,qs),
(147,34,o),
(154,30,qs),
(229,-10,o),
(305,-10,qs),
(403,-10,o),
(480,52,qs),
(571,125,o),
(571,247,qs),
(571,349,o),
(442,493,o),
(351,493,qs),
(322,493,o),
(282,481,o),
(235,458,qs),
(210,446,o),
(202,446,qs),
(196,446,o),
(194,456,o),
(194,483,qs),
(194,581,ls),
(194,611,o)
);
},
{
closed = 1;
nodes = (
(197,412,qs),
(221,435,o),
(276,435,qs),
(357,435,o),
(458,316,o),
(458,219,qs),
(458,128,o),
(369,14,o),
(299,14,qs),
(255,14,o),
(225,38,qs),
(190,66,o),
(190,136,qs),
(190,374,ls),
(190,405,o)
);
}
);
userData = {
assembly = "PUSHW[ ]	/* 1 value pushed */
10
CALL[ ]	/* CallFunction */
PUSHW[ ]	/* 1 value pushed */
64
MDAP[1]	/* MoveDirectAbsPt */
PUSHW[ ]	/* 1 value pushed */
65
MDAP[1]	/* MoveDirectAbsPt */
PUSHW[ ]	/* 1 value pushed */
64
SRP0[ ]	/* SetRefPoint0 */
PUSHW[ ]	/* 1 value pushed */
30
MDRP[10000]	/* MoveDirectRelPt */
PUSHW[ ]	/* 1 value pushed */
30
MDAP[1]	/* MoveDirectAbsPt */
PUSHW[ ]	/* 1 value pushed */
50
MDRP[11100]	/* MoveDirectRelPt */
PUSHW[ ]	/* 1 value pushed */
0
MDRP[10000]	/* MoveDirectRelPt */
PUSHW[ ]	/* 1 value pushed */
0
MDAP[1]	/* MoveDirectAbsPt */
PUSHW[ ]	/* 1 value pushed */
65
SRP0[ ]	/* SetRefPoint0 */
PUSHW[ ]	/* 1 value pushed */
12
MDRP[11100]	/* MoveDirectRelPt */
PUSHW[ ]	/* 1 value pushed */
30
SRP0[ ]	/* SetRefPoint0 */
PUSHW[ ]	/* 1 value pushed */
24
MDRP[10000]	/* MoveDirectRelPt */
PUSHW[ ]	/* 1 value pushed */
24
MDAP[1]	/* MoveDirectAbsPt */
PUSHW[ ]	/* 1 value pushed */
30
SRP0[ ]	/* SetRefPoint0 */
PUSHW[ ]	/* 1 value pushed */
28
MDRP[10000]	/* MoveDirectRelPt */
PUSHW[ ]	/* 1 value pushed */
28
MDAP[1]	/* MoveDirectAbsPt */
PUSHW[ ]	/* 1 value pushed */
30
SRP0[ ]	/* SetRefPoint0 */
PUSHW[ ]	/* 1 value pushed */
33
MDRP[10000]	/* MoveDirectRelPt */
PUSHW[ ]	/* 1 value pushed */
33
MDAP[1]	/* MoveDirectAbsPt */
PUSHW[ ]	/* 1 value pushed */
50
SRP0[ ]	/* SetRefPoint0 */
PUSHW[ ]	/* 1 value pushed */
43
MDRP[10000]	/* MoveDirectRelPt */
PUSHW[ ]	/* 1 value pushed */
43
MDAP[1]	/* MoveDirectAbsPt */
PUSHW[ ]	/* 1 value pushed */
50
SRP0[ ]	/* SetRefPoint0 */
PUSHW[ ]	/* 1 value pushed */
47
MDRP[10000]	/* MoveDirectRelPt */
PUSHW[ ]	/* 1 value pushed */
47
MDAP[1]	/* MoveDirectAbsPt */
PUSHW[ ]	/* 1 value pushed */
12
SRP0[ ]	/* SetRefPoint0 */
PUSHW[ ]	/* 1 value pushed */
57
MDRP[11100]	/* MoveDirectRelPt */
NPUSHW[ ]	/* 5 values pushed */
58 57 74 57 2
DELTAP2[ ]	/* DeltaExceptionP2 */
NPUSHW[ ]	/* 21 values pushed */
105 57 121 57 137 57 153 57 169 57 185 57 201 57 217 57 233 57 249 57 10
DELTAP1[ ]	/* DeltaExceptionP1 */
NPUSHW[ ]	/* 7 values pushed */
9 57 25 57 41 57 3
DELTAP2[ ]	/* DeltaExceptionP2 */
PUSHW[ ]	/* 1 value pushed */
50
SRP0[ ]	/* SetRefPoint0 */
PUSHW[ ]	/* 1 value pushed */
62
MDRP[10000]	/* MoveDirectRelPt */
PUSHW[ ]	/* 1 value pushed */
62
MDAP[1]	/* MoveDirectAbsPt */
SVTCA[0]	/* SetFreedomAndProjectionVectorToAxis */
PUSHW[ ]	/* 1 value pushed */
41
MDAP[1]	/* MoveDirectAbsPt */
PUSHW[ ]	/* 1 value pushed */
43
MDAP[1]	/* MoveDirectAbsPt */
PUSHW[ ]	/* 1 value pushed */
24
MDAP[1]	/* MoveDirectAbsPt */
PUSHW[ ]	/* 1 value pushed */
37
RCVT[ ]	/* ReadCVT */
IF[ ]	/* If */
PUSHW[ ]	/* 1 value pushed */
9
MDAP[1]	/* MoveDirectAbsPt */
ELSE[ ]	/* Else */
PUSHW[ ]	/* 2 values pushed */
9 42
MIAP[0]	/* MoveIndirectAbsPt */
EIF[ ]	/* EndIf */
PUSHW[ ]	/* 1 value pushed */
37
RCVT[ ]	/* ReadCVT */
IF[ ]	/* If */
PUSHW[ ]	/* 1 value pushed */
16
MDAP[1]	/* MoveDirectAbsPt */
ELSE[ ]	/* Else */
PUSHW[ ]	/* 2 values pushed */
16 38
MIAP[0]	/* MoveIndirectAbsPt */
EIF[ ]	/* EndIf */
PUSHW[ ]	/* 1 value pushed */
37
RCVT[ ]	/* ReadCVT */
IF[ ]	/* If */
PUSHW[ ]	/* 1 value pushed */
22
MDAP[1]	/* MoveDirectAbsPt */
ELSE[ ]	/* Else */
PUSHW[ ]	/* 2 values pushed */
22 38
MIAP[0]	/* MoveIndirectAbsPt */
EIF[ ]	/* EndIf */
PUSHW[ ]	/* 1 value pushed */
37
RCVT[ ]	/* ReadCVT */
IF[ ]	/* If */
PUSHW[ ]	/* 1 value pushed */
26
MDAP[1]	/* MoveDirectAbsPt */
ELSE[ ]	/* Else */
PUSHW[ ]	/* 2 values pushed */
26 38
MIAP[0]	/* MoveIndirectAbsPt */
EIF[ ]	/* EndIf */
PUSHW[ ]	/* 1 value pushed */
16
SRP0[ ]	/* SetRefPoint0 */
PUSHW[ ]	/* 1 value pushed */
54
MDRP[11100]	/* MoveDirectRelPt */
NPUSHW[ ]	/* 21 values pushed */
103 54 119 54 135 54 151 54 167 54 183 54 199 54 215 54 231 54 247 54 10
DELTAP1[ ]	/* DeltaExceptionP1 */
NPUSHW[ ]	/* 7 values pushed */
7 54 23 54 39 54 3
DELTAP2[ ]	/* DeltaExceptionP2 */
NPUSHW[ ]	/* 5 values pushed */
54 54 70 54 2
DELTAP2[ ]	/* DeltaExceptionP2 */
PUSHW[ ]	/* 1 value pushed */
9
SRP0[ ]	/* SetRefPoint0 */
PUSHW[ ]	/* 1 value pushed */
60
MDRP[11100]	/* MoveDirectRelPt */
NPUSHW[ ]	/* 5 values pushed */
57 60 73 60 2
DELTAP2[ ]	/* DeltaExceptionP2 */
NPUSHW[ ]	/* 21 values pushed */
104 60 120 60 136 60 152 60 168 60 184 60 200 60 216 60 232 60 248 60 10
DELTAP1[ ]	/* DeltaExceptionP1 */
NPUSHW[ ]	/* 7 values pushed */
8 60 24 60 40 60 3
DELTAP2[ ]	/* DeltaExceptionP2 */
IUP[0]	/* InterpolateUntPts */
IUP[1]	/* InterpolateUntPts */";
};
width = 611;
}
);
note = b;
},
{
glyphname = b.008;
layers = (
{
layerId = m01;
shapes = (
{
closed = 1;
nodes = (
(78,-5,qs),
(78,-18,o),
(89,-18,qs),
(99,-18,o),
(105,-6,qs),
(114,13,o),
(127,13,qs),
(131,13,o),
(137,10,qs),
(200,-19,o),
(250,-19,qs),
(306,-19,o),
(367,17,qs),
(437,58,o),
(466,130,qs),
(483,172,o),
(483,222,qs),
(483,263,o),
(439,353,o),
(405,381,qs),
(353,424,o),
(293,424,qs),
(236,424,o),
(178,387,q),
(165,377,o),
(159,375,qs),
(157,374,o),
(154,371,qs),
(153,370,l),
(148,370,o),
(148,418,qs),
(148,424,o),
(150,447,o),
(150,455,qs),
(148,505,l),
(148,522,ls),
(148,540,o),
(146,590,qs),
(145,615,o),
(145,635,qs),
(145,650,o),
(146,670,qs),
(147,690,ls),
(149,730,o),
(149,733,qs),
(149,744,o),
(141,744,qs),
(139,744,o),
(129,739,o),
(124,736,qs),
(109,729,o),
(102,725,qs),
(77,712,o),
(73,710,qs),
(55,700,o),
(45,695,qs),
(22,682,o),
(22,677,qs),
(22,670,o),
(38,663,qs),
(64,651,o),
(73,634,qs),
(80,621,o),
(77,557,qs),
(76,532,l),
(78,498,ls),
(79,485,o),
(77,446,qs),
(76,424,o),
(77,336,qs),
(78,249,l),
(80,180,l),
(80,78,l),
(81,26,l),
(78,2,o)
);
},
{
closed = 1;
nodes = (
(149,309,o),
(149,308,qs),
(149,335,o),
(151,341,q),
(161,348,o),
(169,352,qs),
(206,373,o),
(244,373,qs),
(313,373,o),
(360,318,qs),
(400,271,o),
(400,198,qs),
(400,141,o),
(377,93,qs),
(343,22,o),
(273,22,qs),
(235,22,o),
(172,65,o),
(160,99,qs),
(157,109,o),
(150,179,o),
(151,194,qs),
(152,207,l),
(150,229,l),
(151,268,ls),
(152,289,o)
);
}
);
userData = {
assembly = "PUSHW[ ]	/* 1 value pushed */
10
CALL[ ]	/* CallFunction */
PUSHW[ ]	/* 1 value pushed */
101
MDAP[1]	/* MoveDirectAbsPt */
PUSHW[ ]	/* 1 value pushed */
102
MDAP[1]	/* MoveDirectAbsPt */
PUSHW[ ]	/* 1 value pushed */
101
SRP0[ ]	/* SetRefPoint0 */
PUSHW[ ]	/* 1 value pushed */
4
MDRP[10000]	/* MoveDirectRelPt */
PUSHW[ ]	/* 1 value pushed */
4
MDAP[1]	/* MoveDirectAbsPt */
PUSHW[ ]	/* 1 value pushed */
0
MDRP[10000]	/* MoveDirectRelPt */
PUSHW[ ]	/* 1 value pushed */
0
MDAP[1]	/* MoveDirectAbsPt */
PUSHW[ ]	/* 1 value pushed */
4
SRP0[ ]	/* SetRefPoint0 */
PUSHW[ ]	/* 1 value pushed */
2
MDRP[10000]	/* MoveDirectRelPt */
PUSHW[ ]	/* 1 value pushed */
2
MDAP[1]	/* MoveDirectAbsPt */
PUSHW[ ]	/* 1 value pushed */
4
SRP0[ ]	/* SetRefPoint0 */
PUSHW[ ]	/* 1 value pushed */
6
MDRP[10000]	/* MoveDirectRelPt */
PUSHW[ ]	/* 1 value pushed */
4
SRP0[ ]	/* SetRefPoint0 */
PUSHW[ ]	/* 1 value pushed */
8
MDRP[10000]	/* MoveDirectRelPt */
PUSHW[ ]	/* 1 value pushed */
8
MDAP[1]	/* MoveDirectAbsPt */
PUSHW[ ]	/* 1 value pushed */
4
SRP0[ ]	/* SetRefPoint0 */
PUSHW[ ]	/* 1 value pushed */
10
MDRP[10000]	/* MoveDirectRelPt */
PUSHW[ ]	/* 1 value pushed */
4
SRP0[ ]	/* SetRefPoint0 */
PUSHW[ ]	/* 1 value pushed */
12
MDRP[10000]	/* MoveDirectRelPt */
PUSHW[ ]	/* 1 value pushed */
12
MDAP[1]	/* MoveDirectAbsPt */
PUSHW[ ]	/* 1 value pushed */
4
SRP0[ ]	/* SetRefPoint0 */
PUSHW[ ]	/* 1 value pushed */
20
MDRP[10000]	/* MoveDirectRelPt */
PUSHW[ ]	/* 1 value pushed */
20
MDAP[1]	/* MoveDirectAbsPt */
PUSHW[ ]	/* 1 value pushed */
4
SRP0[ ]	/* SetRefPoint0 */
PUSHW[ ]	/* 1 value pushed */
96
MDRP[11100]	/* MoveDirectRelPt */
PUSHW[ ]	/* 1 value pushed */
29
MDRP[10000]	/* MoveDirectRelPt */
PUSHW[ ]	/* 1 value pushed */
29
MDAP[1]	/* MoveDirectAbsPt */
PUSHW[ ]	/* 1 value pushed */
96
SRP0[ ]	/* SetRefPoint0 */
PUSHW[ ]	/* 1 value pushed */
31
MDRP[10000]	/* MoveDirectRelPt */
PUSHW[ ]	/* 1 value pushed */
31
MDAP[1]	/* MoveDirectAbsPt */
PUSHW[ ]	/* 1 value pushed */
96
SRP0[ ]	/* SetRefPoint0 */
PUSHW[ ]	/* 1 value pushed */
34
MDRP[10000]	/* MoveDirectRelPt */
PUSHW[ ]	/* 1 value pushed */
34
MDAP[1]	/* MoveDirectAbsPt */
PUSHW[ ]	/* 1 value pushed */
96
SRP0[ ]	/* SetRefPoint0 */
PUSHW[ ]	/* 1 value pushed */
36
MDRP[10000]	/* MoveDirectRelPt */
PUSHW[ ]	/* 1 value pushed */
36
MDAP[1]	/* MoveDirectAbsPt */
PUSHW[ ]	/* 1 value pushed */
96
SRP0[ ]	/* SetRefPoint0 */
PUSHW[ ]	/* 1 value pushed */
38
MDRP[10000]	/* MoveDirectRelPt */
PUSHW[ ]	/* 1 value pushed */
38
MDAP[1]	/* MoveDirectAbsPt */
PUSHW[ ]	/* 1 value pushed */
96
SRP0[ ]	/* SetRefPoint0 */
PUSHW[ ]	/* 1 value pushed */
40
MDRP[10000]	/* MoveDirectRelPt */
PUSHW[ ]	/* 1 value pushed */
40
MDAP[1]	/* MoveDirectAbsPt */
PUSHW[ ]	/* 1 value pushed */
96
SRP0[ ]	/* SetRefPoint0 */
PUSHW[ ]	/* 1 value pushed */
43
MDRP[10000]	/* MoveDirectRelPt */
PUSHW[ ]	/* 1 value pushed */
43
MDAP[1]	/* MoveDirectAbsPt */
PUSHW[ ]	/* 1 value pushed */
96
SRP0[ ]	/* SetRefPoint0 */
PUSHW[ ]	/* 1 value pushed */
45
MDRP[10000]	/* MoveDirectRelPt */
PUSHW[ ]	/* 1 value pushed */
45
MDAP[1]	/* MoveDirectAbsPt */
PUSHW[ ]	/* 1 value pushed */
102
SRP0[ ]	/* SetRefPoint0 */
PUSHW[ ]	/* 1 value pushed */
57
MDRP[11100]	/* MoveDirectRelPt */
PUSHW[ ]	/* 1 value pushed */
88
MDRP[11100]	/* MoveDirectRelPt */
NPUSHW[ ]	/* 5 values pushed */
58 88 74 88 2
DELTAP2[ ]	/* DeltaExceptionP2 */
NPUSHW[ ]	/* 21 values pushed */
105 88 121 88 137 88 153 88 169 88 185 88 201 88 217 88 233 88 249 88 10
DELTAP1[ ]	/* DeltaExceptionP1 */
NPUSHW[ ]	/* 7 values pushed */
9 88 25 88 41 88 3
DELTAP2[ ]	/* DeltaExceptionP2 */
PUSHW[ ]	/* 1 value pushed */
54
MDRP[10000]	/* MoveDirectRelPt */
PUSHW[ ]	/* 1 value pushed */
54
MDAP[1]	/* MoveDirectAbsPt */
PUSHW[ ]	/* 1 value pushed */
4
SRP0[ ]	/* SetRefPoint0 */
PUSHW[ ]	/* 1 value pushed */
73
MDRP[10000]	/* MoveDirectRelPt */
PUSHW[ ]	/* 1 value pushed */
73
MDAP[1]	/* MoveDirectAbsPt */
PUSHW[ ]	/* 1 value pushed */
96
SRP0[ ]	/* SetRefPoint0 */
PUSHW[ ]	/* 1 value pushed */
75
MDRP[10000]	/* MoveDirectRelPt */
PUSHW[ ]	/* 1 value pushed */
96
SRP0[ ]	/* SetRefPoint0 */
PUSHW[ ]	/* 1 value pushed */
77
MDRP[10000]	/* MoveDirectRelPt */
PUSHW[ ]	/* 1 value pushed */
77
MDAP[1]	/* MoveDirectAbsPt */
PUSHW[ ]	/* 1 value pushed */
96
SRP0[ ]	/* SetRefPoint0 */
PUSHW[ ]	/* 1 value pushed */
98
MDRP[10000]	/* MoveDirectRelPt */
PUSHW[ ]	/* 1 value pushed */
98
MDAP[1]	/* MoveDirectAbsPt */
SVTCA[0]	/* SetFreedomAndProjectionVectorToAxis */
PUSHW[ ]	/* 1 value pushed */
27
MDAP[1]	/* MoveDirectAbsPt */
PUSHW[ ]	/* 1 value pushed */
37
RCVT[ ]	/* ReadCVT */
IF[ ]	/* If */
PUSHW[ ]	/* 1 value pushed */
43
MDAP[1]	/* MoveDirectAbsPt */
ELSE[ ]	/* Else */
PUSHW[ ]	/* 2 values pushed */
43 42
MIAP[0]	/* MoveIndirectAbsPt */
EIF[ ]	/* EndIf */
PUSHW[ ]	/* 1 value pushed */
37
RCVT[ ]	/* ReadCVT */
IF[ ]	/* If */
PUSHW[ ]	/* 1 value pushed */
52
MDAP[1]	/* MoveDirectAbsPt */
ELSE[ ]	/* Else */
PUSHW[ ]	/* 2 values pushed */
52 42
MIAP[0]	/* MoveIndirectAbsPt */
EIF[ ]	/* EndIf */
PUSHW[ ]	/* 1 value pushed */
37
RCVT[ ]	/* ReadCVT */
IF[ ]	/* If */
PUSHW[ ]	/* 1 value pushed */
63
MDAP[1]	/* MoveDirectAbsPt */
ELSE[ ]	/* Else */
PUSHW[ ]	/* 2 values pushed */
63 38
MIAP[0]	/* MoveIndirectAbsPt */
EIF[ ]	/* EndIf */
PUSHW[ ]	/* 1 value pushed */
37
RCVT[ ]	/* ReadCVT */
IF[ ]	/* If */
PUSHW[ ]	/* 1 value pushed */
71
MDAP[1]	/* MoveDirectAbsPt */
ELSE[ ]	/* Else */
PUSHW[ ]	/* 2 values pushed */
71 38
MIAP[0]	/* MoveIndirectAbsPt */
EIF[ ]	/* EndIf */
PUSHW[ ]	/* 1 value pushed */
43
SRP0[ ]	/* SetRefPoint0 */
PUSHW[ ]	/* 1 value pushed */
45
MDRP[11100]	/* MoveDirectRelPt */
NPUSHW[ ]	/* 5 values pushed */
57 45 73 45 2
DELTAP2[ ]	/* DeltaExceptionP2 */
NPUSHW[ ]	/* 21 values pushed */
104 45 120 45 136 45 152 45 168 45 184 45 200 45 216 45 232 45 248 45 10
DELTAP1[ ]	/* DeltaExceptionP1 */
NPUSHW[ ]	/* 7 values pushed */
8 45 24 45 40 45 3
DELTAP2[ ]	/* DeltaExceptionP2 */
PUSHW[ ]	/* 1 value pushed */
63
SRP0[ ]	/* SetRefPoint0 */
PUSHW[ ]	/* 1 value pushed */
84
MDRP[11100]	/* MoveDirectRelPt */
NPUSHW[ ]	/* 21 values pushed */
103 84 119 84 135 84 151 84 167 84 183 84 199 84 215 84 231 84 247 84 10
DELTAP1[ ]	/* DeltaExceptionP1 */
NPUSHW[ ]	/* 7 values pushed */
7 84 23 84 39 84 3
DELTAP2[ ]	/* DeltaExceptionP2 */
NPUSHW[ ]	/* 5 values pushed */
54 84 70 84 2
DELTAP2[ ]	/* DeltaExceptionP2 */
PUSHW[ ]	/* 1 value pushed */
45
SRP0[ ]	/* SetRefPoint0 */
PUSHW[ ]	/* 1 value pushed */
92
MDRP[10000]	/* MoveDirectRelPt */
IUP[0]	/* InterpolateUntPts */
IUP[1]	/* InterpolateUntPts */";
};
width = 516;
}
);
note = b;
},
{
glyphname = b.009;
layers = (
{
layerId = m01;
shapes = (
{
closed = 1;
nodes = (
(158,719,q),
(151,715,o),
(146,715,qs),
(142,715,o),
(135,719,q),
(78,685,o),
(15,673,q),
(18,666,o),
(18,662,qs),
(18,658,o),
(15,652,q),
(40,650,ls),
(69,648,o),
(73,632,qs),
(82,600,o),
(82,399,qs),
(82,212,ls),
(82,132,o),
(74,-14,q),
(83,-14,l),
(124,19,l),
(192,-18,o),
(257,-18,qs),
(358,-18,o),
(483,103,o),
(483,200,qs),
(483,288,o),
(379,399,o),
(298,399,qs),
(220,399,o),
(148,341,q),
(148,399,ls),
(148,576,o)
);
},
{
closed = 1;
nodes = (
(256,353,qs),
(323,353,o),
(414,246,o),
(414,166,qs),
(414,98,o),
(330,8,o),
(267,8,qs),
(214,8,o),
(180,41,qs),
(143,76,o),
(143,154,qs),
(143,156,o),
(145,195,o),
(145,209,qs),
(148,313,l),
(204,353,o)
);
}
);
userData = {
assembly = "PUSHW[ ]	/* 1 value pushed */
10
CALL[ ]	/* CallFunction */
PUSHW[ ]	/* 3 values pushed */
29 13 13
CALL[ ]	/* CallFunction */
PUSHW[ ]	/* 1 value pushed */
29
SRP0[ ]	/* SetRefPoint0 */
PUSHW[ ]	/* 3 values pushed */
6 44 13
CALL[ ]	/* CallFunction */
PUSHW[ ]	/* 1 value pushed */
6
SRP0[ ]	/* SetRefPoint0 */
PUSHW[ ]	/* 1 value pushed */
29
SRP0[ ]	/* SetRefPoint0 */
PUSHW[ ]	/* 1 value pushed */
0
MDRP[10000]	/* MoveDirectRelPt */
PUSHW[ ]	/* 1 value pushed */
0
MDAP[1]	/* MoveDirectAbsPt */
PUSHW[ ]	/* 3 values pushed */
1 13 6
SRP1[ ]	/* SetRefPoint1 */
SRP2[ ]	/* SetRefPoint2 */
IP[ ]	/* InterpolatePts */
PUSHW[ ]	/* 1 value pushed */
29
SRP0[ ]	/* SetRefPoint0 */
PUSHW[ ]	/* 1 value pushed */
16
MDRP[11100]	/* MoveDirectRelPt */
PUSHW[ ]	/* 3 values pushed */
31 13 6
SRP1[ ]	/* SetRefPoint1 */
SRP2[ ]	/* SetRefPoint2 */
IP[ ]	/* InterpolatePts */
PUSHW[ ]	/* 1 value pushed */
29
SRP0[ ]	/* SetRefPoint0 */
PUSHW[ ]	/* 1 value pushed */
33
MDRP[10000]	/* MoveDirectRelPt */
PUSHW[ ]	/* 1 value pushed */
33
MDAP[1]	/* MoveDirectAbsPt */
PUSHW[ ]	/* 1 value pushed */
29
SRP0[ ]	/* SetRefPoint0 */
PUSHW[ ]	/* 1 value pushed */
37
MDRP[10000]	/* MoveDirectRelPt */
PUSHW[ ]	/* 1 value pushed */
37
MDAP[1]	/* MoveDirectAbsPt */
NPUSHW[ ]	/* 5 values pushed */
58 44 74 44 2
DELTAP2[ ]	/* DeltaExceptionP2 */
NPUSHW[ ]	/* 21 values pushed */
105 44 121 44 137 44 153 44 169 44 185 44 201 44 217 44 233 44 249 44 10
DELTAP1[ ]	/* DeltaExceptionP1 */
NPUSHW[ ]	/* 7 values pushed */
9 44 25 44 41 44 3
DELTAP2[ ]	/* DeltaExceptionP2 */
PUSHW[ ]	/* 1 value pushed */
6
SRP0[ ]	/* SetRefPoint0 */
PUSHW[ ]	/* 1 value pushed */
50
MDRP[11100]	/* MoveDirectRelPt */
SVTCA[0]	/* SetFreedomAndProjectionVectorToAxis */
PUSHW[ ]	/* 1 value pushed */
27
MDAP[1]	/* MoveDirectAbsPt */
PUSHW[ ]	/* 1 value pushed */
29
MDAP[1]	/* MoveDirectAbsPt */
PUSHW[ ]	/* 1 value pushed */
31
MDAP[1]	/* MoveDirectAbsPt */
PUSHW[ ]	/* 1 value pushed */
33
RCVT[ ]	/* ReadCVT */
IF[ ]	/* If */
PUSHW[ ]	/* 1 value pushed */
0
MDAP[1]	/* MoveDirectAbsPt */
ELSE[ ]	/* Else */
PUSHW[ ]	/* 2 values pushed */
0 38
MIAP[0]	/* MoveIndirectAbsPt */
EIF[ ]	/* EndIf */
PUSHW[ ]	/* 1 value pushed */
33
RCVT[ ]	/* ReadCVT */
IF[ ]	/* If */
PUSHW[ ]	/* 1 value pushed */
3
MDAP[1]	/* MoveDirectAbsPt */
ELSE[ ]	/* Else */
PUSHW[ ]	/* 2 values pushed */
3 38
MIAP[0]	/* MoveIndirectAbsPt */
EIF[ ]	/* EndIf */
PUSHW[ ]	/* 1 value pushed */
33
RCVT[ ]	/* ReadCVT */
IF[ ]	/* If */
PUSHW[ ]	/* 1 value pushed */
16
MDAP[1]	/* MoveDirectAbsPt */
ELSE[ ]	/* Else */
PUSHW[ ]	/* 2 values pushed */
16 38
MIAP[0]	/* MoveIndirectAbsPt */
EIF[ ]	/* EndIf */
PUSHW[ ]	/* 1 value pushed */
33
RCVT[ ]	/* ReadCVT */
IF[ ]	/* If */
PUSHW[ ]	/* 1 value pushed */
9
MDAP[1]	/* MoveDirectAbsPt */
ELSE[ ]	/* Else */
PUSHW[ ]	/* 2 values pushed */
9 34
MIAP[0]	/* MoveIndirectAbsPt */
EIF[ ]	/* EndIf */
PUSHW[ ]	/* 1 value pushed */
33
RCVT[ ]	/* ReadCVT */
IF[ ]	/* If */
PUSHW[ ]	/* 1 value pushed */
12
MDAP[1]	/* MoveDirectAbsPt */
ELSE[ ]	/* Else */
PUSHW[ ]	/* 2 values pushed */
12 34
MIAP[0]	/* MoveIndirectAbsPt */
EIF[ ]	/* EndIf */
PUSHW[ ]	/* 3 values pushed */
1 9 27
SRP1[ ]	/* SetRefPoint1 */
SRP2[ ]	/* SetRefPoint2 */
IP[ ]	/* InterpolatePts */
PUSHW[ ]	/* 3 values pushed */
21 9 27
SRP1[ ]	/* SetRefPoint1 */
SRP2[ ]	/* SetRefPoint2 */
IP[ ]	/* InterpolatePts */
PUSHW[ ]	/* 1 value pushed */
9
SRP0[ ]	/* SetRefPoint0 */
PUSHW[ ]	/* 1 value pushed */
41
MDRP[11100]	/* MoveDirectRelPt */
NPUSHW[ ]	/* 21 values pushed */
103 41 119 41 135 41 151 41 167 41 183 41 199 41 215 41 231 41 247 41 10
DELTAP1[ ]	/* DeltaExceptionP1 */
NPUSHW[ ]	/* 7 values pushed */
7 41 23 41 39 41 3
DELTAP2[ ]	/* DeltaExceptionP2 */
NPUSHW[ ]	/* 5 values pushed */
54 41 70 41 2
DELTAP2[ ]	/* DeltaExceptionP2 */
PUSHW[ ]	/* 1 value pushed */
3
SRP0[ ]	/* SetRefPoint0 */
PUSHW[ ]	/* 1 value pushed */
47
MDRP[11100]	/* MoveDirectRelPt */
NPUSHW[ ]	/* 5 values pushed */
57 47 73 47 2
DELTAP2[ ]	/* DeltaExceptionP2 */
NPUSHW[ ]	/* 21 values pushed */
104 47 120 47 136 47 152 47 168 47 184 47 200 47 216 47 232 47 248 47 10
DELTAP1[ ]	/* DeltaExceptionP1 */
NPUSHW[ ]	/* 7 values pushed */
8 47 24 47 40 47 3
DELTAP2[ ]	/* DeltaExceptionP2 */
IUP[0]	/* InterpolateUntPts */
IUP[1]	/* InterpolateUntPts */";
};
width = 522;
}
);
note = b;
},
{
glyphname = b.010;
layers = (
{
layerId = m01;
shapes = (
{
closed = 1;
nodes = (
(43,672,o),
(66,665,o),
(77,641,o),
(79,595,o),
(79,557,qs),
(79,154,l),
(78,-6,l),
(95,-2,o),
(122,2,o),
(139,2,qs),
(146,2,o),
(159,2,o),
(166,1,qs),
(187,-1,o),
(229,-8,o),
(249,-9,qs),
(260,-9,ls),
(314,-9,o),
(402,28,o),
(465,94,o),
(499,183,o),
(499,235,qs),
(499,282,o),
(470,361,o),
(419,419,o),
(349,452,o),
(307,452,qs),
(259,452,o),
(188,414,o),
(155,391,q),
(155,548,ls),
(155,592,o),
(157,653,o),
(159,698,o),
(162,732,o),
(164,749,q),
(145,758,l),
(125,746,o),
(97,731,o),
(71,719,o),
(42,708,o),
(21,701,q),
(21,672,l)
);
},
{
closed = 1;
nodes = (
(172,368,o),
(224,391,o),
(261,391,qs),
(292,391,o),
(350,369,o),
(393,324,o),
(419,258,o),
(419,214,qs),
(419,180,o),
(401,116,o),
(364,65,o),
(307,34,o),
(269,34,qs),
(258,34,o),
(229,39,o),
(201,51,o),
(175,74,o),
(166,92,qs),
(158,108,o),
(156,137,o),
(155,153,qs),
(155,358,l)
);
}
);
userData = {
assembly = "PUSHW[ ]	/* 1 value pushed */
65
MDAP[1]	/* MoveDirectAbsPt */
PUSHW[ ]	/* 1 value pushed */
66
MDAP[1]	/* MoveDirectAbsPt */
PUSHW[ ]	/* 1 value pushed */
65
SRP0[ ]	/* SetRefPoint0 */
PUSHW[ ]	/* 1 value pushed */
36
MDRP[10000]	/* MoveDirectRelPt */
PUSHW[ ]	/* 1 value pushed */
36
MDAP[1]	/* MoveDirectAbsPt */
PUSHW[ ]	/* 2 values pushed */
43 2
MIRP[11100]	/* MoveIndirectRelPt */
PUSHW[ ]	/* 1 value pushed */
11
MDRP[10000]	/* MoveDirectRelPt */
PUSHW[ ]	/* 1 value pushed */
66
SRP0[ ]	/* SetRefPoint0 */
PUSHW[ ]	/* 1 value pushed */
20
MDRP[11100]	/* MoveDirectRelPt */
PUSHW[ ]	/* 3 values pushed */
12 36 20
SRP1[ ]	/* SetRefPoint1 */
SRP2[ ]	/* SetRefPoint2 */
IP[ ]	/* InterpolatePts */
PUSHW[ ]	/* 2 values pushed */
56 2
MIRP[11100]	/* MoveIndirectRelPt */
NPUSHW[ ]	/* 5 values pushed */
138 56 154 56 2
DELTAP1[ ]	/* DeltaExceptionP1 */
NPUSHW[ ]	/* 17 values pushed */
9 56 25 56 41 56 57 56 73 56 89 56 105 56 121 56 8
DELTAP1[ ]	/* DeltaExceptionP1 */
SVTCA[0]	/* SetFreedomAndProjectionVectorToAxis */
PUSHW[ ]	/* 1 value pushed */
0
RCVT[ ]	/* ReadCVT */
IF[ ]	/* If */
PUSHW[ ]	/* 1 value pushed */
5
MDAP[1]	/* MoveDirectAbsPt */
ELSE[ ]	/* Else */
PUSHW[ ]	/* 2 values pushed */
5 20
MIAP[0]	/* MoveIndirectAbsPt */
EIF[ ]	/* EndIf */
PUSHW[ ]	/* 1 value pushed */
0
RCVT[ ]	/* ReadCVT */
IF[ ]	/* If */
PUSHW[ ]	/* 1 value pushed */
6
MDAP[1]	/* MoveDirectAbsPt */
ELSE[ ]	/* Else */
PUSHW[ ]	/* 2 values pushed */
6 20
MIAP[0]	/* MoveIndirectAbsPt */
EIF[ ]	/* EndIf */
PUSHW[ ]	/* 1 value pushed */
0
RCVT[ ]	/* ReadCVT */
IF[ ]	/* If */
PUSHW[ ]	/* 1 value pushed */
15
MDAP[1]	/* MoveDirectAbsPt */
ELSE[ ]	/* Else */
PUSHW[ ]	/* 2 values pushed */
15 14
MIAP[0]	/* MoveIndirectAbsPt */
EIF[ ]	/* EndIf */
PUSHW[ ]	/* 1 value pushed */
0
RCVT[ ]	/* ReadCVT */
IF[ ]	/* If */
PUSHW[ ]	/* 1 value pushed */
25
MDAP[1]	/* MoveDirectAbsPt */
ELSE[ ]	/* Else */
PUSHW[ ]	/* 2 values pushed */
25 4
MIAP[0]	/* MoveIndirectAbsPt */
EIF[ ]	/* EndIf */
PUSHW[ ]	/* 1 value pushed */
0
RCVT[ ]	/* ReadCVT */
IF[ ]	/* If */
PUSHW[ ]	/* 1 value pushed */
29
MDAP[1]	/* MoveDirectAbsPt */
ELSE[ ]	/* Else */
PUSHW[ ]	/* 2 values pushed */
29 4
MIAP[0]	/* MoveIndirectAbsPt */
EIF[ ]	/* EndIf */
PUSHW[ ]	/* 1 value pushed */
0
RCVT[ ]	/* ReadCVT */
IF[ ]	/* If */
PUSHW[ ]	/* 1 value pushed */
35
MDAP[1]	/* MoveDirectAbsPt */
ELSE[ ]	/* Else */
PUSHW[ ]	/* 2 values pushed */
35 4
MIAP[0]	/* MoveIndirectAbsPt */
EIF[ ]	/* EndIf */
PUSHW[ ]	/* 3 values pushed */
12 25 5
SRP1[ ]	/* SetRefPoint1 */
SRP2[ ]	/* SetRefPoint2 */
IP[ ]	/* InterpolatePts */
PUSHW[ ]	/* 1 value pushed */
25
SRP0[ ]	/* SetRefPoint0 */
PUSHW[ ]	/* 2 values pushed */
51 1
MIRP[11100]	/* MoveIndirectRelPt */
NPUSHW[ ]	/* 33 values pushed */
7 51 23 51 39 51 55 51 71 51 87 51 103 51 119 51 135 51 151 51 167 51 183 51 199 51 215 51 231 51 247 51 16
DELTAP1[ ]	/* DeltaExceptionP1 */
NPUSHW[ ]	/* 19 values pushed */
7 51 23 51 39 51 55 51 71 51 87 51 103 51 119 51 135 51 9
DELTAP2[ ]	/* DeltaExceptionP2 */
NPUSHW[ ]	/* 5 values pushed */
150 51 166 51 2
DELTAP2[ ]	/* DeltaExceptionP2 */
PUSHW[ ]	/* 1 value pushed */
15
SRP0[ ]	/* SetRefPoint0 */
PUSHW[ ]	/* 2 values pushed */
61 1
MIRP[11100]	/* MoveIndirectRelPt */
NPUSHW[ ]	/* 5 values pushed */
153 61 169 61 2
DELTAP2[ ]	/* DeltaExceptionP2 */
NPUSHW[ ]	/* 33 values pushed */
8 61 24 61 40 61 56 61 72 61 88 61 104 61 120 61 136 61 152 61 168 61 184 61 200 61 216 61 232 61 248 61 16
DELTAP1[ ]	/* DeltaExceptionP1 */
NPUSHW[ ]	/* 19 values pushed */
8 61 24 61 40 61 56 61 72 61 88 61 104 61 120 61 136 61 9
DELTAP2[ ]	/* DeltaExceptionP2 */
IUP[0]	/* InterpolateUntPts */
IUP[1]	/* InterpolateUntPts */";
};
width = 542;
}
);
note = b;
},
{
glyphname = b.011;
layers = (
{
layerId = m01;
shapes = (
{
closed = 1;
nodes = (
(146,707,qs),
(142,707,o),
(133,701,qs),
(119,692,ls),
(82,668,o),
(45,662,qs),
(33,660,ls),
(16,657,o),
(16,644,qs),
(16,630,o),
(39,630,qs),
(50,629,ls),
(70,627,o),
(81,617,o),
(81,600,qs),
(82,-18,ls),
(82,-34,o),
(96,-34,qs),
(105,-34,o),
(114,-20,qs),
(134,12,l),
(176,-22,o),
(262,-22,qs),
(369,-22,o),
(490,111,o),
(490,228,qs),
(490,322,o),
(386,437,o),
(303,437,qs),
(218,437,o),
(156,381,q),
(159,673,ls),
(159,707,o)
);
},
{
closed = 1;
nodes = (
(264,382,qs),
(326,382,o),
(401,283,o),
(401,201,qs),
(401,116,o),
(327,11,o),
(266,11,qs),
(212,11,o),
(182,45,qs),
(159,71,o),
(159,140,qs),
(159,340,l),
(205,382,o)
);
}
);
userData = {
assembly = "PUSHW[ ]	/* 1 value pushed */
10
CALL[ ]	/* CallFunction */
PUSHW[ ]	/* 1 value pushed */
46
MDAP[1]	/* MoveDirectAbsPt */
PUSHW[ ]	/* 1 value pushed */
47
MDAP[1]	/* MoveDirectAbsPt */
PUSHW[ ]	/* 1 value pushed */
46
SRP0[ ]	/* SetRefPoint0 */
PUSHW[ ]	/* 1 value pushed */
17
MDRP[10000]	/* MoveDirectRelPt */
PUSHW[ ]	/* 1 value pushed */
17
MDAP[1]	/* MoveDirectAbsPt */
PUSHW[ ]	/* 1 value pushed */
1
MDRP[11100]	/* MoveDirectRelPt */
PUSHW[ ]	/* 1 value pushed */
47
SRP0[ ]	/* SetRefPoint0 */
PUSHW[ ]	/* 1 value pushed */
6
MDRP[11100]	/* MoveDirectRelPt */
PUSHW[ ]	/* 1 value pushed */
1
SRP0[ ]	/* SetRefPoint0 */
PUSHW[ ]	/* 1 value pushed */
33
MDRP[10000]	/* MoveDirectRelPt */
PUSHW[ ]	/* 1 value pushed */
33
MDAP[1]	/* MoveDirectAbsPt */
PUSHW[ ]	/* 1 value pushed */
6
SRP0[ ]	/* SetRefPoint0 */
PUSHW[ ]	/* 1 value pushed */
41
MDRP[11100]	/* MoveDirectRelPt */
NPUSHW[ ]	/* 5 values pushed */
58 41 74 41 2
DELTAP2[ ]	/* DeltaExceptionP2 */
NPUSHW[ ]	/* 21 values pushed */
105 41 121 41 137 41 153 41 169 41 185 41 201 41 217 41 233 41 249 41 10
DELTAP1[ ]	/* DeltaExceptionP1 */
NPUSHW[ ]	/* 7 values pushed */
9 41 25 41 41 41 3
DELTAP2[ ]	/* DeltaExceptionP2 */
SVTCA[0]	/* SetFreedomAndProjectionVectorToAxis */
PUSHW[ ]	/* 1 value pushed */
14
MDAP[1]	/* MoveDirectAbsPt */
PUSHW[ ]	/* 1 value pushed */
35
RCVT[ ]	/* ReadCVT */
IF[ ]	/* If */
PUSHW[ ]	/* 1 value pushed */
29
MDAP[1]	/* MoveDirectAbsPt */
ELSE[ ]	/* Else */
PUSHW[ ]	/* 2 values pushed */
29 42
MIAP[0]	/* MoveIndirectAbsPt */
EIF[ ]	/* EndIf */
PUSHW[ ]	/* 1 value pushed */
35
RCVT[ ]	/* ReadCVT */
IF[ ]	/* If */
PUSHW[ ]	/* 1 value pushed */
31
MDAP[1]	/* MoveDirectAbsPt */
ELSE[ ]	/* Else */
PUSHW[ ]	/* 2 values pushed */
31 42
MIAP[0]	/* MoveIndirectAbsPt */
EIF[ ]	/* EndIf */
PUSHW[ ]	/* 1 value pushed */
35
RCVT[ ]	/* ReadCVT */
IF[ ]	/* If */
PUSHW[ ]	/* 1 value pushed */
3
MDAP[1]	/* MoveDirectAbsPt */
ELSE[ ]	/* Else */
PUSHW[ ]	/* 2 values pushed */
3 40
MIAP[0]	/* MoveIndirectAbsPt */
EIF[ ]	/* EndIf */
PUSHW[ ]	/* 1 value pushed */
35
RCVT[ ]	/* ReadCVT */
IF[ ]	/* If */
PUSHW[ ]	/* 1 value pushed */
9
MDAP[1]	/* MoveDirectAbsPt */
ELSE[ ]	/* Else */
PUSHW[ ]	/* 2 values pushed */
9 36
MIAP[0]	/* MoveIndirectAbsPt */
EIF[ ]	/* EndIf */
PUSHW[ ]	/* 1 value pushed */
35
RCVT[ ]	/* ReadCVT */
IF[ ]	/* If */
PUSHW[ ]	/* 1 value pushed */
12
MDAP[1]	/* MoveDirectAbsPt */
ELSE[ ]	/* Else */
PUSHW[ ]	/* 2 values pushed */
12 36
MIAP[0]	/* MoveIndirectAbsPt */
EIF[ ]	/* EndIf */
PUSHW[ ]	/* 1 value pushed */
35
RCVT[ ]	/* ReadCVT */
IF[ ]	/* If */
PUSHW[ ]	/* 1 value pushed */
16
MDAP[1]	/* MoveDirectAbsPt */
ELSE[ ]	/* Else */
PUSHW[ ]	/* 2 values pushed */
16 36
MIAP[0]	/* MoveIndirectAbsPt */
EIF[ ]	/* EndIf */
PUSHW[ ]	/* 3 values pushed */
1 14 31
SRP1[ ]	/* SetRefPoint1 */
SRP2[ ]	/* SetRefPoint2 */
IP[ ]	/* InterpolatePts */
PUSHW[ ]	/* 1 value pushed */
9
SRP0[ ]	/* SetRefPoint0 */
PUSHW[ ]	/* 1 value pushed */
38
MDRP[11100]	/* MoveDirectRelPt */
NPUSHW[ ]	/* 21 values pushed */
103 38 119 38 135 38 151 38 167 38 183 38 199 38 215 38 231 38 247 38 10
DELTAP1[ ]	/* DeltaExceptionP1 */
NPUSHW[ ]	/* 7 values pushed */
7 38 23 38 39 38 3
DELTAP2[ ]	/* DeltaExceptionP2 */
NPUSHW[ ]	/* 5 values pushed */
54 38 70 38 2
DELTAP2[ ]	/* DeltaExceptionP2 */
PUSHW[ ]	/* 1 value pushed */
3
SRP0[ ]	/* SetRefPoint0 */
PUSHW[ ]	/* 1 value pushed */
44
MDRP[11100]	/* MoveDirectRelPt */
NPUSHW[ ]	/* 5 values pushed */
57 44 73 44 2
DELTAP2[ ]	/* DeltaExceptionP2 */
NPUSHW[ ]	/* 21 values pushed */
104 44 120 44 136 44 152 44 168 44 184 44 200 44 216 44 232 44 248 44 10
DELTAP1[ ]	/* DeltaExceptionP1 */
NPUSHW[ ]	/* 7 values pushed */
8 44 24 44 40 44 3
DELTAP2[ ]	/* DeltaExceptionP2 */
IUP[0]	/* InterpolateUntPts */
IUP[1]	/* InterpolateUntPts */";
};
width = 536;
}
);
note = b;
},
{
glyphname = e.001;
layers = (
{
layerId = m01;
shapes = (
{
closed = 1;
nodes = (
(116,286,o),
(114,289,o),
(114,291,qs),
(114,303,o),
(133,334,o),
(163,360,o),
(203,378,o),
(225,378,qs),
(247,378,o),
(276,366,o),
(294,348,o),
(302,325,o),
(302,315,qs),
(302,305,o),
(298,298,o),
(296,296,qs),
(290,291,o),
(247,286,o),
(192,286,qs),
(121,286,ls)
);
},
{
closed = 1;
nodes = (
(347,256,o),
(372,258,o),
(374,263,qs),
(376,266,o),
(378,278,o),
(378,289,qs),
(378,311,o),
(358,354,o),
(321,388,o),
(268,408,o),
(236,408,qs),
(191,408,o),
(117,372,o),
(64,310,o),
(35,228,o),
(35,182,qs),
(35,149,o),
(54,81,o),
(77,52,qs),
(99,23,o),
(173,-14,o),
(222,-14,qs),
(241,-14,o),
(286,-4,o),
(329,18,o),
(367,53,o),
(379,79,q),
(378,86,o),
(369,93,o),
(361,91,q),
(338,62,o),
(294,42,o),
(269,42,qs),
(229,42,o),
(167,72,o),
(125,123,o),
(103,191,o),
(103,229,qs),
(103,248,o),
(110,256,o),
(130,256,qs),
(315,256,ls)
);
}
);
userData = {
assembly = "PUSHW[ ]	/* 1 value pushed */
62
MDAP[1]	/* MoveDirectAbsPt */
PUSHW[ ]	/* 1 value pushed */
63
MDAP[1]	/* MoveDirectAbsPt */
PUSHW[ ]	/* 1 value pushed */
55
MDRP[11100]	/* MoveDirectRelPt */
PUSHW[ ]	/* 2 values pushed */
6 2
MIRP[11100]	/* MoveIndirectRelPt */
NPUSHW[ ]	/* 5 values pushed */
154 6 170 6 2
DELTAP1[ ]	/* DeltaExceptionP1 */
NPUSHW[ ]	/* 19 values pushed */
9 6 25 6 41 6 57 6 73 6 89 6 105 6 121 6 137 6 9
DELTAP1[ ]	/* DeltaExceptionP1 */
PUSHW[ ]	/* 1 value pushed */
3
MDRP[10000]	/* MoveDirectRelPt */
PUSHW[ ]	/* 1 value pushed */
3
MDAP[1]	/* MoveDirectAbsPt */
PUSHW[ ]	/* 1 value pushed */
62
SRP0[ ]	/* SetRefPoint0 */
PUSHW[ ]	/* 1 value pushed */
45
MDRP[10000]	/* MoveDirectRelPt */
PUSHW[ ]	/* 1 value pushed */
45
MDAP[1]	/* MoveDirectAbsPt */
PUSHW[ ]	/* 2 values pushed */
23 2
MIRP[11100]	/* MoveIndirectRelPt */
NPUSHW[ ]	/* 19 values pushed */
6 23 22 23 38 23 54 23 70 23 86 23 102 23 118 23 134 23 9
DELTAP1[ ]	/* DeltaExceptionP1 */
NPUSHW[ ]	/* 5 values pushed */
149 23 165 23 2
DELTAP1[ ]	/* DeltaExceptionP1 */
PUSHW[ ]	/* 3 values pushed */
16 23 45
SRP1[ ]	/* SetRefPoint1 */
SRP2[ ]	/* SetRefPoint2 */
IP[ ]	/* InterpolatePts */
PUSHW[ ]	/* 1 value pushed */
55
SRP0[ ]	/* SetRefPoint0 */
PUSHW[ ]	/* 1 value pushed */
34
MDRP[10000]	/* MoveDirectRelPt */
PUSHW[ ]	/* 1 value pushed */
34
MDAP[1]	/* MoveDirectAbsPt */
PUSHW[ ]	/* 1 value pushed */
55
SRP0[ ]	/* SetRefPoint0 */
PUSHW[ ]	/* 1 value pushed */
58
MDRP[10000]	/* MoveDirectRelPt */
PUSHW[ ]	/* 1 value pushed */
58
MDAP[1]	/* MoveDirectAbsPt */
SVTCA[0]	/* SetFreedomAndProjectionVectorToAxis */
PUSHW[ ]	/* 1 value pushed */
0
RCVT[ ]	/* ReadCVT */
IF[ ]	/* If */
PUSHW[ ]	/* 1 value pushed */
50
MDAP[1]	/* MoveDirectAbsPt */
ELSE[ ]	/* Else */
PUSHW[ ]	/* 2 values pushed */
50 10
MIAP[0]	/* MoveIndirectAbsPt */
EIF[ ]	/* EndIf */
PUSHW[ ]	/* 1 value pushed */
0
RCVT[ ]	/* ReadCVT */
IF[ ]	/* If */
PUSHW[ ]	/* 1 value pushed */
39
MDAP[1]	/* MoveDirectAbsPt */
ELSE[ ]	/* Else */
PUSHW[ ]	/* 2 values pushed */
39 4
MIAP[0]	/* MoveIndirectAbsPt */
EIF[ ]	/* EndIf */
PUSHW[ ]	/* 3 values pushed */
0 50 39
SRP1[ ]	/* SetRefPoint1 */
SRP2[ ]	/* SetRefPoint2 */
IP[ ]	/* InterpolatePts */
PUSHW[ ]	/* 1 value pushed */
0
MDAP[1]	/* MoveDirectAbsPt */
PUSHW[ ]	/* 1 value pushed */
50
SRP0[ ]	/* SetRefPoint0 */
PUSHW[ ]	/* 2 values pushed */
11 1
MIRP[11100]	/* MoveIndirectRelPt */
NPUSHW[ ]	/* 5 values pushed */
185 11 201 11 2
DELTAP2[ ]	/* DeltaExceptionP2 */
NPUSHW[ ]	/* 33 values pushed */
8 11 24 11 40 11 56 11 72 11 88 11 104 11 120 11 136 11 152 11 168 11 184 11 200 11 216 11 232 11 248 11 16
DELTAP1[ ]	/* DeltaExceptionP1 */
NPUSHW[ ]	/* 23 values pushed */
8 11 24 11 40 11 56 11 72 11 88 11 104 11 120 11 136 11 152 11 168 11 11
DELTAP2[ ]	/* DeltaExceptionP2 */
PUSHW[ ]	/* 1 value pushed */
0
SRP0[ ]	/* SetRefPoint0 */
PUSHW[ ]	/* 2 values pushed */
20 1
MIRP[11100]	/* MoveIndirectRelPt */
PUSHW[ ]	/* 1 value pushed */
39
SRP0[ ]	/* SetRefPoint0 */
PUSHW[ ]	/* 2 values pushed */
28 1
MIRP[11100]	/* MoveIndirectRelPt */
NPUSHW[ ]	/* 33 values pushed */
7 28 23 28 39 28 55 28 71 28 87 28 103 28 119 28 135 28 151 28 167 28 183 28 199 28 215 28 231 28 247 28 16
DELTAP1[ ]	/* DeltaExceptionP1 */
NPUSHW[ ]	/* 23 values pushed */
7 28 23 28 39 28 55 28 71 28 87 28 103 28 119 28 135 28 151 28 167 28 11
DELTAP2[ ]	/* DeltaExceptionP2 */
NPUSHW[ ]	/* 5 values pushed */
182 28 198 28 2
DELTAP2[ ]	/* DeltaExceptionP2 */
IUP[0]	/* InterpolateUntPts */
IUP[1]	/* InterpolateUntPts */";
};
width = 396;
}
);
note = e;
},
{
glyphname = e.002;
layers = (
{
hints = (
{
horizontal = 1;
place = (410,41);
type = Stem;
},
{
horizontal = 1;
place = (273,39);
type = Stem;
},
{
horizontal = 1;
place = (-9,64);
type = Stem;
},
{
place = (321,73);
type = Stem;
},
{
place = (39,73);
type = Stem;
}
);
layerId = m01;
shapes = (
{
closed = 1;
nodes = (
(383,90,l),
(359,75,l),
(327,63,l),
(276,55,l),
(238,60,l),
(187,82,l),
(158,106,l),
(132,146,l),
(114,200,l),
(112,273,l),
(346,273,l),
(379,276,l),
(389,288,l),
(394,321,l),
(389,360,l),
(374,391,l),
(338,426,l),
(305,442,l),
(248,451,l),
(188,442,l),
(149,425,l),
(108,392,l),
(73,348,l),
(44,267,l),
(39,210,l),
(49,132,l),
(77,72,l),
(114,31,l),
(152,9,l),
(198,-10,l),
(233,-9,l),
(278,-8,l),
(315,6,l),
(366,36,l),
(399,66,l)
);
},
{
closed = 1;
nodes = (
(121,311,l),
(131,337,l),
(167,381,l),
(199,402,l),
(239,409,l),
(267,405,l),
(304,383,l),
(321,338,l),
(314,319,l),
(295,311,l)
);
}
);
width = 437;
}
);
},
{
glyphname = e.003;
layers = (
{
hints = (
{
horizontal = 1;
place = (410,41);
type = Stem;
},
{
horizontal = 1;
place = (273,39);
type = Stem;
},
{
horizontal = 1;
place = (-9,64);
type = Stem;
},
{
place = (321,73);
type = Stem;
},
{
place = (39,73);
type = Stem;
}
);
layerId = m01;
shapes = (
{
closed = 1;
nodes = (
(383,90,l),
(359,75,l),
(327,63,l),
(276,55,l),
(238,60,l),
(187,82,l),
(158,106,l),
(132,146,l),
(114,200,l),
(112,273,l),
(346,273,l),
(379,276,l),
(389,288,l),
(394,321,l),
(389,360,l),
(374,391,l),
(338,426,l),
(305,442,l),
(248,451,l),
(188,442,l),
(149,425,l),
(108,392,l),
(73,348,l),
(44,267,l),
(39,210,l),
(49,132,l),
(77,72,l),
(114,31,l),
(152,9,l),
(198,-10,l),
(233,-9,l),
(278,-8,l),
(315,6,l),
(366,36,l),
(399,66,l)
);
},
{
closed = 1;
nodes = (
(121,311,l),
(131,337,l),
(167,381,l),
(199,402,l),
(239,409,l),
(267,405,l),
(304,383,l),
(321,338,l),
(314,319,l),
(295,311,l)
);
}
);
width = 437;
}
);
},
{
glyphname = e.004;
layers = (
{
hints = (
{
horizontal = 1;
place = (498,24);
type = Stem;
},
{
horizontal = 1;
place = (336,30);
type = Stem;
},
{
horizontal = 1;
place = (-14,60);
type = Stem;
},
{
place = (28,125);
type = Stem;
}
);
layerId = m01;
shapes = (
{
closed = 1;
nodes = (
(28,260,l),
(28,203,l),
(41,148,l),
(66,97,l),
(103,55,l),
(141,24,l),
(187,2,l),
(238,-13,l),
(292,-14,l),
(345,-13,l),
(395,2,l),
(441,27,l),
(485,64,l),
(507,88,l),
(510,98,l),
(502,108,l),
(450,75,l),
(393,49,l),
(352,44,l),
(297,53,l),
(247,77,l),
(203,115,l),
(171,166,l),
(159,206,l),
(152,268,l),
(155,306,l),
(163,329,l),
(187,335,l),
(292,335,l),
(445,333,l),
(498,334,l),
(509,341,l),
(511,356,l),
(499,408,l),
(479,439,l),
(432,483,l),
(386,507,l),
(309,519,l),
(261,516,l),
(195,498,l),
(125,458,l),
(91,427,l),
(64,385,l),
(41,337,l)
);
},
{
closed = 1;
nodes = (
(168,392,l),
(179,421,l),
(202,446,l),
(262,487,l),
(307,495,l),
(364,478,l),
(392,450,l),
(397,427,l),
(389,401,l),
(375,386,l),
(350,370,l),
(292,364,l),
(184,364,l),
(171,368,l)
);
}
);
width = 521;
}
);
},
{
glyphname = e.005;
layers = (
{
hints = (
{
horizontal = 1;
place = (426,28);
type = Stem;
},
{
horizontal = 1;
place = (273,28);
type = Stem;
},
{
horizontal = 1;
place = (-10,65);
type = Stem;
},
{
place = (310,85);
type = Stem;
},
{
place = (31,75);
type = Stem;
}
);
layerId = m01;
shapes = (
{
closed = 1;
nodes = (
(109,272,l),
(146,274,l),
(228,272,l),
(326,273,l),
(379,270,l),
(394,274,l),
(395,280,l),
(396,304,l),
(383,363,l),
(373,387,l),
(321,434,l),
(301,447,l),
(240,453,l),
(169,440,l),
(118,402,l),
(102,388,l),
(78,354,l),
(51,302,l),
(34,252,l),
(32,203,l),
(40,126,l),
(65,74,l),
(95,36,l),
(113,23,l),
(178,-10,l),
(222,-12,l),
(256,-11,l),
(308,14,l),
(342,34,l),
(392,87,l),
(397,96,l),
(380,110,l),
(357,89,l),
(304,60,l),
(269,53,l),
(233,56,l),
(177,84,l),
(145,119,l),
(125,150,l),
(110,209,l),
(108,247,l)
);
},
{
closed = 1;
nodes = (
(224,424,l),
(264,415,l),
(291,394,l),
(311,336,l),
(304,316,l),
(291,305,l),
(254,302,l),
(197,301,l),
(149,299,l),
(132,300,l),
(115,302,l),
(118,318,l),
(155,385,l),
(183,411,l),
(204,421,l)
);
}
);
width = 417;
}
);
},
{
glyphname = e.006;
layers = (
{
hints = (
{
horizontal = 1;
place = (425,31);
type = Stem;
},
{
horizontal = 1;
place = (281,28);
type = Stem;
},
{
horizontal = 1;
place = (-14,62);
type = Stem;
},
{
place = (334,78);
type = Stem;
},
{
place = (27,79);
type = Stem;
}
);
layerId = m01;
shapes = (
{
closed = 1;
nodes = (
(224,281,l),
(299,282,l),
(402,285,l),
(411,302,l),
(390,368,l),
(343,424,l),
(302,446,l),
(242,456,l),
(186,450,l),
(139,432,l),
(103,407,l),
(77,376,l),
(51,332,l),
(29,250,l),
(27,224,l),
(29,180,l),
(40,131,l),
(65,82,l),
(83,58,l),
(112,30,l),
(134,14,l),
(184,-9,l),
(220,-12,l),
(272,-7,l),
(320,12,l),
(386,59,l),
(407,88,l),
(396,100,l),
(347,71,l),
(304,53,l),
(274,49,l),
(201,63,l),
(155,92,l),
(133,123,l),
(111,175,l),
(105,238,l),
(111,284,l),
(160,282,l)
);
},
{
closed = 1;
nodes = (
(244,426,l),
(278,421,l),
(300,407,l),
(325,383,l),
(334,350,l),
(327,327,l),
(314,317,l),
(291,316,l),
(263,314,l),
(203,313,l),
(159,312,l),
(131,311,l),
(119,317,l),
(120,329,l),
(124,341,l),
(161,392,l),
(180,404,l)
);
}
);
width = 437;
}
);
},
{
glyphname = e.007;
layers = (
{
layerId = m01;
shapes = (
{
closed = 1;
nodes = (
(499,340,qs),
(499,386,o),
(461,431,qs),
(409,493,o),
(304,493,qs),
(189,493,o),
(39,346,o),
(39,233,qs),
(39,125,o),
(177,-10,o),
(287,-10,qs),
(392,-10,o),
(470,62,qs),
(497,87,o),
(497,100,qs),
(497,110,o),
(488,110,qs),
(481,110,o),
(464,93,qs),
(420,50,o),
(345,50,qs),
(263,50,o),
(156,171,o),
(156,263,qs),
(156,292,o),
(158,300,qs),
(163,320,o),
(184,320,qs),
(471,320,ls),
(499,320,o)
);
},
{
closed = 1;
nodes = (
(171,356,o),
(171,364,qs),
(171,381,o),
(189,408,qs),
(229,469,o),
(302,469,qs),
(342,469,o),
(390,434,o),
(390,405,qs),
(390,353,o),
(317,353,qs),
(200,353,ls),
(180,353,o)
);
}
);
userData = {
assembly = "PUSHW[ ]	/* 1 value pushed */
10
CALL[ ]	/* CallFunction */
PUSHW[ ]	/* 1 value pushed */
43
MDAP[1]	/* MoveDirectAbsPt */
PUSHW[ ]	/* 1 value pushed */
44
MDAP[1]	/* MoveDirectAbsPt */
PUSHW[ ]	/* 1 value pushed */
43
SRP0[ ]	/* SetRefPoint0 */
PUSHW[ ]	/* 1 value pushed */
21
MDRP[10000]	/* MoveDirectRelPt */
PUSHW[ ]	/* 1 value pushed */
21
MDAP[1]	/* MoveDirectAbsPt */
PUSHW[ ]	/* 1 value pushed */
5
MDRP[11100]	/* MoveDirectRelPt */
NPUSHW[ ]	/* 21 values pushed */
102 5 118 5 134 5 150 5 166 5 182 5 198 5 214 5 230 5 246 5 10
DELTAP1[ ]	/* DeltaExceptionP1 */
NPUSHW[ ]	/* 7 values pushed */
6 5 22 5 38 5 3
DELTAP2[ ]	/* DeltaExceptionP2 */
NPUSHW[ ]	/* 5 values pushed */
53 5 69 5 2
DELTAP2[ ]	/* DeltaExceptionP2 */
PUSHW[ ]	/* 1 value pushed */
3
MDRP[10000]	/* MoveDirectRelPt */
PUSHW[ ]	/* 1 value pushed */
3
MDAP[1]	/* MoveDirectAbsPt */
PUSHW[ ]	/* 1 value pushed */
44
SRP0[ ]	/* SetRefPoint0 */
PUSHW[ ]	/* 1 value pushed */
28
MDRP[11100]	/* MoveDirectRelPt */
PUSHW[ ]	/* 1 value pushed */
14
MDRP[10000]	/* MoveDirectRelPt */
PUSHW[ ]	/* 1 value pushed */
14
MDAP[1]	/* MoveDirectAbsPt */
PUSHW[ ]	/* 1 value pushed */
28
SRP0[ ]	/* SetRefPoint0 */
PUSHW[ ]	/* 1 value pushed */
33
MDRP[11100]	/* MoveDirectRelPt */
NPUSHW[ ]	/* 5 values pushed */
58 33 74 33 2
DELTAP2[ ]	/* DeltaExceptionP2 */
NPUSHW[ ]	/* 21 values pushed */
105 33 121 33 137 33 153 33 169 33 185 33 201 33 217 33 233 33 249 33 10
DELTAP1[ ]	/* DeltaExceptionP1 */
NPUSHW[ ]	/* 7 values pushed */
9 33 25 33 41 33 3
DELTAP2[ ]	/* DeltaExceptionP2 */
SVTCA[0]	/* SetFreedomAndProjectionVectorToAxis */
PUSHW[ ]	/* 1 value pushed */
37
RCVT[ ]	/* ReadCVT */
IF[ ]	/* If */
PUSHW[ ]	/* 1 value pushed */
24
MDAP[1]	/* MoveDirectAbsPt */
ELSE[ ]	/* Else */
PUSHW[ ]	/* 2 values pushed */
24 42
MIAP[0]	/* MoveIndirectAbsPt */
EIF[ ]	/* EndIf */
PUSHW[ ]	/* 1 value pushed */
37
RCVT[ ]	/* ReadCVT */
IF[ ]	/* If */
PUSHW[ ]	/* 1 value pushed */
18
MDAP[1]	/* MoveDirectAbsPt */
ELSE[ ]	/* Else */
PUSHW[ ]	/* 2 values pushed */
18 38
MIAP[0]	/* MoveIndirectAbsPt */
EIF[ ]	/* EndIf */
PUSHW[ ]	/* 3 values pushed */
31 1 13
CALL[ ]	/* CallFunction */
PUSHW[ ]	/* 1 value pushed */
31
SRP0[ ]	/* SetRefPoint0 */
PUSHW[ ]	/* 1 value pushed */
18
SRP0[ ]	/* SetRefPoint0 */
PUSHW[ ]	/* 1 value pushed */
8
MDRP[11100]	/* MoveDirectRelPt */
NPUSHW[ ]	/* 21 values pushed */
103 8 119 8 135 8 151 8 167 8 183 8 199 8 215 8 231 8 247 8 10
DELTAP1[ ]	/* DeltaExceptionP1 */
NPUSHW[ ]	/* 7 values pushed */
7 8 23 8 39 8 3
DELTAP2[ ]	/* DeltaExceptionP2 */
NPUSHW[ ]	/* 5 values pushed */
54 8 70 8 2
DELTAP2[ ]	/* DeltaExceptionP2 */
PUSHW[ ]	/* 1 value pushed */
24
SRP0[ ]	/* SetRefPoint0 */
PUSHW[ ]	/* 1 value pushed */
36
MDRP[11100]	/* MoveDirectRelPt */
NPUSHW[ ]	/* 5 values pushed */
57 36 73 36 2
DELTAP2[ ]	/* DeltaExceptionP2 */
NPUSHW[ ]	/* 21 values pushed */
104 36 120 36 136 36 152 36 168 36 184 36 200 36 216 36 232 36 248 36 10
DELTAP1[ ]	/* DeltaExceptionP1 */
NPUSHW[ ]	/* 7 values pushed */
8 36 24 36 40 36 3
DELTAP2[ ]	/* DeltaExceptionP2 */
IUP[0]	/* InterpolateUntPts */
IUP[1]	/* InterpolateUntPts */";
};
width = 533;
}
);
note = e;
},
{
glyphname = e.008;
layers = (
{
layerId = m01;
shapes = (
{
closed = 1;
nodes = (
(381,279,qs),
(381,337,o),
(349,374,qs),
(305,425,o),
(233,425,qs),
(152,425,o),
(98,363,qs),
(33,288,o),
(33,180,qs),
(33,117,o),
(68,59,qs),
(89,25,o),
(169,-17,o),
(213,-17,qs),
(282,-17,o),
(336,32,qs),
(383,74,o),
(383,87,qs),
(383,90,o),
(371,100,o),
(368,100,qs),
(365,100,o),
(362,96,qs),
(355,89,o),
(296,46,o),
(260,46,qs),
(190,46,o),
(143,105,qs),
(105,153,o),
(105,221,qs),
(105,242,o),
(108,249,o),
(115,249,qs),
(126,249,ls),
(133,249,o),
(147,250,qs),
(159,250,o),
(176,250,qs),
(275,249,l),
(346,250,l),
(374,250,l),
(381,251,o)
);
},
{
closed = 1;
nodes = (
(113,285,qs),
(113,311,o),
(137,343,qs),
(177,397,o),
(221,397,qs),
(252,397,o),
(298,348,o),
(298,315,qs),
(298,289,o),
(262,279,o),
(167,279,qs),
(139,279,ls),
(113,279,o)
);
}
);
userData = {
assembly = "PUSHW[ ]	/* 1 value pushed */
10
CALL[ ]	/* CallFunction */
PUSHW[ ]	/* 1 value pushed */
55
MDAP[1]	/* MoveDirectAbsPt */
PUSHW[ ]	/* 1 value pushed */
56
MDAP[1]	/* MoveDirectAbsPt */
PUSHW[ ]	/* 1 value pushed */
40
MDRP[11100]	/* MoveDirectRelPt */
PUSHW[ ]	/* 1 value pushed */
0
MDRP[10000]	/* MoveDirectRelPt */
PUSHW[ ]	/* 1 value pushed */
0
MDAP[1]	/* MoveDirectAbsPt */
PUSHW[ ]	/* 1 value pushed */
55
SRP0[ ]	/* SetRefPoint0 */
PUSHW[ ]	/* 1 value pushed */
32
MDRP[10000]	/* MoveDirectRelPt */
PUSHW[ ]	/* 1 value pushed */
32
MDAP[1]	/* MoveDirectAbsPt */
PUSHW[ ]	/* 1 value pushed */
11
MDRP[11100]	/* MoveDirectRelPt */
NPUSHW[ ]	/* 21 values pushed */
102 11 118 11 134 11 150 11 166 11 182 11 198 11 214 11 230 11 246 11 10
DELTAP1[ ]	/* DeltaExceptionP1 */
NPUSHW[ ]	/* 7 values pushed */
6 11 22 11 38 11 3
DELTAP2[ ]	/* DeltaExceptionP2 */
NPUSHW[ ]	/* 5 values pushed */
53 11 69 11 2
DELTAP2[ ]	/* DeltaExceptionP2 */
PUSHW[ ]	/* 1 value pushed */
40
SRP0[ ]	/* SetRefPoint0 */
PUSHW[ ]	/* 1 value pushed */
23
MDRP[10000]	/* MoveDirectRelPt */
PUSHW[ ]	/* 1 value pushed */
23
MDAP[1]	/* MoveDirectAbsPt */
PUSHW[ ]	/* 1 value pushed */
11
SRP0[ ]	/* SetRefPoint0 */
PUSHW[ ]	/* 1 value pushed */
34
MDRP[10000]	/* MoveDirectRelPt */
PUSHW[ ]	/* 1 value pushed */
34
MDAP[1]	/* MoveDirectAbsPt */
PUSHW[ ]	/* 1 value pushed */
40
SRP0[ ]	/* SetRefPoint0 */
PUSHW[ ]	/* 1 value pushed */
46
MDRP[11100]	/* MoveDirectRelPt */
NPUSHW[ ]	/* 5 values pushed */
58 46 74 46 2
DELTAP2[ ]	/* DeltaExceptionP2 */
NPUSHW[ ]	/* 21 values pushed */
105 46 121 46 137 46 153 46 169 46 185 46 201 46 217 46 233 46 249 46 10
DELTAP1[ ]	/* DeltaExceptionP1 */
NPUSHW[ ]	/* 7 values pushed */
9 46 25 46 41 46 3
DELTAP2[ ]	/* DeltaExceptionP2 */
SVTCA[0]	/* SetFreedomAndProjectionVectorToAxis */
PUSHW[ ]	/* 1 value pushed */
37
RCVT[ ]	/* ReadCVT */
IF[ ]	/* If */
PUSHW[ ]	/* 1 value pushed */
36
MDAP[1]	/* MoveDirectAbsPt */
ELSE[ ]	/* Else */
PUSHW[ ]	/* 2 values pushed */
36 42
MIAP[0]	/* MoveIndirectAbsPt */
EIF[ ]	/* EndIf */
PUSHW[ ]	/* 1 value pushed */
37
RCVT[ ]	/* ReadCVT */
IF[ ]	/* If */
PUSHW[ ]	/* 1 value pushed */
27
MDAP[1]	/* MoveDirectAbsPt */
ELSE[ ]	/* Else */
PUSHW[ ]	/* 2 values pushed */
27 38
MIAP[0]	/* MoveIndirectAbsPt */
EIF[ ]	/* EndIf */
PUSHW[ ]	/* 3 values pushed */
40 2 13
CALL[ ]	/* CallFunction */
PUSHW[ ]	/* 1 value pushed */
40
SRP0[ ]	/* SetRefPoint0 */
PUSHW[ ]	/* 1 value pushed */
2
SRP0[ ]	/* SetRefPoint0 */
PUSHW[ ]	/* 1 value pushed */
0
MDRP[10000]	/* MoveDirectRelPt */
PUSHW[ ]	/* 1 value pushed */
0
MDAP[1]	/* MoveDirectAbsPt */
PUSHW[ ]	/* 1 value pushed */
2
SRP0[ ]	/* SetRefPoint0 */
PUSHW[ ]	/* 1 value pushed */
5
MDRP[10000]	/* MoveDirectRelPt */
PUSHW[ ]	/* 1 value pushed */
5
MDAP[1]	/* MoveDirectAbsPt */
PUSHW[ ]	/* 1 value pushed */
2
SRP0[ ]	/* SetRefPoint0 */
PUSHW[ ]	/* 1 value pushed */
7
MDRP[10000]	/* MoveDirectRelPt */
PUSHW[ ]	/* 1 value pushed */
27
SRP0[ ]	/* SetRefPoint0 */
PUSHW[ ]	/* 1 value pushed */
15
MDRP[11100]	/* MoveDirectRelPt */
NPUSHW[ ]	/* 21 values pushed */
103 15 119 15 135 15 151 15 167 15 183 15 199 15 215 15 231 15 247 15 10
DELTAP1[ ]	/* DeltaExceptionP1 */
NPUSHW[ ]	/* 7 values pushed */
7 15 23 15 39 15 3
DELTAP2[ ]	/* DeltaExceptionP2 */
NPUSHW[ ]	/* 5 values pushed */
54 15 70 15 2
DELTAP2[ ]	/* DeltaExceptionP2 */
PUSHW[ ]	/* 1 value pushed */
40
SRP0[ ]	/* SetRefPoint0 */
PUSHW[ ]	/* 1 value pushed */
42
MDRP[10000]	/* MoveDirectRelPt */
PUSHW[ ]	/* 1 value pushed */
36
SRP0[ ]	/* SetRefPoint0 */
PUSHW[ ]	/* 1 value pushed */
49
MDRP[11100]	/* MoveDirectRelPt */
NPUSHW[ ]	/* 5 values pushed */
57 49 73 49 2
DELTAP2[ ]	/* DeltaExceptionP2 */
NPUSHW[ ]	/* 21 values pushed */
104 49 120 49 136 49 152 49 168 49 184 49 200 49 216 49 232 49 248 49 10
DELTAP1[ ]	/* DeltaExceptionP1 */
NPUSHW[ ]	/* 7 values pushed */
8 49 24 49 40 49 3
DELTAP2[ ]	/* DeltaExceptionP2 */
IUP[0]	/* InterpolateUntPts */
IUP[1]	/* InterpolateUntPts */";
};
width = 416;
}
);
note = e;
},
{
glyphname = e.009;
layers = (
{
layerId = m01;
shapes = (
{
closed = 1;
nodes = (
(342,251,o),
(404,246,q),
(400,297,o),
(397,305,qs),
(381,354,o),
(295,411,o),
(236,411,qs),
(150,411,o),
(39,289,o),
(39,195,qs),
(39,103,o),
(151,-17,o),
(237,-17,qs),
(331,-17,o),
(393,51,qs),
(404,63,l),
(391,69,o),
(387,84,q),
(335,35,o),
(275,35,qs),
(203,35,o),
(106,144,o),
(106,225,qs),
(106,240,o),
(107,249,q),
(211,249,l),
(293,250,ls)
);
},
{
closed = 1;
nodes = (
(112,274,o),
(112,284,qs),
(112,321,o),
(192,385,o),
(237,385,qs),
(273,385,o),
(324,340,o),
(324,308,qs),
(324,292,o),
(309,284,o),
(290,283,qs),
(131,274,l),
(125,274,ls)
);
}
);
userData = {
assembly = "PUSHW[ ]	/* 1 value pushed */
10
CALL[ ]	/* CallFunction */
PUSHW[ ]	/* 3 values pushed */
3 16 13
CALL[ ]	/* CallFunction */
PUSHW[ ]	/* 1 value pushed */
3
SRP0[ ]	/* SetRefPoint0 */
NPUSHW[ ]	/* 21 values pushed */
102 3 118 3 134 3 150 3 166 3 182 3 198 3 214 3 230 3 246 3 10
DELTAP1[ ]	/* DeltaExceptionP1 */
NPUSHW[ ]	/* 7 values pushed */
6 3 22 3 38 3 3
DELTAP2[ ]	/* DeltaExceptionP2 */
NPUSHW[ ]	/* 5 values pushed */
53 3 69 3 2
DELTAP2[ ]	/* DeltaExceptionP2 */
PUSHW[ ]	/* 1 value pushed */
37
MDRP[10000]	/* MoveDirectRelPt */
PUSHW[ ]	/* 1 value pushed */
37
MDAP[1]	/* MoveDirectAbsPt */
SVTCA[0]	/* SetFreedomAndProjectionVectorToAxis */
PUSHW[ ]	/* 1 value pushed */
33
RCVT[ ]	/* ReadCVT */
IF[ ]	/* If */
PUSHW[ ]	/* 1 value pushed */
19
MDAP[1]	/* MoveDirectAbsPt */
ELSE[ ]	/* Else */
PUSHW[ ]	/* 2 values pushed */
19 38
MIAP[0]	/* MoveIndirectAbsPt */
EIF[ ]	/* EndIf */
PUSHW[ ]	/* 1 value pushed */
33
RCVT[ ]	/* ReadCVT */
IF[ ]	/* If */
PUSHW[ ]	/* 1 value pushed */
13
MDAP[1]	/* MoveDirectAbsPt */
ELSE[ ]	/* Else */
PUSHW[ ]	/* 2 values pushed */
13 34
MIAP[0]	/* MoveIndirectAbsPt */
EIF[ ]	/* EndIf */
PUSHW[ ]	/* 1 value pushed */
6
MDRP[11100]	/* MoveDirectRelPt */
NPUSHW[ ]	/* 21 values pushed */
103 6 119 6 135 6 151 6 167 6 183 6 199 6 215 6 231 6 247 6 10
DELTAP1[ ]	/* DeltaExceptionP1 */
NPUSHW[ ]	/* 7 values pushed */
7 6 23 6 39 6 3
DELTAP2[ ]	/* DeltaExceptionP2 */
NPUSHW[ ]	/* 5 values pushed */
54 6 70 6 2
DELTAP2[ ]	/* DeltaExceptionP2 */
PUSHW[ ]	/* 3 values pushed */
8 13 19
SRP1[ ]	/* SetRefPoint1 */
SRP2[ ]	/* SetRefPoint2 */
IP[ ]	/* InterpolatePts */
PUSHW[ ]	/* 3 values pushed */
10 13 19
SRP1[ ]	/* SetRefPoint1 */
SRP2[ ]	/* SetRefPoint2 */
IP[ ]	/* InterpolatePts */
PUSHW[ ]	/* 1 value pushed */
19
SRP0[ ]	/* SetRefPoint0 */
PUSHW[ ]	/* 1 value pushed */
34
MDRP[11100]	/* MoveDirectRelPt */
NPUSHW[ ]	/* 5 values pushed */
57 34 73 34 2
DELTAP2[ ]	/* DeltaExceptionP2 */
NPUSHW[ ]	/* 21 values pushed */
104 34 120 34 136 34 152 34 168 34 184 34 200 34 216 34 232 34 248 34 10
DELTAP1[ ]	/* DeltaExceptionP1 */
NPUSHW[ ]	/* 7 values pushed */
8 34 24 34 40 34 3
DELTAP2[ ]	/* DeltaExceptionP2 */
IUP[0]	/* InterpolateUntPts */
IUP[1]	/* InterpolateUntPts */";
};
width = 432;
}
);
note = e;
},
{
glyphname = e.010;
layers = (
{
layerId = m01;
shapes = (
{
closed = 1;
nodes = (
(357,272,o),
(375,274,o),
(387,283,o),
(394,303,o),
(394,321,qs),
(394,350,o),
(372,397,o),
(333,431,o),
(280,450,o),
(249,450,qs),
(205,450,o),
(129,415,o),
(73,352,o),
(40,263,o),
(40,209,qs),
(40,162,o),
(70,81,o),
(122,23,o),
(193,-10,o),
(234,-10,qs),
(258,-10,o),
(315,3,o),
(343,19,qs),
(363,31,o),
(388,53,o),
(400,66,q),
(383,89,l),
(369,79,o),
(320,54,o),
(276,54,qs),
(225,54,o),
(148,108,o),
(128,150,qs),
(118,172,o),
(111,214,o),
(111,241,qs),
(111,251,o),
(111,262,o),
(113,272,q),
(346,272,ls)
);
},
{
closed = 1;
nodes = (
(136,358,o),
(198,409,o),
(240,409,qs),
(263,409,o),
(294,395,o),
(313,374,o),
(321,349,o),
(321,338,qs),
(321,321,o),
(306,312,o),
(295,311,q),
(122,311,l)
);
}
);
userData = {
assembly = "PUSHW[ ]	/* 1 value pushed */
52
MDAP[1]	/* MoveDirectAbsPt */
PUSHW[ ]	/* 1 value pushed */
53
MDAP[1]	/* MoveDirectAbsPt */
PUSHW[ ]	/* 1 value pushed */
52
SRP0[ ]	/* SetRefPoint0 */
PUSHW[ ]	/* 1 value pushed */
24
MDRP[10000]	/* MoveDirectRelPt */
PUSHW[ ]	/* 1 value pushed */
24
MDAP[1]	/* MoveDirectAbsPt */
PUSHW[ ]	/* 2 values pushed */
3 2
MIRP[11100]	/* MoveIndirectRelPt */
NPUSHW[ ]	/* 17 values pushed */
6 3 22 3 38 3 54 3 70 3 86 3 102 3 118 3 8
DELTAP1[ ]	/* DeltaExceptionP1 */
NPUSHW[ ]	/* 5 values pushed */
133 3 149 3 2
DELTAP1[ ]	/* DeltaExceptionP1 */
PUSHW[ ]	/* 1 value pushed */
0
MDRP[10000]	/* MoveDirectRelPt */
PUSHW[ ]	/* 1 value pushed */
0
MDAP[1]	/* MoveDirectAbsPt */
PUSHW[ ]	/* 1 value pushed */
53
SRP0[ ]	/* SetRefPoint0 */
PUSHW[ ]	/* 1 value pushed */
34
MDRP[11100]	/* MoveDirectRelPt */
PUSHW[ ]	/* 1 value pushed */
13
MDRP[10000]	/* MoveDirectRelPt */
PUSHW[ ]	/* 1 value pushed */
13
MDAP[1]	/* MoveDirectAbsPt */
PUSHW[ ]	/* 1 value pushed */
34
SRP0[ ]	/* SetRefPoint0 */
PUSHW[ ]	/* 2 values pushed */
43 2
MIRP[11100]	/* MoveIndirectRelPt */
NPUSHW[ ]	/* 5 values pushed */
138 43 154 43 2
DELTAP1[ ]	/* DeltaExceptionP1 */
NPUSHW[ ]	/* 17 values pushed */
9 43 25 43 41 43 57 43 73 43 89 43 105 43 121 43 8
DELTAP1[ ]	/* DeltaExceptionP1 */
PUSHW[ ]	/* 3 values pushed */
51 24 13
SRP1[ ]	/* SetRefPoint1 */
SRP2[ ]	/* SetRefPoint2 */
IP[ ]	/* InterpolatePts */
SVTCA[0]	/* SetFreedomAndProjectionVectorToAxis */
PUSHW[ ]	/* 1 value pushed */
0
RCVT[ ]	/* ReadCVT */
IF[ ]	/* If */
PUSHW[ ]	/* 1 value pushed */
29
MDAP[1]	/* MoveDirectAbsPt */
ELSE[ ]	/* Else */
PUSHW[ ]	/* 2 values pushed */
29 14
MIAP[0]	/* MoveIndirectAbsPt */
EIF[ ]	/* EndIf */
PUSHW[ ]	/* 1 value pushed */
0
RCVT[ ]	/* ReadCVT */
IF[ ]	/* If */
PUSHW[ ]	/* 1 value pushed */
19
MDAP[1]	/* MoveDirectAbsPt */
ELSE[ ]	/* Else */
PUSHW[ ]	/* 2 values pushed */
19 4
MIAP[0]	/* MoveIndirectAbsPt */
EIF[ ]	/* EndIf */
PUSHW[ ]	/* 4 values pushed */
51 1 0 4
CALL[ ]	/* CallFunction */
PUSHW[ ]	/* 1 value pushed */
19
SRP0[ ]	/* SetRefPoint0 */
PUSHW[ ]	/* 2 values pushed */
9 1
MIRP[11100]	/* MoveIndirectRelPt */
NPUSHW[ ]	/* 33 values pushed */
7 9 23 9 39 9 55 9 71 9 87 9 103 9 119 9 135 9 151 9 167 9 183 9 199 9 215 9 231 9 247 9 16
DELTAP1[ ]	/* DeltaExceptionP1 */
NPUSHW[ ]	/* 19 values pushed */
7 9 23 9 39 9 55 9 71 9 87 9 103 9 119 9 135 9 9
DELTAP2[ ]	/* DeltaExceptionP2 */
NPUSHW[ ]	/* 5 values pushed */
150 9 166 9 2
DELTAP2[ ]	/* DeltaExceptionP2 */
PUSHW[ ]	/* 1 value pushed */
29
SRP0[ ]	/* SetRefPoint0 */
PUSHW[ ]	/* 2 values pushed */
48 1
MIRP[11100]	/* MoveIndirectRelPt */
NPUSHW[ ]	/* 5 values pushed */
153 48 169 48 2
DELTAP2[ ]	/* DeltaExceptionP2 */
NPUSHW[ ]	/* 33 values pushed */
8 48 24 48 40 48 56 48 72 48 88 48 104 48 120 48 136 48 152 48 168 48 184 48 200 48 216 48 232 48 248 48 16
DELTAP1[ ]	/* DeltaExceptionP1 */
NPUSHW[ ]	/* 19 values pushed */
8 48 24 48 40 48 56 48 72 48 88 48 104 48 120 48 136 48 9
DELTAP2[ ]	/* DeltaExceptionP2 */
IUP[0]	/* InterpolateUntPts */
IUP[1]	/* InterpolateUntPts */";
};
width = 437;
}
);
note = e;
},
{
glyphname = e.011;
layers = (
{
layerId = m01;
shapes = (
{
closed = 1;
nodes = (
(440,295,o),
(440,319,qs),
(440,373,o),
(342,448,o),
(271,448,qs),
(172,448,o),
(47,312,o),
(47,204,qs),
(47,100,o),
(161,-22,o),
(259,-22,qs),
(358,-22,o),
(412,40,qs),
(445,78,o),
(445,97,qs),
(445,112,o),
(433,112,qs),
(423,112,o),
(418,105,qs),
(408,92,ls),
(372,45,o),
(298,45,qs),
(218,45,o),
(127,137,o),
(127,218,qs),
(127,257,o),
(139,300,q),
(384,295,l),
(415,295,ls)
);
},
{
closed = 1;
nodes = (
(272,417,qs),
(305,417,o),
(348,385,o),
(348,360,qs),
(348,338,o),
(325,334,qs),
(322,333,o),
(283,333,qs),
(265,333,o),
(247,332,qs),
(231,332,o),
(232,332,qs),
(153,332,l),
(204,417,o)
);
}
);
userData = {
assembly = "PUSHW[ ]	/* 1 value pushed */
10
CALL[ ]	/* CallFunction */
PUSHW[ ]	/* 3 values pushed */
3 20 13
CALL[ ]	/* CallFunction */
PUSHW[ ]	/* 1 value pushed */
3
SRP0[ ]	/* SetRefPoint0 */
NPUSHW[ ]	/* 21 values pushed */
102 3 118 3 134 3 150 3 166 3 182 3 198 3 214 3 230 3 246 3 10
DELTAP1[ ]	/* DeltaExceptionP1 */
NPUSHW[ ]	/* 7 values pushed */
6 3 22 3 38 3 3
DELTAP2[ ]	/* DeltaExceptionP2 */
NPUSHW[ ]	/* 5 values pushed */
53 3 69 3 2
DELTAP2[ ]	/* DeltaExceptionP2 */
SVTCA[0]	/* SetFreedomAndProjectionVectorToAxis */
PUSHW[ ]	/* 1 value pushed */
35
RCVT[ ]	/* ReadCVT */
IF[ ]	/* If */
PUSHW[ ]	/* 1 value pushed */
23
MDAP[1]	/* MoveDirectAbsPt */
ELSE[ ]	/* Else */
PUSHW[ ]	/* 2 values pushed */
23 40
MIAP[0]	/* MoveIndirectAbsPt */
EIF[ ]	/* EndIf */
PUSHW[ ]	/* 1 value pushed */
35
RCVT[ ]	/* ReadCVT */
IF[ ]	/* If */
PUSHW[ ]	/* 1 value pushed */
17
MDAP[1]	/* MoveDirectAbsPt */
ELSE[ ]	/* Else */
PUSHW[ ]	/* 2 values pushed */
17 36
MIAP[0]	/* MoveIndirectAbsPt */
EIF[ ]	/* EndIf */
PUSHW[ ]	/* 3 values pushed */
34 0 13
CALL[ ]	/* CallFunction */
PUSHW[ ]	/* 1 value pushed */
34
SRP0[ ]	/* SetRefPoint0 */
PUSHW[ ]	/* 1 value pushed */
17
SRP0[ ]	/* SetRefPoint0 */
PUSHW[ ]	/* 1 value pushed */
6
MDRP[11100]	/* MoveDirectRelPt */
NPUSHW[ ]	/* 21 values pushed */
103 6 119 6 135 6 151 6 167 6 183 6 199 6 215 6 231 6 247 6 10
DELTAP1[ ]	/* DeltaExceptionP1 */
NPUSHW[ ]	/* 7 values pushed */
7 6 23 6 39 6 3
DELTAP2[ ]	/* DeltaExceptionP2 */
NPUSHW[ ]	/* 5 values pushed */
54 6 70 6 2
DELTAP2[ ]	/* DeltaExceptionP2 */
PUSHW[ ]	/* 1 value pushed */
34
SRP0[ ]	/* SetRefPoint0 */
PUSHW[ ]	/* 1 value pushed */
29
MDRP[10000]	/* MoveDirectRelPt */
PUSHW[ ]	/* 1 value pushed */
29
MDAP[1]	/* MoveDirectAbsPt */
PUSHW[ ]	/* 1 value pushed */
34
SRP0[ ]	/* SetRefPoint0 */
PUSHW[ ]	/* 1 value pushed */
32
MDRP[10000]	/* MoveDirectRelPt */
PUSHW[ ]	/* 1 value pushed */
32
MDAP[1]	/* MoveDirectAbsPt */
PUSHW[ ]	/* 1 value pushed */
34
SRP0[ ]	/* SetRefPoint0 */
PUSHW[ ]	/* 1 value pushed */
36
MDRP[10000]	/* MoveDirectRelPt */
PUSHW[ ]	/* 1 value pushed */
36
MDAP[1]	/* MoveDirectAbsPt */
PUSHW[ ]	/* 1 value pushed */
23
SRP0[ ]	/* SetRefPoint0 */
PUSHW[ ]	/* 1 value pushed */
41
MDRP[11100]	/* MoveDirectRelPt */
NPUSHW[ ]	/* 5 values pushed */
57 41 73 41 2
DELTAP2[ ]	/* DeltaExceptionP2 */
NPUSHW[ ]	/* 21 values pushed */
104 41 120 41 136 41 152 41 168 41 184 41 200 41 216 41 232 41 248 41 10
DELTAP1[ ]	/* DeltaExceptionP1 */
NPUSHW[ ]	/* 7 values pushed */
8 41 24 41 40 41 3
DELTAP2[ ]	/* DeltaExceptionP2 */
IUP[0]	/* InterpolateUntPts */
IUP[1]	/* InterpolateUntPts */";
};
width = 480;
}
);
note = e;
},
{
glyphname = f.001;
layers = (
{
layerId = m01;
shapes = (
{
closed = 1;
nodes = (
(297,353,o),
(303,364,o),
(306,377,o),
(304,390,o),
(300,394,q),
(186,394,ls),
(173,394,o),
(169,402,o),
(169,422,qs),
(169,451,ls),
(169,470,o),
(171,514,o),
(176,560,o),
(184,603,o),
(191,620,qs),
(214,675,o),
(262,675,qs),
(287,675,o),
(328,648,o),
(342,631,qs),
(352,619,o),
(366,619,qs),
(380,619,o),
(404,640,o),
(404,655,qs),
(404,682,o),
(346,715,o),
(306,715,qs),
(269,715,o),
(210,691,o),
(166,654,o),
(135,609,o),
(126,588,qs),
(108,546,o),
(95,456,o),
(95,412,qs),
(95,404,o),
(86,395,o),
(80,392,qs),
(37,371,l),
(34,366,o),
(35,355,o),
(40,352,q),
(75,352,ls),
(90,352,o),
(95,343,o),
(95,323,qs),
(95,112,ls),
(95,85,o),
(94,52,o),
(86,34,o),
(71,27,o),
(57,25,qs),
(34,22,l),
(29,18,o),
(31,-1,o),
(36,-3,q),
(59,-1,o),
(105,0,o),
(132,0,qs),
(158,0,o),
(207,-1,o),
(241,-3,q),
(246,-1,o),
(248,18,o),
(243,22,q),
(207,25,ls),
(193,26,o),
(178,33,o),
(171,52,o),
(169,85,o),
(169,112,qs),
(169,323,ls),
(169,343,o),
(173,352,o),
(186,352,qs),
(293,352,l)
);
}
);
userData = {
assembly = "PUSHW[ ]	/* 4 values pushed */
4 2 28 4
CALL[ ]	/* CallFunction */
PUSHW[ ]	/* 1 value pushed */
4
SRP0[ ]	/* SetRefPoint0 */
PUSHW[ ]	/* 1 value pushed */
28
SRP0[ ]	/* SetRefPoint0 */
PUSHW[ ]	/* 1 value pushed */
40
MDRP[10000]	/* MoveDirectRelPt */
PUSHW[ ]	/* 1 value pushed */
4
SRP0[ ]	/* SetRefPoint0 */
PUSHW[ ]	/* 1 value pushed */
66
MDRP[10000]	/* MoveDirectRelPt */
SVTCA[0]	/* SetFreedomAndProjectionVectorToAxis */
PUSHW[ ]	/* 1 value pushed */
0
RCVT[ ]	/* ReadCVT */
IF[ ]	/* If */
PUSHW[ ]	/* 1 value pushed */
48
MDAP[1]	/* MoveDirectAbsPt */
ELSE[ ]	/* Else */
PUSHW[ ]	/* 2 values pushed */
48 16
MIAP[0]	/* MoveIndirectAbsPt */
EIF[ ]	/* EndIf */
PUSHW[ ]	/* 1 value pushed */
0
RCVT[ ]	/* ReadCVT */
IF[ ]	/* If */
PUSHW[ ]	/* 1 value pushed */
37
MDAP[1]	/* MoveDirectAbsPt */
ELSE[ ]	/* Else */
PUSHW[ ]	/* 2 values pushed */
37 10
MIAP[0]	/* MoveIndirectAbsPt */
EIF[ ]	/* EndIf */
PUSHW[ ]	/* 1 value pushed */
0
RCVT[ ]	/* ReadCVT */
IF[ ]	/* If */
PUSHW[ ]	/* 1 value pushed */
70
MDAP[1]	/* MoveDirectAbsPt */
ELSE[ ]	/* Else */
PUSHW[ ]	/* 2 values pushed */
70 10
MIAP[0]	/* MoveIndirectAbsPt */
EIF[ ]	/* EndIf */
PUSHW[ ]	/* 1 value pushed */
0
RCVT[ ]	/* ReadCVT */
IF[ ]	/* If */
PUSHW[ ]	/* 1 value pushed */
13
MDAP[1]	/* MoveDirectAbsPt */
ELSE[ ]	/* Else */
PUSHW[ ]	/* 2 values pushed */
13 4
MIAP[0]	/* MoveIndirectAbsPt */
EIF[ ]	/* EndIf */
PUSHW[ ]	/* 1 value pushed */
0
RCVT[ ]	/* ReadCVT */
IF[ ]	/* If */
PUSHW[ ]	/* 1 value pushed */
16
MDAP[1]	/* MoveDirectAbsPt */
ELSE[ ]	/* Else */
PUSHW[ ]	/* 2 values pushed */
16 4
MIAP[0]	/* MoveIndirectAbsPt */
EIF[ ]	/* EndIf */
PUSHW[ ]	/* 1 value pushed */
0
RCVT[ ]	/* ReadCVT */
IF[ ]	/* If */
PUSHW[ ]	/* 1 value pushed */
19
MDAP[1]	/* MoveDirectAbsPt */
ELSE[ ]	/* Else */
PUSHW[ ]	/* 2 values pushed */
19 4
MIAP[0]	/* MoveIndirectAbsPt */
EIF[ ]	/* EndIf */
PUSHW[ ]	/* 1 value pushed */
70
SRP0[ ]	/* SetRefPoint0 */
PUSHW[ ]	/* 2 values pushed */
0 1
MIRP[11100]	/* MoveIndirectRelPt */
PUSHW[ ]	/* 1 value pushed */
13
SRP0[ ]	/* SetRefPoint0 */
PUSHW[ ]	/* 2 values pushed */
9 1
MIRP[11100]	/* MoveIndirectRelPt */
PUSHW[ ]	/* 1 value pushed */
0
SRP0[ ]	/* SetRefPoint0 */
PUSHW[ ]	/* 1 value pushed */
32
MDRP[10000]	/* MoveDirectRelPt */
PUSHW[ ]	/* 1 value pushed */
33
MDRP[10000]	/* MoveDirectRelPt */
PUSHW[ ]	/* 1 value pushed */
48
SRP0[ ]	/* SetRefPoint0 */
PUSHW[ ]	/* 2 values pushed */
59 1
MIRP[11100]	/* MoveIndirectRelPt */
NPUSHW[ ]	/* 5 values pushed */
185 59 201 59 2
DELTAP2[ ]	/* DeltaExceptionP2 */
NPUSHW[ ]	/* 33 values pushed */
8 59 24 59 40 59 56 59 72 59 88 59 104 59 120 59 136 59 152 59 168 59 184 59 200 59 216 59 232 59 248 59 16
DELTAP1[ ]	/* DeltaExceptionP1 */
NPUSHW[ ]	/* 23 values pushed */
8 59 24 59 40 59 56 59 72 59 88 59 104 59 120 59 136 59 152 59 168 59 11
DELTAP2[ ]	/* DeltaExceptionP2 */
IUP[0]	/* InterpolateUntPts */
IUP[1]	/* InterpolateUntPts */";
};
width = 290;
}
);
note = f;
},
{
glyphname = f.002;
layers = (
{
hints = (
{
horizontal = 1;
place = (710,39);
type = Stem;
},
{
horizontal = 1;
place = (379,46);
type = Stem;
},
{
horizontal = 1;
place = (-4,33);
type = Stem;
},
{
place = (101,78);
type = Stem;
}
);
layerId = m01;
shapes = (
{
closed = 1;
nodes = (
(178,472,l),
(187,579,l),
(198,624,l),
(220,667,l),
(249,692,l),
(295,710,l),
(333,698,l),
(359,680,l),
(390,656,l),
(431,681,l),
(442,702,l),
(439,716,l),
(420,733,l),
(346,749,l),
(269,737,l),
(218,709,l),
(181,680,l),
(148,636,l),
(122,575,l),
(106,488,l),
(99,449,l),
(81,427,l),
(45,419,l),
(33,380,l),
(102,380,l),
(101,109,l),
(96,45,l),
(71,33,l),
(36,32,l),
(35,-4,l),
(143,2,l),
(264,-5,l),
(264,30,l),
(201,34,l),
(187,51,l),
(183,71,l),
(180,122,l),
(180,380,l),
(311,380,l),
(326,426,l),
(179,426,l)
);
}
);
width = 313;
}
);
},
{
glyphname = f.003;
layers = (
{
hints = (
{
horizontal = 1;
place = (710,39);
type = Stem;
},
{
horizontal = 1;
place = (379,46);
type = Stem;
},
{
horizontal = 1;
place = (-4,33);
type = Stem;
},
{
place = (101,78);
type = Stem;
}
);
layerId = m01;
shapes = (
{
closed = 1;
nodes = (
(178,472,l),
(187,579,l),
(198,624,l),
(220,667,l),
(249,692,l),
(295,710,l),
(333,698,l),
(359,680,l),
(390,656,l),
(431,681,l),
(442,702,l),
(439,716,l),
(420,733,l),
(346,749,l),
(269,737,l),
(218,709,l),
(181,680,l),
(148,636,l),
(122,575,l),
(106,488,l),
(99,449,l),
(81,427,l),
(45,419,l),
(33,380,l),
(102,380,l),
(101,109,l),
(96,45,l),
(71,33,l),
(36,32,l),
(35,-4,l),
(143,2,l),
(264,-5,l),
(264,30,l),
(201,34,l),
(187,51,l),
(183,71,l),
(180,122,l),
(180,380,l),
(311,380,l),
(326,426,l),
(179,426,l)
);
}
);
width = 313;
}
);
},
{
glyphname = f.004;
layers = (
{
hints = (
{
horizontal = 1;
place = (720,36);
type = Stem;
},
{
horizontal = 1;
place = (464,50);
type = Stem;
},
{
horizontal = 1;
place = (0,34);
type = Stem;
},
{
place = (97,104);
type = Stem;
}
);
layerId = m01;
shapes = (
{
closed = 1;
nodes = (
(97,255,l),
(95,179,l),
(94,82,l),
(74,47,l),
(51,35,l),
(25,32,l),
(10,23,l),
(9,19,l),
(15,4,l),
(29,3,l),
(47,4,l),
(148,9,l),
(228,6,l),
(280,2,l),
(296,6,l),
(303,16,l),
(295,30,l),
(273,34,l),
(243,37,l),
(217,52,l),
(203,77,l),
(200,112,l),
(200,195,l),
(201,382,l),
(202,413,l),
(201,433,l),
(209,454,l),
(231,462,l),
(268,464,l),
(301,462,l),
(326,460,l),
(338,461,l),
(346,484,l),
(339,503,l),
(326,506,l),
(302,504,l),
(259,505,l),
(229,505,l),
(205,516,l),
(202,534,l),
(211,637,l),
(223,675,l),
(247,709,l),
(274,719,l),
(298,709,l),
(326,682,l),
(348,652,l),
(371,641,l),
(393,650,l),
(403,665,l),
(421,703,l),
(415,723,l),
(398,739,l),
(320,754,l),
(245,738,l),
(177,696,l),
(123,629,l),
(103,576,l),
(88,514,l),
(49,499,l),
(30,493,l),
(25,480,l),
(24,471,l),
(32,466,l),
(62,468,l),
(83,462,l),
(94,451,l),
(96,431,l)
);
}
);
width = 333;
}
);
},
{
glyphname = f.005;
layers = (
{
hints = (
{
horizontal = 1;
place = (702,86);
type = Stem;
},
{
horizontal = 1;
place = (0,31);
type = Stem;
},
{
horizontal = 1;
place = (428,21);
target = up;
type = BottomGhost;
},
{
place = (87,73);
type = Stem;
}
);
layerId = m01;
shapes = (
{
closed = 1;
nodes = (
(242,432,l),
(161,434,l),
(160,559,l),
(160,616,l),
(162,673,l),
(179,714,l),
(204,728,l),
(221,733,l),
(258,716,l),
(295,702,l),
(315,711,l),
(327,726,l),
(330,740,l),
(322,766,l),
(302,779,l),
(269,784,l),
(203,768,l),
(180,754,l),
(164,740,l),
(132,698,l),
(100,624,l),
(93,573,l),
(88,536,l),
(87,505,l),
(86,462,l),
(86,434,l),
(17,434,l),
(6,430,l),
(5,420,l),
(8,389,l),
(16,388,l),
(36,388,l),
(86,389,l),
(87,324,l),
(85,188,l),
(84,132,l),
(77,48,l),
(57,37,l),
(26,32,l),
(12,31,l),
(10,21,l),
(10,3,l),
(17,1,l),
(28,2,l),
(68,4,l),
(133,6,l),
(194,3,l),
(209,2,l),
(220,0,l),
(227,1,l),
(235,4,l),
(237,16,l),
(235,26,l),
(215,32,l),
(169,41,l),
(161,81,l),
(159,110,l),
(162,201,l),
(160,244,l),
(162,311,l),
(161,386,l),
(265,388,l),
(273,385,l),
(285,392,l),
(285,402,l),
(283,432,l),
(273,433,l)
);
}
);
width = 271;
}
);
},
{
glyphname = f.006;
layers = (
{
hints = (
{
horizontal = 1;
place = (714,51);
type = Stem;
},
{
horizontal = 1;
place = (394,60);
type = Stem;
},
{
horizontal = 1;
place = (-1,30);
type = Stem;
},
{
place = (89,75);
type = Stem;
}
);
layerId = m01;
shapes = (
{
closed = 1;
nodes = (
(165,300,l),
(169,383,l),
(229,394,l),
(258,394,l),
(278,407,l),
(285,429,l),
(272,447,l),
(259,446,l),
(182,440,l),
(174,442,l),
(169,459,l),
(167,513,l),
(171,581,l),
(185,653,l),
(219,693,l),
(265,714,l),
(308,700,l),
(348,680,l),
(378,692,l),
(395,724,l),
(383,747,l),
(345,761,l),
(314,765,l),
(246,748,l),
(204,723,l),
(160,680,l),
(113,604,l),
(102,546,l),
(94,501,l),
(81,438,l),
(58,426,l),
(31,415,l),
(21,396,l),
(22,387,l),
(36,382,l),
(48,383,l),
(63,384,l),
(76,386,l),
(83,383,l),
(88,370,l),
(89,357,l),
(90,321,l),
(92,276,l),
(90,194,l),
(91,152,l),
(90,97,l),
(84,48,l),
(43,33,l),
(28,29,l),
(19,16,l),
(27,2,l),
(40,1,l),
(68,3,l),
(120,5,l),
(181,3,l),
(224,-1,l),
(251,3,l),
(257,9,l),
(237,29,l),
(209,35,l),
(179,51,l),
(171,75,l),
(169,127,l),
(168,149,l),
(168,180,l),
(167,224,l)
);
}
);
width = 292;
}
);
},
{
glyphname = f.007;
layers = (
{
layerId = m01;
shapes = (
{
closed = 1;
nodes = (
(222,433,o),
(236,433,qs),
(327,433,ls),
(340,433,o),
(348,441,o),
(348,453,qs),
(348,467,o),
(338,473,o),
(318,473,qs),
(234,473,ls),
(218,473,o),
(211,484,o),
(211,502,qs),
(211,558,o),
(222,605,qs),
(237,671,o),
(278,671,qs),
(300,671,o),
(318,647,qs),
(344,612,o),
(361,596,o),
(373,596,qs),
(384,596,o),
(418,645,o),
(418,661,qs),
(418,681,o),
(367,707,o),
(328,707,qs),
(247,707,o),
(179,644,qs),
(127,596,o),
(116,522,qs),
(111,489,o),
(101,473,o),
(83,469,qs),
(43,461,o),
(43,445,qs),
(43,431,o),
(60,431,qs),
(64,431,ls),
(71,431,o),
(89,433,o),
(91,433,qs),
(110,433,o),
(110,395,qs),
(110,106,ls),
(110,62,o),
(102,50,qs),
(90,33,o),
(57,30,qs),
(19,27,o),
(19,12,qs),
(19,-3,o),
(40,-3,qs),
(52,-3,o),
(59,-2,qs),
(134,1,o),
(161,1,qs),
(193,1,o),
(214,0,qs),
(278,-3,o),
(283,-3,qs),
(305,-3,o),
(305,12,qs),
(305,27,o),
(267,30,qs),
(233,33,o),
(221,50,qs),
(213,62,o),
(213,106,qs),
(213,407,ls),
(213,422,o)
);
}
);
userData = {
assembly = "PUSHW[ ]	/* 1 value pushed */
10
CALL[ ]	/* CallFunction */
PUSHW[ ]	/* 3 values pushed */
1 25 13
CALL[ ]	/* CallFunction */
PUSHW[ ]	/* 1 value pushed */
1
SRP0[ ]	/* SetRefPoint0 */
PUSHW[ ]	/* 1 value pushed */
25
SRP0[ ]	/* SetRefPoint0 */
PUSHW[ ]	/* 1 value pushed */
39
MDRP[10000]	/* MoveDirectRelPt */
PUSHW[ ]	/* 1 value pushed */
39
MDAP[1]	/* MoveDirectAbsPt */
PUSHW[ ]	/* 1 value pushed */
1
SRP0[ ]	/* SetRefPoint0 */
PUSHW[ ]	/* 1 value pushed */
58
MDRP[10000]	/* MoveDirectRelPt */
PUSHW[ ]	/* 1 value pushed */
58
MDAP[1]	/* MoveDirectAbsPt */
SVTCA[0]	/* SetFreedomAndProjectionVectorToAxis */
PUSHW[ ]	/* 1 value pushed */
43
MDAP[1]	/* MoveDirectAbsPt */
PUSHW[ ]	/* 1 value pushed */
37
RCVT[ ]	/* ReadCVT */
IF[ ]	/* If */
PUSHW[ ]	/* 1 value pushed */
9
MDAP[1]	/* MoveDirectAbsPt */
ELSE[ ]	/* Else */
PUSHW[ ]	/* 2 values pushed */
9 38
MIAP[0]	/* MoveIndirectAbsPt */
EIF[ ]	/* EndIf */
PUSHW[ ]	/* 1 value pushed */
37
RCVT[ ]	/* ReadCVT */
IF[ ]	/* If */
PUSHW[ ]	/* 1 value pushed */
11
MDAP[1]	/* MoveDirectAbsPt */
ELSE[ ]	/* Else */
PUSHW[ ]	/* 2 values pushed */
11 38
MIAP[0]	/* MoveIndirectAbsPt */
EIF[ ]	/* EndIf */
PUSHW[ ]	/* 1 value pushed */
37
RCVT[ ]	/* ReadCVT */
IF[ ]	/* If */
PUSHW[ ]	/* 1 value pushed */
13
MDAP[1]	/* MoveDirectAbsPt */
ELSE[ ]	/* Else */
PUSHW[ ]	/* 2 values pushed */
13 38
MIAP[0]	/* MoveIndirectAbsPt */
EIF[ ]	/* EndIf */
PUSHW[ ]	/* 1 value pushed */
37
RCVT[ ]	/* ReadCVT */
IF[ ]	/* If */
PUSHW[ ]	/* 1 value pushed */
15
MDAP[1]	/* MoveDirectAbsPt */
ELSE[ ]	/* Else */
PUSHW[ ]	/* 2 values pushed */
15 38
MIAP[0]	/* MoveIndirectAbsPt */
EIF[ ]	/* EndIf */
PUSHW[ ]	/* 1 value pushed */
37
RCVT[ ]	/* ReadCVT */
IF[ ]	/* If */
PUSHW[ ]	/* 1 value pushed */
17
MDAP[1]	/* MoveDirectAbsPt */
ELSE[ ]	/* Else */
PUSHW[ ]	/* 2 values pushed */
17 38
MIAP[0]	/* MoveIndirectAbsPt */
EIF[ ]	/* EndIf */
PUSHW[ ]	/* 3 values pushed */
61 69 13
CALL[ ]	/* CallFunction */
PUSHW[ ]	/* 1 value pushed */
61
SRP0[ ]	/* SetRefPoint0 */
PUSHW[ ]	/* 1 value pushed */
9
SRP0[ ]	/* SetRefPoint0 */
PUSHW[ ]	/* 1 value pushed */
5
MDRP[11100]	/* MoveDirectRelPt */
NPUSHW[ ]	/* 21 values pushed */
103 5 119 5 135 5 151 5 167 5 183 5 199 5 215 5 231 5 247 5 10
DELTAP1[ ]	/* DeltaExceptionP1 */
NPUSHW[ ]	/* 7 values pushed */
7 5 23 5 39 5 3
DELTAP2[ ]	/* DeltaExceptionP2 */
NPUSHW[ ]	/* 5 values pushed */
54 5 70 5 2
DELTAP2[ ]	/* DeltaExceptionP2 */
PUSHW[ ]	/* 1 value pushed */
21
MDRP[10000]	/* MoveDirectRelPt */
PUSHW[ ]	/* 1 value pushed */
69
SRP0[ ]	/* SetRefPoint0 */
PUSHW[ ]	/* 1 value pushed */
28
MDRP[10000]	/* MoveDirectRelPt */
PUSHW[ ]	/* 1 value pushed */
69
SRP0[ ]	/* SetRefPoint0 */
PUSHW[ ]	/* 1 value pushed */
31
MDRP[10000]	/* MoveDirectRelPt */
PUSHW[ ]	/* 1 value pushed */
31
MDAP[1]	/* MoveDirectAbsPt */
IUP[0]	/* InterpolateUntPts */
IUP[1]	/* InterpolateUntPts */";
};
width = 357;
}
);
note = f;
},
